<svg width="512" height="512" viewBox="0 0 512 512" fill="none" xmlns="http://www.w3.org/2000/svg">
<rect width="512" height="512" fill="white"/>
<path d="M119.67 213.286C132.163 217.43 142.81 229.719 142.81 241.865C142.81 271.587 110.443 280.589 96.2471 264.442C89.0073 282.447 79.7799 298.165 65.0163 298.165C53.3754 298.165 45 290.306 45 280.304C45 266.729 57.2084 258.727 66.1518 261.013C63.8807 264.871 65.8678 270.015 70.8364 270.015C81.4835 270.015 91.8465 237.293 105.332 217.716C104.339 217.716 103.345 217.716 102.351 217.859C89.2913 219.288 84.1804 232.577 90.4269 236.578C88.0135 247.724 70.8364 247.009 72.3978 233.577C73.2499 225.861 80.2056 218.859 88.0135 215.287C95.9631 211.571 103.629 210.857 110.159 211.429C114.702 206.284 119.67 202.998 124.923 203.141C128.614 203.284 131.169 206.142 131.027 208.857C130.885 212 128.756 213.572 128.756 213.572C128.756 213.572 126.91 211.715 124.639 211.571C122.793 211.571 121.232 212.143 119.67 213.286ZM128.188 241.579C130.175 233.006 124.213 223.289 114.418 219.431C109.875 226.576 106.042 237.721 101.926 249.439C110.159 254.868 125.349 253.011 128.188 241.579Z" fill="#FF0D1C"/>
<path d="M182.775 259.013H189.162C184.194 269.158 175.392 282.876 157.931 282.876C150.266 282.876 143.452 276.588 143.452 267.3C143.452 252.582 160.061 239.864 171.275 239.864C175.251 239.864 178.516 241.722 178.516 245.866C178.516 252.725 166.165 261.585 158.215 262.871C159.209 265.871 161.622 268.3 164.604 268.872C172.127 270.301 178.942 265.871 182.775 259.013ZM169.714 246.009C163.61 246.009 158.357 251.725 157.647 258.298C165.455 256.154 173.547 246.009 169.714 246.009Z" fill="#FF0D1C"/>
<path d="M224.296 259.8H230.684C230.684 259.8 217.366 283.018 205.299 283.018C198.06 283.018 196.214 277.445 196.214 272.873C196.214 263.871 203.738 253.297 208.706 247.438C205.441 248.009 201.182 248.295 196.923 247.009C196.923 247.009 193.137 251.153 189.162 259.013C188.452 260.441 182.207 260.441 182.775 259.013C189.446 248.009 191.103 237.578 191.103 237.578H200.899C200.899 237.578 203.596 243.008 218.218 243.008H219.637C219.637 243.008 202.318 265.871 213.817 265.871C218.076 265.871 224.296 259.8 224.296 259.8Z" fill="#FF0D1C"/>
<path d="M270.022 259.281H276.41C276.41 259.281 269.161 270.015 256.526 271.015C252.694 278.16 246.164 283.876 237.93 283.876C228.56 283.876 222.882 277.445 222.882 267.3C222.882 256.154 233.813 240.722 248.577 240.722C258.94 240.722 262.205 250.867 260.075 261.441C260.927 261.87 262.063 262.156 263.057 262.156C265.328 262.156 270.022 259.281 270.022 259.281ZM241.337 268.872C245.17 268.872 246.305 267.3 246.305 267.3C246.305 267.3 242.472 263.728 241.763 258.727C241.195 253.868 243.75 248.724 243.75 248.724C243.608 248.724 235.658 253.868 235.658 262.013C235.658 265.871 238.639 268.872 241.337 268.872ZM253.687 258.012C253.687 258.012 257.378 248.724 252.551 248.724C250.564 248.724 249.712 251.439 250.138 253.153C250.99 256.726 253.687 258.012 253.687 258.012Z" fill="#FF0D1C"/>
<path d="M305.329 243.008H312.569C312.569 243.008 293.121 308.025 271.969 308.025C265.581 308.025 261.89 303.024 261.89 297.451C261.89 290.306 268.278 286.734 268.278 286.734C268.278 286.734 269.555 288.734 272.395 288.734C278.215 288.734 285.171 281.161 291.133 271.301C285.171 277.589 277.931 283.018 272.253 283.018C268.562 283.018 265.013 280.732 265.013 274.159C265.013 259.013 283.184 241.579 296.528 241.579C300.361 241.579 302.49 244.151 303.484 247.152C304.619 244.58 305.329 243.008 305.329 243.008ZM282.616 265.871C294.398 265.871 304.619 248.153 296.386 248.153C285.171 248.153 274.666 265.871 282.616 265.871Z" fill="#FF0D1C"/>
<path d="M327.596 243.008H334.552C334.552 243.008 317.233 265.871 328.731 265.871C332.848 265.871 339.535 259.155 339.535 259.155L344.832 259.502C344.832 259.502 332.28 283.018 320.214 283.018C312.974 283.018 310.986 277.445 310.986 272.873C310.986 259.584 327.596 243.008 327.596 243.008ZM329.867 238.864H335.971C335.971 238.864 338.526 235.006 343.211 231.148H333.842C333.842 231.148 332.28 234.435 329.867 238.864Z" fill="#FF0D1C"/>
<path d="M377.191 259.013H383.579C378.611 269.158 369.81 282.876 352.349 282.876C344.683 282.876 337.868 276.588 337.868 267.3C337.868 252.582 354.478 239.864 365.693 239.864C369.667 239.864 372.932 241.722 372.932 245.866C372.932 252.725 360.582 261.585 352.633 262.871C353.626 265.871 356.039 268.3 359.021 268.872C366.545 270.301 373.359 265.871 377.191 259.013ZM364.131 246.009C358.027 246.009 352.774 251.725 352.065 258.298C359.872 256.154 367.964 246.009 364.131 246.009Z" fill="#FF0D1C"/>
<path d="M182.167 282.597C191.82 282.597 195.937 292.314 192.104 302.174C185.858 318.749 165.7 335.753 143.555 336.897C138.444 343.756 132.908 349.757 127.087 354.187C131.488 356.044 136.173 357.617 140.573 358.045C151.362 359.045 155.763 350.471 153.35 343.899C176.347 340.469 181.174 374.907 154.343 377.907C142.135 379.193 125.951 366.762 115.162 360.045C113.175 360.617 111.046 360.903 108.917 360.903C101.818 360.903 98.9793 356.331 99.2633 352.901C99.6891 349.757 104.09 347.471 107.639 347.471C109.626 347.471 111.897 348.185 114.453 349.043C118.712 346.042 122.97 340.898 127.087 334.896C100.683 325.894 110.336 292.457 132.34 297.315C128.933 302.888 132.908 311.319 140.289 314.748C151.22 298.316 164.138 282.597 182.167 282.597ZM184.58 298.029C185.716 294.743 184.58 291.456 180.89 291.456C174.076 291.456 166.694 302.174 158.318 315.177C170.385 312.319 181.884 305.46 184.58 298.029Z" fill="#FF0D1C"/>
<path d="M232.173 333.568H238.561C238.561 333.568 224.707 357.474 212.641 357.474C205.543 357.474 203.555 351.901 203.555 347.328C203.555 346.042 203.697 344.756 203.981 343.47C197.451 350.758 189.36 357.474 182.971 357.474C179.281 357.474 175.732 355.187 175.732 348.614C175.732 333.467 193.902 316.034 207.246 316.034C211.931 316.034 214.202 319.893 214.77 323.607C217.751 319.893 220.165 317.463 220.165 317.463H226.979C226.979 317.463 209.802 340.326 221.3 340.326C225.417 340.326 232.173 333.568 232.173 333.568ZM193.334 340.326C205.117 340.326 215.338 322.607 207.104 322.607C195.89 322.607 185.385 340.326 193.334 340.326Z" fill="#FF0D1C"/>
<path d="M251.228 317.463C251.228 317.463 246.97 323.179 244.13 328.895C249.382 322.036 258.042 315.034 264.288 315.034C269.967 315.034 270.96 319.035 270.96 322.179C270.96 327.037 265.14 340.326 271.528 340.326C276.638 340.326 283.919 333.86 283.919 333.86H290.307C290.307 333.86 276.355 357.473 263.578 357.473C258.61 357.473 254.635 352.615 254.635 345.756C254.635 333.896 265.282 322.465 260.171 322.465C257.9 322.465 244.414 331.753 244.414 355.616C244.414 355.616 241.433 357.473 236.89 357.473C229.65 357.473 227.805 351.901 227.805 347.328C227.805 334.039 244.414 317.463 244.414 317.463H251.228Z" fill="#FF0D1C"/>
<path d="M333.103 333.61H339.491C339.491 333.61 327.993 357.474 316.493 357.474C309.254 357.474 306.84 351.901 306.84 347.328C306.84 346.042 306.84 344.756 306.982 343.47C300.594 350.758 292.361 357.474 286.115 357.474C282.423 357.474 278.733 355.187 278.733 348.614C278.733 333.467 296.903 316.034 310.247 316.034C313.512 316.034 315.5 317.749 316.636 320.035C323.308 309.89 330.831 302.888 330.831 302.888H338.923C338.923 302.888 312.093 340.326 324.444 340.326C329.412 340.326 333.103 333.61 333.103 333.61ZM296.477 340.326C301.872 340.326 306.841 336.611 309.963 332.61C310.815 330.324 311.951 328.18 313.087 326.037C313.371 324.036 312.519 322.607 310.106 322.607C299.033 322.607 288.386 340.326 296.477 340.326Z" fill="#FF0D1C"/>
<path fill-rule="evenodd" clip-rule="evenodd" d="M242.473 228.683C243.542 231.436 245.392 232.128 247.549 230.971C248.009 231.134 248.423 231.302 248.807 231.459C249.635 231.796 250.326 232.078 251.046 232.121C252.792 232.274 253.83 231.04 254.633 229.644C254.674 229.574 254.713 229.505 254.753 229.435C255.201 228.653 255.612 227.933 256.708 227.709C257.055 227.588 257.375 227.398 257.648 227.151C257.921 226.903 258.141 226.602 258.296 226.266C259.563 223.628 259.011 221.043 257.833 218.515C257.585 218.048 257.471 217.52 257.504 216.991C257.821 215.046 257.489 214.302 255.689 213.38C255.419 213.242 255.157 213.094 254.882 212.937C254.804 212.893 254.725 212.848 254.644 212.803C254.739 212.53 254.823 212.268 254.904 212.014C255.058 211.527 255.203 211.071 255.401 210.633C257.605 205.792 261.119 201.672 265.541 198.745C267.806 197.203 270.261 195.973 272.84 195.083L273.408 190.382C262.924 193.71 255.073 200.058 250.853 210.535C250.54 211.322 250.182 211.466 249.386 211.347C247.987 211.147 246.449 211.3 245.835 212.707C245.276 213.982 244.37 214.799 243.428 215.648C243.227 215.829 243.025 216.011 242.824 216.2C240.75 218.198 239.895 220.889 239.24 223.605C238.499 226.653 239.465 228.093 242.473 228.683ZM245.084 230.302C243.603 230.181 243.366 228.658 243.205 227.38C240.833 227.919 239.666 226.857 239.964 224.525C240.283 222.056 241.212 219.707 242.665 217.691C244.256 215.445 246.495 214.759 249.143 215.523C249.349 215.553 249.558 215.559 249.767 215.543C249.431 214.434 248.616 214.169 246.207 214.285C246.199 214.015 246.247 213.746 246.346 213.495C246.446 213.244 246.595 213.016 246.785 212.825C246.975 212.634 247.201 212.483 247.45 212.383C247.7 212.282 247.967 212.234 248.235 212.24C251.064 212.258 253.821 213.13 256.151 214.743C256.955 215.259 256.953 216.147 256.436 217.164L253.212 216.025L252.976 216.459C253.264 216.706 253.579 216.919 253.916 217.093C254.697 217.345 255.422 217.75 256.047 218.284C256.673 218.818 257.188 219.471 257.563 220.205C257.939 220.94 258.165 221.741 258.232 222.564C258.299 223.387 258.204 224.215 257.953 225.001C257.851 225.522 257.601 226.002 257.233 226.382C256.866 226.763 256.396 227.029 255.881 227.146C255.808 226.553 255.93 225.959 256.05 225.374C256.23 224.498 256.406 223.64 255.92 222.828L255.523 222.82C255.468 223.455 255.373 224.085 255.241 224.708C254.877 226.241 254.408 227.748 253.837 229.216C253.613 229.854 253.198 230.406 252.648 230.795C252.099 231.185 251.443 231.393 250.771 231.39C249.39 231.358 248.911 230.284 248.7 229.437C248.297 229.54 247.901 229.675 247.513 229.807C246.673 230.092 245.866 230.366 245.084 230.302Z" fill="#FF0D1C"/>
<path fill-rule="evenodd" clip-rule="evenodd" d="M439.348 206.959C439.609 207.248 439.875 207.542 440.137 207.846C438.793 210.123 437.058 212.101 435.034 213.665C433.216 215.026 431.217 215.981 429.051 215.733C427.987 215.538 426.938 215.262 425.914 214.908L424.553 219.044C427.956 220.413 431.437 220.369 435.002 218.488C438.095 216.761 440.744 214.191 442.688 211.033C443.214 210.235 443.588 210.11 444.385 210.561C446.499 211.765 447.528 211.483 449.267 209.483C449.294 209.452 449.32 209.421 449.348 209.389C449.514 209.192 449.698 208.973 449.902 208.933C452.561 208.384 454.011 206.234 455.261 203.943C456.292 201.922 457.868 200.289 459.767 199.278C460.571 198.904 461.341 198.443 462.065 197.904C463.278 197.025 464.403 196.005 465.418 194.862C465.672 194.587 465.852 194.244 465.94 193.87C466.028 193.495 466.019 193.104 465.916 192.74C465.812 192.377 465.617 192.055 465.353 191.811C465.089 191.567 464.765 191.41 464.419 191.358C463.479 191.132 462.49 191.245 461.595 191.678C459.945 192.621 458.344 193.667 456.799 194.809C456.355 195.115 455.929 195.455 455.503 195.795C455.29 195.965 455.077 196.136 454.862 196.301C455.494 195.262 456.193 194.315 456.886 193.377C457.366 192.727 457.842 192.081 458.291 191.413C459.622 189.423 460.875 187.356 462.038 185.237C462.328 184.754 462.455 184.179 462.398 183.614C462.34 183.049 462.101 182.531 461.724 182.15C461.301 181.737 460.763 181.488 460.191 181.442C459.619 181.395 459.043 181.553 458.55 181.892C457.746 182.449 457.034 183.151 456.444 183.969C455.458 185.418 454.534 186.92 453.611 188.419C453.269 188.974 452.927 189.53 452.582 190.082C452.014 190.982 451.45 191.882 450.891 192.783C451.505 190.769 452.22 188.791 453.031 186.857C453.697 185.292 454.239 183.671 454.652 182.011C454.692 181.586 454.644 181.16 454.512 180.764C454.38 180.367 454.168 180.011 453.891 179.722C453.565 179.528 453.202 179.42 452.828 179.403C452.454 179.387 452.079 179.463 451.731 179.627C450.829 180.07 450.05 180.775 449.481 181.664C448.197 183.842 447.07 186.14 445.976 188.436C445.547 189.331 445.2 190.27 444.817 191.304C444.626 191.818 444.427 192.356 444.205 192.924C444.069 192.184 443.897 191.452 443.689 190.734C443.322 189.575 442.873 188.452 442.345 187.374C442.14 186.905 441.787 186.536 441.35 186.33C440.913 186.126 440.419 186.098 439.956 186.253C439.452 186.397 439 186.716 438.669 187.161C438.339 187.607 438.148 188.155 438.126 188.721C438.059 189.492 438.129 190.265 438.332 190.997C438.562 191.72 438.648 192.492 438.583 193.262C438.519 194.033 438.307 194.785 437.96 195.468C437.589 196.219 437.383 197.049 437.357 197.892C437.331 198.735 437.487 199.568 437.812 200.322C437.864 200.522 437.877 200.734 437.852 200.942C437.826 201.151 437.762 201.354 437.663 201.537C436.96 202.896 436.914 203.883 437.8 205.105C438.254 205.75 438.793 206.345 439.348 206.959ZM446.317 206.726L446.144 207.173L448.616 208.869C447.877 210.281 446.864 210.824 445.551 210.244C442.735 208.988 440.26 206.993 438.337 204.432C438.184 204.254 438.068 204.044 437.993 203.814C437.919 203.584 437.89 203.338 437.906 203.092C437.922 202.845 437.984 202.604 438.088 202.382C438.192 202.16 438.336 201.962 438.51 201.801C440.578 203.401 440.578 203.401 441.274 203.15C441.079 202.956 440.892 202.782 440.713 202.615C440.515 202.429 440.325 202.253 440.143 202.067C438.118 199.977 437.554 198.117 438.866 195.454C439.191 194.779 439.391 194.044 439.452 193.291C439.514 192.538 439.436 191.785 439.224 191.074C438.984 190.406 438.906 189.675 438.998 188.954C439.088 188.584 439.245 188.236 439.459 187.93C439.673 187.625 439.939 187.367 440.243 187.173C440.551 187.151 440.858 187.216 441.133 187.36C441.408 187.505 441.643 187.724 441.816 187.999C442.386 189.382 442.881 190.803 443.3 192.254C443.419 192.871 443.647 193.452 443.973 193.966C446.197 196.285 446.393 198.941 445.029 201.92L445.248 202.216C445.335 202.124 445.439 202.039 445.544 201.954C445.746 201.788 445.95 201.621 446.038 201.404C446.521 200.249 446.719 198.982 446.611 197.735C446.504 196.487 446.094 195.303 445.424 194.303C445.213 193.958 444.975 193.414 445.087 193.094C446.457 189.208 447.865 185.336 450.203 181.972C450.67 181.325 451.25 180.785 451.907 180.384C453.112 179.634 454.136 180.375 454.054 181.861C454.038 182.376 453.934 182.887 453.746 183.366C452.659 185.979 451.55 188.577 450.443 191.17C450.297 191.511 450.151 191.853 450.005 192.195L448.348 192.033L448.296 192.348C449.728 193.132 451.098 194.038 452.394 195.059C453.19 195.81 453.853 196.736 454.608 197.793C454.929 198.242 455.267 198.714 455.639 199.206C454.946 197.127 456 196.424 457.012 195.749C457.241 195.596 457.467 195.445 457.671 195.28C458.792 194.375 459.967 193.555 461.188 192.828C461.872 192.391 462.635 192.134 463.416 192.076C463.731 192.075 464.04 192.152 464.319 192.303C464.599 192.453 464.841 192.673 465.028 192.944C465.096 193.272 465.088 193.616 465.004 193.944C464.92 194.273 464.762 194.575 464.546 194.824C463.243 196.093 461.808 197.189 460.273 198.087C457.751 199.43 455.703 201.155 454.427 203.954C454.043 204.713 453.557 205.407 452.986 206.012C450.866 208.41 449.8 208.556 447.217 206.949C446.929 206.829 446.626 206.754 446.317 206.726ZM455.63 193.69C455.188 194.279 454.746 194.87 454.305 195.466L451.479 193.227C452 192.434 452.52 191.643 453.039 190.853C454.651 188.398 456.253 185.958 457.879 183.532C458.165 183.169 458.516 182.871 458.907 182.659C459.688 182.141 460.604 181.984 461.126 182.792C461.304 183.115 461.414 183.479 461.447 183.859C461.481 184.238 461.437 184.623 461.32 184.987C460.594 186.523 459.744 187.987 458.781 189.361C457.772 190.832 456.704 192.257 455.63 193.69Z" fill="#FF0D1C"/>
<path d="M450.693 204.477C451.269 202.09 454.438 199.862 455.506 200.694L450.693 204.477Z" fill="#FF0D1C"/>
<path d="M285.974 225.474C284.251 229.132 283.233 232.625 281.143 235.275C279.601 237.222 276.392 239.465 274.419 239.067C272.978 238.661 271.638 237.958 270.482 237.003C269.327 236.047 268.381 234.861 267.707 233.519C263.02 222.708 262.62 211.881 268.865 201.187C270.888 197.745 271.883 193.584 272.76 189.62C273.877 184.669 276.307 180.113 279.792 176.438C282.935 172.907 286.102 168.757 287.397 164.326C289.69 156.43 294.374 152.734 302.07 150.823C305.809 149.889 309.568 146.82 312.113 143.724C319.564 134.649 328.703 132.276 339.592 135.156C342.53 135.813 345.374 136.839 348.058 138.209C355.417 142.291 363.724 144.333 372.127 144.127C372.76 144.042 373.404 144.086 374.02 144.256C385.093 149.056 396.58 153.131 407.04 159.013C414.082 162.987 416.696 171.11 418.718 178.972C419.482 182.339 420.939 185.508 422.994 188.277C428.77 195.376 431.676 202.715 428.508 211.935C426.477 217.893 425.386 224.178 423.514 230.197C421.458 237.041 421.137 244.295 422.582 251.296C423.216 254.694 422.069 258.432 421.722 262.018C418.184 260.812 414.174 260.301 411.234 258.213C408.433 256.243 406.914 252.586 404.787 249.735C404.023 248.764 402.95 247.119 402.124 247.148C395.11 247.407 393.928 247.724 388.298 244.631C383.755 242.125 375.144 235.351 370.492 233.08C363.927 229.851 357.456 226.167 350.611 223.599C343.135 220.778 335.275 219.016 327.577 216.781C319.531 214.443 312.518 216.34 305.815 221.277C300.048 225.491 293.695 228.367 285.974 225.474ZM284.733 221.251C290.813 223.707 295.695 220.483 300.825 217.579C303.649 215.975 308.347 212.457 311.418 212.508C317.924 211.616 323.602 212.605 331.23 214.59C339.941 216.877 351.333 222.194 359.912 225.298C371.52 229.51 382.053 235.566 392.504 242.267C394.86 243.78 398.583 243.97 401.476 243.521C404.369 243.073 404.692 243.909 405.828 246.089C407.992 250.221 410.612 254.095 413.637 257.639C414.82 259.019 417.463 259.146 419.448 259.849C419.943 257.983 420.285 256.078 420.468 254.154C420.593 248.658 419.702 237.516 420.468 232.139C421.933 221.804 422.773 216.993 425.26 206.857C426.72 201.02 425.999 197.085 422.936 192.488C420.089 188.036 417.884 183.2 416.386 178.127C412.979 167.298 409.221 159.91 397.169 156.889C392.199 155.65 388.084 152.564 383.272 150.642C381.082 149.763 376.239 147.969 374.02 147.966C363.588 147.965 354.954 144.419 346.063 139.212C344.086 138.217 342.004 137.453 339.855 136.935C328.863 133.576 320.722 136.296 313.683 145.58C310.749 149.507 309.071 154.216 303.73 155.104C297.067 156.21 291.836 158.862 290.772 166.024C290.362 169.429 289.13 172.682 287.183 175.499C285.237 178.316 282.635 180.613 279.604 182.19C277.195 183.498 275.339 186.705 274.243 189.454C272.05 194.998 271.237 201.156 268.632 206.481C264.237 215.435 265.521 223.652 269.897 231.891C272.68 237.13 276.827 237.416 279.92 232.359C281.861 229.125 282.95 225.423 284.733 221.251Z" fill="#FF0D1C"/>
<path d="M283.646 218.605C280.083 213.863 278.97 208.548 281.748 203.97C284.399 199.589 286.343 196.212 280.343 192.319L281.891 191.821L288.167 195.272L283.713 187.545L284.308 186.815L289.736 191.705C294.583 187.051 297.453 180.941 299.673 174.634C300.25 172.989 298.761 170.505 297.914 168.513C297.294 167.002 296.254 165.616 296.185 163.66C298.032 165.818 299.881 167.967 301.884 170.386L304.817 166.508L299.88 160.456C303.632 162.296 306.265 167.036 311.042 163.829C314.518 161.497 317.408 158.256 320.825 155.199L317.014 150.975L322.672 152.363L320.366 146.553C324.156 152.997 329.813 153.193 336.124 152.175C340.379 151.5 343.489 150.275 342.728 144.93L345.01 150.139L346.116 149.85L346.243 144.258C347.305 150.954 352.221 153.735 357.552 155.773C362.404 157.609 367.538 158.699 372.471 160.327C379.258 162.561 385.975 164.992 393.23 167.522C393.395 167.316 394.305 166.098 395.186 164.889C391.657 172.91 399.688 175.476 402.128 180.812L408.395 176.305C402.55 183.119 402.55 183.119 405.921 190.869L412.998 189.125C403.678 191.513 408.232 199.681 406.927 205.369C404.759 214.851 412.439 214.198 417.16 217.651L408.449 216.632C406.846 223.343 412.964 223.302 416.85 226.736L409.588 225L411.982 243.638C409.992 235.176 407.621 226.792 406.108 218.246C404.325 208.169 404.122 197.861 401.939 187.918C399.352 176.507 390.938 169.464 380.019 165.811C369.27 162.22 358.821 159.637 348.971 153.617C347.692 152.996 345.944 152.797 344.536 152.982C339.217 153.301 334.406 153.869 329.16 154.806C326.587 155.339 323.542 156.926 322.063 158.97C318.382 164.071 313.306 166.464 307.794 169.054C305.731 170.139 304.089 171.886 303.129 174.017C299.874 181.682 295.155 188.198 290.066 194.743C284.976 201.289 278.611 208.521 283.646 218.605Z" fill="#FF0D1C"/>
<path d="M322.112 164.53L314.002 183.406C314.471 175.707 317 169.579 322.112 164.53Z" fill="#FF0D1C"/>
<path d="M377.224 212.581C382.643 205.337 388.407 198.273 389.231 188.704C389.608 198.873 384.452 206.274 377.224 212.581Z" fill="#FF0D1C"/>
<path d="M384.717 181.996C384.441 190.405 381.327 197.682 376.003 204.127C378.901 196.779 381.788 189.449 384.717 181.996Z" fill="#FF0D1C"/>
<path d="M309.232 185.547C308.554 178.622 311.231 173.05 316.083 168.205L309.232 185.547Z" fill="#FF0D1C"/>
<path d="M326.7 193.744C327.132 193.472 327.515 193.053 328 192.947C329.64 192.656 329.792 191.666 329.838 190.389C329.95 184.548 331.505 178.866 334.391 173.75C335.104 172.504 335.985 171.348 337.016 170.306C340.206 167.124 343.948 167.839 345.327 172.128C346.179 175.061 346.587 178.065 346.539 181.058C346.46 185.73 345.487 190.317 343.661 194.617L346.984 197.922L346.559 198.265C344.636 196.944 342.873 195.314 340.765 194.393C338.582 193.456 336.227 192.933 333.852 192.858C331.528 192.811 329.222 193.626 326.925 194.013L326.7 193.744ZM342.832 170.116C342.597 169.872 342.311 169.673 341.99 169.533C341.669 169.392 341.322 169.313 340.972 169.3C340.622 169.288 340.276 169.343 339.958 169.46C339.64 169.578 339.357 169.756 339.127 169.983C337.943 170.881 336.913 171.929 336.066 173.098C333.876 176.301 332.423 179.889 331.788 183.658C331.242 186.36 331 189.125 330.59 192.061L333.293 191.757L335.364 181.525C335.571 180.503 336.077 179.955 337.425 180.111C338.162 180.154 338.894 180.045 339.562 179.793C340.786 179.417 340.957 178.663 339.955 177.849C339.112 177.238 338.226 176.676 337.307 176.165C338.624 173.801 339.621 171.208 342.832 170.116Z" fill="#FF0D1C"/>
<path d="M352.299 198.916C352.758 198.65 353.17 198.237 353.684 198.127C355.116 197.863 355.413 197.066 355.436 195.852C355.486 190.207 356.904 184.698 359.59 179.707C360.524 177.999 361.737 176.435 363.191 175.065C365.885 172.57 369.003 173.269 370.599 176.581C372.165 179.758 372.349 183.091 372.186 186.421C371.945 191.035 370.958 195.56 369.256 199.857L372.516 203.141L371.928 203.758C369.407 201.209 366.604 199.142 362.93 198.33C359.256 197.518 355.844 198.27 352.487 199.513L352.299 198.916ZM368.427 175.355C368.249 175.139 368.026 174.956 367.771 174.816C367.516 174.677 367.234 174.585 366.943 174.546C366.652 174.506 366.358 174.52 366.079 174.587C365.8 174.654 365.541 174.772 365.32 174.934C364.066 175.741 362.961 176.718 362.043 177.832C359.59 181.194 357.987 185.022 357.341 189.061C356.803 191.722 356.58 194.439 356.191 197.319L358.885 197.013C359.614 193.413 360.287 190.084 360.962 186.748C361.166 185.743 361.657 185.174 363.023 185.334C363.763 185.376 364.495 185.265 365.162 185.008C366.395 184.634 366.558 183.878 365.554 183.073C364.722 182.469 363.848 181.915 362.939 181.413C364.187 179.009 365.252 176.464 368.427 175.355Z" fill="#FF0D1C"/>
<path d="M339.201 197.685C340.33 202.257 343.045 205.619 348.402 206.02C350.74 206.236 353.068 205.867 355.125 204.954C357.183 204.04 358.89 202.619 360.057 200.848C360.092 201.104 360.241 201.418 360.142 201.62C358.903 204.121 357.706 206.655 356.342 209.104C354.82 211.864 352.479 213.899 348.866 214.309C346.986 214.489 345.063 214.052 343.449 213.078C341.835 212.103 340.638 210.656 340.075 209C339.465 207.07 339.066 205.101 338.883 203.119C338.66 201.649 338.602 200.171 338.504 198.7C338.521 198.382 338.584 198.069 338.692 197.77L339.201 197.685ZM342.209 210.415C344.487 213.455 348.69 214.419 350.739 212.488C349.728 210.29 348.966 210.005 346.447 210.871C344.856 209.104 344.113 209.012 342.209 210.415Z" fill="#FF0D1C"/>
<path d="M342.714 160.782C343.626 161.175 344.501 161.641 345.325 162.175C345.5 162.377 345.617 162.613 345.665 162.862C345.712 163.111 345.689 163.363 345.597 163.595C345.397 163.758 345.15 163.87 344.882 163.92C344.614 163.97 344.332 163.957 344.064 163.881C342.945 163.199 341.615 162.875 340.301 162.964C338.988 163.053 337.77 163.55 336.858 164.371C336.558 164.61 335.878 164.445 335.362 164.468C335.301 164.049 335.331 163.626 335.45 163.225C336.526 161.386 339.798 160.374 342.714 160.782Z" fill="#FF0D1C"/>
<path d="M370.026 166.494C373.125 167.292 375.233 168.642 376.064 171.162C376.212 171.622 375.852 172.209 375.69 172.724C375.211 172.421 374.561 172.201 374.307 171.789C373.772 170.759 372.88 169.899 371.772 169.345C370.663 168.791 369.399 168.572 368.177 168.724C367.668 168.757 367.074 168.121 366.523 167.793C366.898 167.372 367.192 166.729 367.728 166.607C368.479 166.475 369.253 166.437 370.026 166.494Z" fill="#FF0D1C"/>
<path d="M345.318 215.685L349.015 216.098C348.957 216.295 348.855 216.478 348.716 216.637C348.577 216.795 348.404 216.926 348.206 217.021C348.007 217.118 347.788 217.176 347.56 217.194C347.332 217.213 347.1 217.19 346.878 217.128C345.905 216.929 345.147 216.533 345.318 215.685Z" fill="#FF0D1C"/>
</svg>
