<svg width="200" height="115" viewBox="0 0 200 115" fill="none" xmlns="http://www.w3.org/2000/svg">
<path d="M35.4729 43.4785C41.4073 45.2778 46.4653 50.6139 46.4653 55.8879C46.4653 68.7936 31.0894 72.7026 24.3454 65.6913C20.9061 73.5091 16.5225 80.3343 9.5089 80.3343C3.97879 80.3343 0 76.9217 0 72.5785C0 66.684 5.79971 63.2095 10.0484 64.2023C8.96943 65.8775 9.91344 68.1111 12.2738 68.1111C17.3318 68.1111 22.2549 53.9024 28.6614 45.4021C28.1895 45.4021 27.7174 45.4021 27.2452 45.464C21.041 46.0845 18.613 51.8548 21.5805 53.5921C20.4339 58.4318 12.2738 58.1215 13.0158 52.2891C13.4204 48.9387 16.7247 45.8983 20.4339 44.3472C24.2105 42.7339 27.8523 42.4238 30.9544 42.672C33.1125 40.4381 35.4729 39.011 37.968 39.0732C39.7213 39.1353 40.9355 40.3762 40.8679 41.5552C40.8005 42.9201 39.7889 43.6026 39.7889 43.6026C39.7889 43.6026 38.9123 42.796 37.8331 42.7339C36.9564 42.7339 36.2147 42.9822 35.4729 43.4785ZM39.5191 55.7638C40.4633 52.041 37.6308 47.8219 32.9776 46.1465C30.8195 49.249 28.9986 54.0886 27.043 59.1764C30.9544 61.5341 38.1703 60.7275 39.5191 55.7638Z" fill="#FF551F"/>
<path d="M65.451 63.3336H68.4856C66.1254 67.7389 61.9441 73.6953 53.6491 73.6953C50.0075 73.6953 46.7704 70.9652 46.7704 66.9321C46.7704 60.5413 54.6607 55.0192 59.9885 55.0192C61.8768 55.0192 63.4278 55.8258 63.4278 57.6253C63.4278 60.6035 57.5605 64.4504 53.784 65.0088C54.2562 66.3118 55.4027 67.3665 56.8188 67.6148C60.3931 68.2351 63.6301 66.3118 65.451 63.3336ZM59.2465 57.6872C56.3467 57.6872 53.8514 60.1691 53.5142 63.0233C57.2234 62.0925 61.0675 57.6872 59.2465 57.6872Z" fill="#FF551F"/>
<path d="M85.1763 63.6754H88.2111C88.2111 63.6754 81.884 73.7573 76.1516 73.7573C72.7123 73.7573 71.8356 71.3374 71.8356 69.352C71.8356 65.4431 75.4099 60.8516 77.77 58.3077C76.2189 58.5559 74.1958 58.6799 72.1728 58.1215C72.1728 58.1215 70.3741 59.921 68.4856 63.3336C68.1484 63.9539 65.1812 63.9539 65.451 63.3336C68.6205 58.5559 69.4076 54.0265 69.4076 54.0265H74.0611C74.0611 54.0265 75.3423 56.3842 82.2885 56.3842H82.9629C82.9629 56.3842 74.7355 66.3118 80.198 66.3118C82.2212 66.3118 85.1763 63.6754 85.1763 63.6754Z" fill="#FF551F"/>
<path d="M106.899 63.4502H109.933C109.933 63.4502 106.49 68.1111 100.488 68.5454C98.6667 71.6477 95.5646 74.1297 91.6531 74.1297C87.2019 74.1297 84.5046 71.3374 84.5046 66.9321C84.5046 62.0925 89.6973 55.3914 96.7108 55.3914C101.634 55.3914 103.185 59.797 102.173 64.3883C102.578 64.5745 103.118 64.6985 103.59 64.6985C104.669 64.6985 106.899 63.4502 106.899 63.4502ZM93.2715 67.6148C95.0924 67.6148 95.6319 66.9321 95.6319 66.9321C95.6319 66.9321 93.811 65.381 93.4738 63.2095C93.2042 61.0997 94.418 58.8661 94.418 58.8661C94.3507 58.8661 90.5739 61.0997 90.5739 64.6366C90.5739 66.3118 91.9903 67.6148 93.2715 67.6148ZM99.1388 62.8992C99.1388 62.8992 100.892 58.8661 98.5991 58.8661C97.6551 58.8661 97.2506 60.0451 97.4528 60.7897C97.8574 62.3408 99.1388 62.8992 99.1388 62.8992Z" fill="#FF551F"/>
<path d="M123.672 56.3842H127.111C127.111 56.3842 117.872 84.6155 107.824 84.6155C104.789 84.6155 103.035 82.4438 103.035 80.024C103.035 76.9217 106.07 75.3706 106.07 75.3706C106.07 75.3706 106.677 76.2392 108.026 76.2392C110.791 76.2392 114.095 72.9507 116.928 68.6695C114.095 71.3996 110.656 73.7573 107.959 73.7573C106.205 73.7573 104.519 72.7645 104.519 69.9104C104.519 63.3336 113.151 55.7638 119.491 55.7638C121.311 55.7638 122.323 56.8806 122.795 58.1837C123.334 57.0669 123.672 56.3842 123.672 56.3842ZM112.882 66.3118C118.479 66.3118 123.334 58.618 119.423 58.618C114.095 58.618 109.105 66.3118 112.882 66.3118Z" fill="#FF551F"/>
<path d="M134.25 56.3842H137.554C137.554 56.3842 129.327 66.3118 134.789 66.3118C136.745 66.3118 139.922 63.3955 139.922 63.3955L142.438 63.5463C142.438 63.5463 136.475 73.7573 130.743 73.7573C127.303 73.7573 126.359 71.3374 126.359 69.352C126.359 63.5817 134.25 56.3842 134.25 56.3842ZM135.329 54.5849H138.228C138.228 54.5849 139.442 52.9097 141.668 51.2345H137.217C137.217 51.2345 136.475 52.6615 135.329 54.5849Z" fill="#FF551F"/>
<path d="M157.81 63.3336H160.845C158.485 67.7389 154.304 73.6953 146.009 73.6953C142.367 73.6953 139.13 70.9652 139.13 66.9321C139.13 60.5413 147.02 55.0192 152.348 55.0192C154.236 55.0192 155.787 55.8258 155.787 57.6253C155.787 60.6035 149.92 64.4504 146.144 65.0088C146.616 66.3118 147.762 67.3665 149.178 67.6148C152.753 68.2351 155.99 66.3118 157.81 63.3336ZM151.606 57.6872C148.706 57.6872 146.211 60.1691 145.874 63.0233C149.583 62.0925 153.427 57.6872 151.606 57.6872Z" fill="#FF551F"/>
<path d="M65.1627 73.5745C69.7485 73.5745 71.7044 77.7938 69.8835 82.075C66.9163 89.2724 57.3398 96.6559 46.8195 97.1524C44.3916 100.131 41.7616 102.737 38.9966 104.66C41.0872 105.467 43.3126 106.149 45.4031 106.335C50.5285 106.77 52.6192 103.047 51.4727 100.193C62.3978 98.7035 64.6908 113.657 51.9449 114.96C46.1451 115.518 38.4569 110.12 33.3316 107.204C32.3876 107.452 31.376 107.576 30.3644 107.576C26.9924 107.576 25.6436 105.591 25.7785 104.102C25.9808 102.737 28.0713 101.744 29.7573 101.744C30.7016 101.744 31.7805 102.054 32.9944 102.426C35.0176 101.123 37.0408 98.8897 38.9966 96.2837C26.4529 92.3746 31.0388 77.8557 41.4917 79.9655C39.8733 82.3853 41.7616 86.046 45.2682 87.535C50.4611 80.3998 56.598 73.5745 65.1627 73.5745ZM66.3092 80.2755C66.8487 78.8485 66.3092 77.4214 64.5559 77.4214C61.3188 77.4214 57.8119 82.075 53.8331 87.7212C59.5652 86.4803 65.028 83.5021 66.3092 80.2755Z" fill="#FF551F"/>
<path d="M88.9183 95.7069H91.9531C91.9531 95.7069 85.3717 106.087 79.6395 106.087C76.2675 106.087 75.3233 103.667 75.3233 101.682C75.3233 101.123 75.3909 100.565 75.5258 100.007C72.4234 103.171 68.5796 106.087 65.5448 106.087C63.7914 106.087 62.1054 105.094 62.1054 102.24C62.1054 95.6632 70.7374 88.0936 77.0769 88.0936C79.3023 88.0936 80.3813 89.7688 80.6511 91.3819C82.0673 89.7688 83.2138 88.7139 83.2138 88.7139H86.4508C86.4508 88.7139 78.2907 98.6414 83.7532 98.6414C85.7088 98.6414 88.9183 95.7069 88.9183 95.7069ZM70.4678 98.6414C76.0653 98.6414 80.9207 90.9476 77.0093 90.9476C71.6817 90.9476 66.6913 98.6414 70.4678 98.6414Z" fill="#FF551F"/>
<path d="M97.9706 88.7139C97.9706 88.7139 95.9476 91.1959 94.5989 93.6777C97.0939 90.6994 101.208 87.6593 104.175 87.6593C106.873 87.6593 107.345 89.3964 107.345 90.7616C107.345 92.8711 104.58 98.6414 107.614 98.6414C110.042 98.6414 113.501 95.8337 113.501 95.8337H116.536C116.536 95.8337 109.907 106.087 103.838 106.087C101.478 106.087 99.5892 103.978 99.5892 100.999C99.5892 95.8494 104.647 90.8856 102.219 90.8856C101.14 90.8856 94.7335 94.9188 94.7335 105.281C94.7335 105.281 93.3174 106.087 91.1593 106.087C87.72 106.087 86.8433 103.667 86.8433 101.682C86.8433 95.9115 94.7335 88.7139 94.7335 88.7139H97.9706Z" fill="#FF551F"/>
<path d="M136.866 95.7253H139.901C139.901 95.7253 134.438 106.087 128.976 106.087C125.536 106.087 124.39 103.667 124.39 101.682C124.39 101.123 124.39 100.565 124.457 100.007C121.423 103.171 117.511 106.087 114.544 106.087C112.79 106.087 111.037 105.094 111.037 102.24C111.037 95.6632 119.669 88.0936 126.008 88.0936C127.559 88.0936 128.504 88.838 129.043 89.8308C132.213 85.4254 135.787 82.3853 135.787 82.3853H139.631C139.631 82.3853 126.885 98.6414 132.752 98.6414C135.113 98.6414 136.866 95.7253 136.866 95.7253ZM119.467 98.6414C122.03 98.6414 124.39 97.0283 125.873 95.291C126.278 94.2982 126.818 93.3674 127.357 92.4368C127.492 91.5681 127.087 90.9476 125.941 90.9476C120.681 90.9476 115.623 98.6414 119.467 98.6414Z" fill="#FF551F"/>
<path fill-rule="evenodd" clip-rule="evenodd" d="M93.8112 50.1644C94.3191 51.3594 95.198 51.6599 96.2227 51.1578C96.4412 51.2283 96.6378 51.3016 96.8204 51.3696C97.2138 51.5162 97.5419 51.6384 97.884 51.6572C98.7136 51.7235 99.2067 51.1875 99.5878 50.5817C99.6072 50.5513 99.626 50.5211 99.645 50.491C99.8574 50.1512 100.053 49.8387 100.574 49.7411C100.739 49.689 100.891 49.6064 101.02 49.4989C101.15 49.3912 101.255 49.2605 101.328 49.1149C101.93 47.9691 101.668 46.8468 101.108 45.7493C100.99 45.5463 100.936 45.3172 100.952 45.0875C101.103 44.2428 100.945 43.9199 100.089 43.5196C99.9612 43.4597 99.8371 43.3953 99.7062 43.327C99.6692 43.3079 99.6317 43.2884 99.5934 43.2687C99.6386 43.1505 99.6783 43.0367 99.7165 42.9262C99.79 42.7151 99.8588 42.5168 99.9531 42.3268C101 40.2247 102.669 38.4359 104.77 37.1648C105.846 36.4953 107.012 35.9609 108.238 35.5747L108.507 33.5334C103.527 34.9786 99.7969 37.735 97.7922 42.2841C97.6435 42.6257 97.4735 42.6885 97.0951 42.6368C96.4306 42.5499 95.7002 42.6164 95.4084 43.2274C95.1427 43.7811 94.7123 44.1358 94.2651 44.5041C94.1696 44.5828 94.0737 44.662 93.978 44.7439C92.9928 45.6114 92.5868 46.7802 92.2752 47.9591C91.9232 49.283 92.3823 49.9081 93.8112 50.1644ZM95.0515 50.867C94.3482 50.8146 94.2355 50.1535 94.159 49.5983C93.032 49.8323 92.4777 49.3712 92.6193 48.359C92.771 47.2868 93.2123 46.2667 93.9025 45.3912C94.6585 44.4161 95.7222 44.1181 96.9797 44.4502C97.0779 44.4631 97.1773 44.4658 97.2762 44.4585C97.1166 43.977 96.7293 43.8623 95.585 43.9126C95.5816 43.7954 95.6043 43.6785 95.6514 43.5697C95.6988 43.4606 95.7695 43.3615 95.8596 43.2785C95.9499 43.1954 96.0574 43.1301 96.1758 43.0864C96.2942 43.0428 96.4213 43.0217 96.5488 43.0247C97.8924 43.0321 99.2025 43.4107 100.309 44.1111C100.691 44.3352 100.69 44.721 100.445 45.1623L98.9131 44.6679L98.8006 44.8566C98.9378 44.9636 99.0875 45.056 99.2474 45.1317C99.6186 45.2413 99.9627 45.417 100.26 45.6488C100.557 45.8809 100.802 46.1641 100.98 46.483C101.158 46.8019 101.266 47.1501 101.298 47.5073C101.33 47.8645 101.285 48.224 101.165 48.5654C101.117 48.7915 100.998 48.9999 100.823 49.1653C100.649 49.3306 100.425 49.4458 100.181 49.4969C100.146 49.2394 100.204 48.9816 100.261 48.7273C100.347 48.347 100.43 47.9745 100.199 47.6221L100.011 47.6184C99.9846 47.894 99.9398 48.1678 99.8769 48.4381C99.7039 49.104 99.4809 49.7582 99.2096 50.3957C99.1035 50.6727 98.9062 50.9124 98.6452 51.0814C98.3842 51.2506 98.0725 51.3408 97.7533 51.3395C97.0971 51.3259 96.8699 50.8595 96.7693 50.4914C96.5779 50.5366 96.3899 50.5951 96.2054 50.6522C95.8063 50.7761 95.423 50.8952 95.0515 50.867Z" fill="#0D0D0D"/>
<path d="M94.159 49.5983C94.2355 50.1535 94.3482 50.8146 95.0515 50.867C95.423 50.8952 95.8063 50.7761 96.2054 50.6522C96.3899 50.5951 96.5779 50.5366 96.7693 50.4914C96.8699 50.8595 97.0971 51.3259 97.7533 51.3395C98.0725 51.3408 98.3842 51.2506 98.6452 51.0814C98.9062 50.9124 99.1035 50.6727 99.2096 50.3957C99.4809 49.7582 99.7039 49.104 99.8769 48.4381C99.9398 48.1678 99.9846 47.894 100.011 47.6184L100.199 47.6221C100.43 47.9745 100.347 48.347 100.261 48.7273C100.204 48.9816 100.146 49.2394 100.181 49.4969C100.425 49.4458 100.649 49.3306 100.823 49.1653C100.998 48.9999 101.117 48.7915 101.165 48.5654C101.285 48.224 101.33 47.8645 101.298 47.5073C101.266 47.1501 101.158 46.8019 100.98 46.483C100.802 46.1641 100.557 45.8809 100.26 45.6488C99.9627 45.417 99.6186 45.2413 99.2474 45.1317C99.0875 45.056 98.9378 44.9636 98.8006 44.8566L98.9131 44.6679L100.445 45.1623C100.69 44.721 100.691 44.3352 100.309 44.1111C99.2025 43.4107 97.8924 43.0321 96.5488 43.0247C96.4213 43.0217 96.2942 43.0428 96.1758 43.0864C96.0574 43.1301 95.9499 43.1954 95.8596 43.2785C95.7695 43.3615 95.6988 43.4606 95.6514 43.5697C95.6043 43.6785 95.5816 43.7954 95.585 43.9126C96.7293 43.8623 97.1166 43.977 97.2762 44.4585C97.1773 44.4658 97.0779 44.4631 96.9797 44.4502C95.7222 44.1181 94.6585 44.4161 93.9025 45.3912C93.2123 46.2667 92.771 47.2868 92.6193 48.359C92.4777 49.3712 93.032 49.8323 94.159 49.5983Z" fill="white"/>
<path fill-rule="evenodd" clip-rule="evenodd" d="M187.339 40.7312C187.463 40.8568 187.589 40.9843 187.713 41.1165C187.075 42.1054 186.251 42.9641 185.289 43.6432C184.426 44.234 183.476 44.6488 182.447 44.5413C181.941 44.4563 181.443 44.3365 180.957 44.183L180.31 45.9788C181.927 46.5733 183.581 46.5543 185.274 45.7375C186.743 44.9875 188.002 43.8716 188.926 42.5005C189.175 42.1537 189.353 42.0997 189.731 42.2952C190.736 42.8183 191.225 42.6958 192.051 41.8271C192.064 41.8139 192.076 41.8003 192.089 41.7863C192.168 41.701 192.256 41.606 192.352 41.5885C193.616 41.3501 194.305 40.4166 194.899 39.4216C195.388 38.544 196.137 37.8353 197.039 37.3959C197.421 37.2338 197.787 37.0337 198.131 36.7994C198.707 36.4177 199.241 35.9748 199.724 35.4785C199.844 35.3594 199.93 35.2104 199.971 35.0478C200.013 34.8852 200.009 34.7153 199.96 34.5574C199.911 34.3996 199.818 34.2598 199.693 34.1539C199.567 34.0478 199.413 33.9795 199.249 33.9571C198.803 33.8591 198.332 33.9078 197.907 34.0959C197.123 34.5055 196.363 34.9596 195.629 35.4558C195.418 35.5883 195.216 35.7361 195.013 35.8838C194.912 35.9577 194.811 36.0317 194.709 36.1036C195.009 35.6525 195.341 35.2413 195.67 34.8339C195.898 34.5515 196.125 34.2712 196.338 33.9809C196.97 33.117 197.566 32.2192 198.118 31.2993C198.256 31.0895 198.316 30.8398 198.289 30.5946C198.261 30.3494 198.148 30.1242 197.969 29.9589C197.768 29.7795 197.512 29.6715 197.24 29.6513C196.969 29.6311 196.695 29.6999 196.461 29.8471C196.079 30.0886 195.74 30.3937 195.46 30.7486C194.992 31.3778 194.553 32.0299 194.115 32.6808C193.952 32.9221 193.789 33.1632 193.626 33.4032C193.356 33.7938 193.088 34.1845 192.822 34.5758C193.114 33.7012 193.454 32.8423 193.839 32.0026C194.156 31.3231 194.413 30.6191 194.609 29.8985C194.628 29.7141 194.605 29.5291 194.543 29.3569C194.48 29.1848 194.379 29.0301 194.247 28.9044C194.093 28.8205 193.92 28.7733 193.742 28.7661C193.565 28.7591 193.387 28.7922 193.221 28.8632C192.793 29.0555 192.423 29.3619 192.153 29.7479C191.543 30.6935 191.007 31.6912 190.487 32.6883C190.284 33.077 190.119 33.4846 189.937 33.9337C189.846 34.1569 189.751 34.3905 189.646 34.6373C189.581 34.3156 189.5 33.9981 189.401 33.686C189.227 33.183 189.013 32.6951 188.763 32.2272C188.665 32.0235 188.497 31.8632 188.29 31.774C188.082 31.6851 187.848 31.6731 187.628 31.7405C187.388 31.8028 187.174 31.9414 187.016 32.1349C186.86 32.3286 186.769 32.5665 186.758 32.8121C186.727 33.1467 186.76 33.4823 186.856 33.8006C186.965 34.1142 187.006 34.4495 186.975 34.784C186.945 35.1188 186.844 35.4452 186.679 35.7416C186.503 36.0677 186.405 36.4284 186.393 36.7944C186.38 37.1605 186.454 37.522 186.609 37.8496C186.634 37.9364 186.64 38.0283 186.628 38.1188C186.616 38.2095 186.585 38.2975 186.538 38.3769C186.204 38.9673 186.183 39.3957 186.603 39.9264C186.819 40.2063 187.075 40.4647 187.339 40.7312ZM190.649 40.63L190.567 40.8242L191.741 41.5608C191.391 42.1737 190.909 42.4098 190.286 42.1578C188.948 41.6123 187.772 40.7461 186.858 39.6339C186.786 39.5572 186.731 39.4658 186.695 39.3658C186.66 39.2657 186.646 39.1591 186.654 39.0521C186.661 38.945 186.691 38.8403 186.74 38.7439C186.789 38.6475 186.858 38.5617 186.941 38.4916C187.923 39.1864 187.923 39.1864 188.254 39.0775C188.161 38.9934 188.072 38.9176 187.987 38.845C187.893 38.7645 187.803 38.6878 187.716 38.6073C186.754 37.6996 186.487 36.892 187.11 35.7357C187.264 35.4427 187.359 35.1233 187.388 34.7965C187.417 34.4696 187.38 34.1424 187.28 33.8339C187.166 33.5436 187.129 33.2265 187.173 32.9133C187.215 32.7527 187.29 32.6016 187.391 32.4687C187.493 32.3361 187.62 32.2242 187.764 32.1399C187.91 32.1306 188.056 32.1585 188.187 32.2211C188.317 32.2839 188.429 32.3794 188.511 32.4985C188.782 33.0993 189.017 33.7162 189.216 34.3463C189.273 34.6139 189.381 34.8666 189.536 35.0897C190.592 36.0963 190.685 37.2496 190.037 38.5431L190.142 38.6717C190.183 38.632 190.232 38.5951 190.282 38.5579C190.378 38.4862 190.475 38.4136 190.517 38.3193C190.747 37.8176 190.841 37.2678 190.789 36.7259C190.738 36.1843 190.544 35.6702 190.225 35.236C190.125 35.0861 190.012 34.8498 190.065 34.7107C190.716 33.0235 191.385 31.3422 192.495 29.8818C192.717 29.6007 192.993 29.366 193.305 29.192C193.878 28.8666 194.364 29.1882 194.325 29.8332C194.317 30.0571 194.268 30.2789 194.179 30.4867C193.663 31.6212 193.136 32.7493 192.61 33.8747L192.61 33.875L192.609 33.8754C192.54 34.0237 192.471 34.1721 192.401 34.3204L191.614 34.2501L191.59 34.3871C192.27 34.7273 192.921 35.1208 193.536 35.5642C193.914 35.8902 194.229 36.2925 194.588 36.7513C194.741 36.9462 194.901 37.1512 195.078 37.3649C194.749 36.4619 195.25 36.1567 195.73 35.8636C195.839 35.7974 195.946 35.7318 196.043 35.6599C196.576 35.2671 197.134 34.9112 197.714 34.5953C198.039 34.4057 198.401 34.2939 198.772 34.2689C198.922 34.2682 199.069 34.302 199.201 34.3674C199.334 34.4327 199.449 34.5279 199.538 34.6459C199.571 34.7883 199.567 34.9376 199.527 35.08C199.487 35.2227 199.412 35.354 199.309 35.4619C198.69 36.0133 198.009 36.4892 197.279 36.8788C196.081 37.4622 195.108 38.2113 194.502 39.4266C194.32 39.7561 194.089 40.0575 193.818 40.3202C192.811 41.3615 192.304 41.4247 191.077 40.7269C190.94 40.6747 190.796 40.6423 190.649 40.63ZM195.074 34.9698C194.864 35.2256 194.654 35.4821 194.444 35.7409L193.102 34.7686C193.349 34.4243 193.596 34.0807 193.843 33.7377C193.843 33.7368 193.844 33.7359 193.844 33.7352C194.61 32.6699 195.37 31.6116 196.142 30.5588C196.278 30.4012 196.445 30.2721 196.631 30.1798C197.001 29.9548 197.437 29.887 197.685 30.2378C197.769 30.378 197.821 30.5361 197.837 30.7008C197.853 30.8657 197.832 31.0328 197.777 31.1907C197.432 31.8575 197.028 32.4932 196.571 33.0902C196.091 33.7287 195.584 34.3474 195.074 34.9698Z" fill="#0D0D0D"/>
<path d="M196.571 33.0902C197.028 32.4932 197.432 31.8575 197.777 31.1907C197.832 31.0328 197.853 30.8657 197.837 30.7008C197.821 30.5361 197.769 30.378 197.685 30.2378C197.437 29.887 197.001 29.9548 196.631 30.1798C196.445 30.2721 196.278 30.4012 196.142 30.5588C195.37 31.6116 194.61 32.6699 193.844 33.7352L193.843 33.7377C193.596 34.0807 193.349 34.4243 193.102 34.7686L194.444 35.7409C194.654 35.4821 194.864 35.2256 195.074 34.9698C195.584 34.3474 196.091 33.7287 196.571 33.0902Z" fill="white"/>
<path d="M190.567 40.8242L190.649 40.63C190.796 40.6423 190.94 40.6747 191.077 40.7269C192.304 41.4247 192.811 41.3615 193.818 40.3202C194.089 40.0575 194.32 39.7561 194.502 39.4266C195.108 38.2113 196.081 37.4622 197.279 36.8788C198.009 36.4892 198.69 36.0133 199.309 35.4619C199.412 35.354 199.487 35.2227 199.527 35.08C199.567 34.9376 199.571 34.7883 199.538 34.6459C199.449 34.5279 199.334 34.4327 199.201 34.3674C199.069 34.302 198.922 34.2682 198.772 34.2689C198.401 34.2939 198.039 34.4057 197.714 34.5953C197.134 34.9112 196.576 35.2671 196.043 35.6599C195.946 35.7318 195.839 35.7974 195.73 35.8636C195.25 36.1567 194.749 36.4619 195.078 37.3649C194.901 37.1512 194.741 36.9462 194.588 36.7513C194.229 36.2925 193.914 35.8902 193.536 35.5642C192.921 35.1208 192.27 34.7273 191.59 34.3871L191.614 34.2501L192.401 34.3204L192.609 33.8754L192.61 33.875L192.61 33.8747C193.136 32.7493 193.663 31.6212 194.179 30.4867C194.268 30.2789 194.317 30.0571 194.325 29.8332C194.364 29.1882 193.878 28.8666 193.305 29.192C192.993 29.366 192.717 29.6007 192.495 29.8818C191.385 31.3422 190.716 33.0235 190.065 34.7107C190.012 34.8498 190.125 35.0861 190.225 35.236C190.544 35.6702 190.738 36.1843 190.789 36.7259C190.841 37.2678 190.747 37.8176 190.517 38.3193C190.475 38.4136 190.378 38.4862 190.282 38.5579C190.232 38.5951 190.183 38.632 190.142 38.6717L190.037 38.5431C190.685 37.2496 190.592 36.0963 189.536 35.0897C189.381 34.8666 189.273 34.6139 189.216 34.3463C189.017 33.7162 188.782 33.0993 188.511 32.4985C188.429 32.3794 188.317 32.2839 188.187 32.2211C188.056 32.1585 187.91 32.1306 187.764 32.1399C187.62 32.2242 187.493 32.3361 187.391 32.4687C187.29 32.6016 187.215 32.7527 187.173 32.9133C187.129 33.2265 187.166 33.5436 187.28 33.8339C187.38 34.1424 187.417 34.4696 187.388 34.7965C187.359 35.1233 187.264 35.4427 187.11 35.7357C186.487 36.892 186.754 37.6996 187.716 38.6073C187.803 38.6878 187.893 38.7645 187.987 38.845C188.072 38.9176 188.161 38.9934 188.254 39.0775C187.923 39.1864 187.923 39.1864 186.941 38.4916C186.858 38.5617 186.789 38.6475 186.74 38.7439C186.691 38.8403 186.661 38.945 186.654 39.0521C186.646 39.1591 186.66 39.2657 186.695 39.3658C186.731 39.4658 186.786 39.5572 186.858 39.6339C187.772 40.7461 188.948 41.6123 190.286 42.1578C190.909 42.4098 191.391 42.1737 191.741 41.5608L190.567 40.8242Z" fill="white"/>
<path d="M192.728 39.6536C193.002 38.6171 194.508 37.6495 195.015 38.011L192.728 39.6536Z" fill="#0D0D0D"/>
<path d="M114.477 48.7706C113.659 50.3592 113.175 51.8761 112.182 53.0267C111.449 53.872 109.925 54.8457 108.988 54.6731C108.303 54.4967 107.666 54.1916 107.117 53.7768C106.569 53.3619 106.12 52.8468 105.799 52.2639C103.573 47.5697 103.383 42.8686 106.35 38.2252C107.31 36.7305 107.783 34.9237 108.2 33.2025C108.73 31.0526 109.885 29.0745 111.54 27.4785C113.033 25.9453 114.538 24.1435 115.153 22.2195C116.242 18.7908 118.467 17.1861 122.124 16.3562C123.9 15.9507 125.685 14.6182 126.895 13.2737C130.434 9.33333 134.776 8.30271 139.949 9.55333C141.344 9.83866 142.696 10.2841 143.971 10.879C147.466 12.6515 151.413 13.5381 155.405 13.4485C155.706 13.4118 156.011 13.4311 156.304 13.5046C161.564 15.5887 167.022 17.3585 171.991 19.9124C175.336 21.6379 176.578 25.165 177.538 28.5787C177.901 30.0408 178.593 31.417 179.569 32.6191C182.313 35.7019 183.694 38.8883 182.189 42.892C181.224 45.479 180.706 48.2079 179.817 50.8214C178.84 53.7935 178.688 56.943 179.374 59.9832C179.675 61.4586 179.13 63.0818 178.966 64.6386C177.285 64.1152 175.38 63.8931 173.983 62.9866C172.653 62.131 171.931 60.5432 170.92 59.3055C170.557 58.8838 170.047 58.1696 169.655 58.1821C166.323 58.2946 165.762 58.432 163.087 57.0891C160.929 56.0008 156.838 53.0594 154.628 52.0737C151.509 50.6715 148.435 49.0718 145.183 47.9566C141.632 46.7318 137.898 45.9666 134.241 44.9961C130.419 43.9809 127.087 44.8051 123.903 46.9482C121.163 48.7781 118.145 50.0269 114.477 48.7706ZM113.887 46.9373C116.776 48.0033 119.095 46.6035 121.532 45.3426C122.874 44.6463 125.106 43.1186 126.565 43.141C129.655 42.7534 132.353 43.1827 135.976 44.0448C140.115 45.0378 145.526 47.3467 149.602 48.6944C155.116 50.5232 160.12 53.1528 165.085 56.0628C166.204 56.7194 167.973 56.8019 169.347 56.6071C170.722 56.4125 170.875 56.7759 171.415 57.7223C172.443 59.5164 173.687 61.1986 175.125 62.7373C175.686 63.3368 176.942 63.3919 177.885 63.6974C178.12 62.8865 178.283 62.0596 178.37 61.2243C178.429 58.8376 178.006 53.9995 178.37 51.6647C179.066 47.1771 179.465 45.0882 180.646 40.6872C181.34 38.1524 180.997 36.444 179.542 34.4479C178.19 32.5146 177.142 30.4152 176.43 28.212C174.812 23.51 173.027 20.3018 167.301 18.9899C164.94 18.4522 162.985 17.112 160.699 16.278C159.659 15.896 157.358 15.117 156.304 15.1156C151.348 15.1151 147.247 13.5756 143.023 11.3145C142.084 10.8827 141.094 10.5508 140.074 10.3256C134.852 8.86723 130.984 10.0485 127.641 14.0798C126.247 15.7847 125.449 17.8296 122.912 18.2152C119.747 18.6951 117.262 19.8468 116.757 22.9566C116.561 24.4352 115.976 25.8475 115.052 27.0709C114.127 28.2943 112.891 29.2916 111.451 29.9763C110.306 30.544 109.425 31.9369 108.904 33.1303C107.862 35.5377 107.476 38.2115 106.238 40.5239C104.151 44.4118 104.761 47.9795 106.839 51.5572C108.162 53.8321 110.132 53.9562 111.601 51.7604C112.523 50.356 113.041 48.7489 113.887 46.9373Z" fill="#0D0D0D"/>
<path d="M113.887 46.9373C116.776 48.0033 119.095 46.6035 121.532 45.3426C122.874 44.6463 125.106 43.1186 126.565 43.141C129.655 42.7534 132.353 43.1827 135.976 44.0448C140.115 45.0378 145.526 47.3467 149.602 48.6944C155.116 50.5232 160.12 53.1528 165.085 56.0628C166.204 56.7194 167.973 56.8019 169.347 56.6071C170.722 56.4125 170.875 56.7759 171.415 57.7223C172.443 59.5164 173.687 61.1986 175.125 62.7373C175.686 63.3368 176.942 63.3919 177.885 63.6974C178.12 62.8865 178.283 62.0596 178.37 61.2243C178.429 58.8376 178.006 53.9995 178.37 51.6647C179.066 47.1771 179.465 45.0882 180.646 40.6872C181.34 38.1524 180.997 36.444 179.542 34.4479C178.19 32.5146 177.142 30.4152 176.43 28.212C174.812 23.51 173.027 20.3018 167.301 18.9899C164.94 18.4522 162.985 17.112 160.699 16.278C159.659 15.896 157.358 15.117 156.304 15.1156C151.348 15.1151 147.247 13.5756 143.023 11.3145C142.084 10.8827 141.094 10.5508 140.074 10.3256C134.852 8.86723 130.984 10.0485 127.641 14.0798C126.247 15.7847 125.449 17.8296 122.912 18.2152C119.747 18.6951 117.262 19.8468 116.757 22.9566C116.561 24.4352 115.976 25.8475 115.052 27.0709C114.127 28.2943 112.891 29.2916 111.451 29.9763C110.306 30.544 109.425 31.9369 108.904 33.1303C107.862 35.5377 107.476 38.2115 106.238 40.5239C104.151 44.4118 104.761 47.9795 106.839 51.5572C108.162 53.8321 110.132 53.9562 111.601 51.7604C112.523 50.356 113.041 48.7489 113.887 46.9373Z" fill="#FEDA5E"/>
<path d="M113.371 45.7883C111.678 43.7294 111.15 41.4213 112.47 39.4334C113.729 37.5313 114.652 36.0648 111.802 34.3746L112.537 34.1582L115.519 35.6568L113.403 32.3016L113.686 31.9847L116.264 34.1081C118.567 32.087 119.93 29.4338 120.985 26.6953C121.259 25.9811 120.552 24.9026 120.149 24.0376C119.855 23.3816 119.361 22.7795 119.328 21.9303C120.205 22.8675 121.084 23.8006 122.035 24.8509L123.428 23.1669L121.083 20.5393C122.866 21.3381 124.117 23.3964 126.386 22.0036C128.037 20.9911 129.41 19.584 131.034 18.2562L129.223 16.4222L131.911 17.0249L130.816 14.5023C132.616 17.3002 135.303 17.3855 138.301 16.9434C140.323 16.6504 141.8 16.1185 141.439 13.7976L142.522 16.0591L143.048 15.9337L143.108 13.5057C143.613 16.4132 145.948 17.6207 148.481 18.5057C150.786 19.3029 153.225 19.7763 155.568 20.4833C158.793 21.4531 161.983 22.5089 165.43 23.6073C165.508 23.518 165.941 22.989 166.359 22.464C164.683 25.9466 168.498 27.0612 169.657 29.378L172.634 27.4209C169.858 30.3796 169.858 30.3796 171.459 33.7448L174.821 32.9875C170.394 34.0244 172.557 37.5713 171.937 40.0412C170.907 44.1582 174.556 43.8745 176.798 45.3739L172.66 44.9314C171.898 47.8457 174.805 47.8278 176.651 49.3191L173.201 48.5651L174.338 56.6579C173.393 52.9838 172.267 49.3431 171.548 45.6325C170.701 41.2569 170.604 36.7811 169.567 32.4635C168.338 27.5089 164.341 24.4506 159.154 22.8645C154.048 21.305 149.084 20.1836 144.405 17.5694C143.797 17.3 142.966 17.2133 142.298 17.2939C139.771 17.4324 137.485 17.679 134.993 18.0859C133.771 18.317 132.324 19.0065 131.622 19.894C129.873 22.1088 127.461 23.1478 124.843 24.2723C123.863 24.7434 123.083 25.5021 122.627 26.4277C121.08 29.7559 118.838 32.5851 116.421 35.4272C114.003 38.2696 110.979 41.4096 113.371 45.7883Z" fill="#0D0D0D"/>
<path d="M131.645 22.3079L127.793 30.5044C128.015 27.161 129.216 24.5003 131.645 22.3079Z" fill="#0D0D0D"/>
<path d="M157.827 43.1725C160.401 40.0274 163.139 36.96 163.53 32.8049C163.709 37.2204 161.26 40.4343 157.827 43.1725Z" fill="#0D0D0D"/>
<path d="M161.386 29.892C161.255 33.5436 159.776 36.7035 157.246 39.5019C158.623 36.3111 159.995 33.1283 161.386 29.892Z" fill="#0D0D0D"/>
<path d="M125.526 31.434C125.204 28.4268 126.476 26.0076 128.781 23.9038L125.526 31.434Z" fill="#0D0D0D"/>
<path d="M133.824 34.9934C134.029 34.8752 134.211 34.6933 134.442 34.6468C135.221 34.5207 135.293 34.0909 135.315 33.5361C135.368 31.0004 136.107 28.5327 137.478 26.3113C137.816 25.7706 138.235 25.2685 138.725 24.8162C140.241 23.4345 142.018 23.7448 142.673 25.6071C143.078 26.8806 143.272 28.1852 143.249 29.4848C143.211 31.5134 142.749 33.5048 141.881 35.3721L143.46 36.8076L143.258 36.9559C142.345 36.3828 141.507 35.6747 140.506 35.2748C139.469 34.8679 138.35 34.6409 137.222 34.6082C136.118 34.5878 135.022 34.9419 133.931 35.1102L133.824 34.9934ZM141.488 24.7332C141.376 24.6275 141.24 24.5411 141.088 24.4801C140.935 24.4191 140.771 24.3848 140.604 24.3794C140.438 24.3739 140.274 24.3975 140.122 24.4486C139.971 24.4998 139.837 24.5771 139.727 24.6758C139.165 25.0655 138.676 25.5207 138.274 26.028C137.233 27.4193 136.543 28.9768 136.241 30.6137C135.982 31.7872 135.867 32.9875 135.672 34.2623L136.956 34.1301L137.94 29.6874C138.038 29.2437 138.279 29.0056 138.919 29.0732C139.269 29.0922 139.617 29.0451 139.934 28.9355C140.516 28.7722 140.597 28.4447 140.121 28.0911C139.72 27.8262 139.3 27.5819 138.863 27.3603C139.489 26.3336 139.962 25.2079 141.488 24.7332Z" fill="#0D0D0D"/>
<path d="M141.488 24.7332C141.376 24.6275 141.24 24.5411 141.088 24.4801C140.935 24.4191 140.771 24.3848 140.604 24.3794C140.438 24.3739 140.274 24.3975 140.122 24.4486C139.971 24.4998 139.837 24.5771 139.727 24.6758C139.165 25.0655 138.676 25.5207 138.274 26.028C137.233 27.4193 136.543 28.9768 136.241 30.6137C135.982 31.7872 135.867 32.9875 135.672 34.2623L136.956 34.1301L137.94 29.6874C138.038 29.2437 138.279 29.0056 138.919 29.0732C139.269 29.0922 139.617 29.0451 139.934 28.9355C140.516 28.7722 140.597 28.4447 140.121 28.0911C139.72 27.8262 139.3 27.5819 138.863 27.3603C139.489 26.3336 139.962 25.2079 141.488 24.7332Z" fill="white"/>
<path d="M145.985 37.239C146.204 37.1235 146.399 36.9439 146.643 36.8965C147.324 36.7817 147.465 36.4354 147.476 35.9085C147.5 33.4572 148.173 31.0653 149.449 28.8979C149.893 28.1564 150.469 27.4774 151.16 26.8822C152.44 25.799 153.921 26.1024 154.679 27.5406C155.423 28.9203 155.51 30.3674 155.433 31.8133C155.319 33.8167 154.849 35.7817 154.041 37.6475L155.59 39.0734L155.31 39.3415C154.113 38.2345 152.781 37.3372 151.036 36.9845C149.29 36.6318 147.669 36.9582 146.075 37.498L145.985 37.239ZM153.647 27.0085C153.563 26.9146 153.457 26.835 153.335 26.7745C153.214 26.7142 153.08 26.674 152.942 26.657C152.804 26.6398 152.664 26.6459 152.531 26.6749C152.399 26.7039 152.276 26.7552 152.171 26.8255C151.575 27.1762 151.051 27.6003 150.615 28.0838C149.449 29.5438 148.688 31.2059 148.381 32.9598C148.125 34.1151 148.019 35.295 147.834 36.5456L149.114 36.4127C149.46 34.8493 149.78 33.4041 150.101 31.9555C150.198 31.5191 150.431 31.2721 151.08 31.3413C151.431 31.3596 151.779 31.3113 152.096 31.2C152.682 31.0376 152.759 30.7094 152.282 30.3594C151.887 30.0975 151.472 29.8568 151.04 29.6388C151.633 28.5948 152.139 27.4901 153.647 27.0085Z" fill="#0D0D0D"/>
<path d="M153.647 27.0085C153.563 26.9146 153.457 26.835 153.335 26.7745C153.214 26.7142 153.08 26.674 152.942 26.657C152.804 26.6398 152.664 26.6459 152.531 26.6749C152.399 26.7039 152.276 26.7552 152.171 26.8255C151.575 27.1762 151.051 27.6003 150.615 28.0838C149.449 29.5438 148.688 31.2059 148.381 32.9598C148.125 34.1151 148.019 35.295 147.834 36.5456L149.114 36.4127L150.101 31.9555C150.198 31.5191 150.431 31.2721 151.08 31.3413C151.431 31.3596 151.779 31.3113 152.096 31.2C152.682 31.0376 152.759 30.7094 152.282 30.3594C151.887 30.0975 151.472 29.8568 151.04 29.6388C151.633 28.5948 152.139 27.4901 153.647 27.0085Z" fill="white"/>
<path d="M139.763 36.7042C140.299 38.6894 141.589 40.1489 144.134 40.3236C145.245 40.4173 146.351 40.2569 147.328 39.8602C148.306 39.4638 149.117 38.8466 149.671 38.0775C149.688 38.1886 149.758 38.3247 149.711 38.4127C149.123 39.4985 148.554 40.5992 147.906 41.6627C147.183 42.8609 146.071 43.7443 144.355 43.9226C143.461 44.0008 142.548 43.811 141.781 43.3878C141.015 42.9646 140.446 42.3363 140.178 41.6173C139.889 40.7795 139.699 39.9242 139.612 39.0639C139.506 38.4254 139.479 37.7833 139.432 37.1451C139.44 37.0067 139.47 36.8709 139.521 36.7409L139.763 36.7042ZM141.192 42.2317C142.274 43.5518 144.271 43.9702 145.244 43.1315C144.764 42.1773 144.402 42.0537 143.205 42.4297C142.45 41.6624 142.097 41.6223 141.192 42.2317Z" fill="#0D0D0D"/>
<path d="M141.192 42.2317C142.274 43.5518 144.271 43.9702 145.244 43.1315C144.764 42.1773 144.402 42.0537 143.205 42.4297C142.45 41.6624 142.097 41.6223 141.192 42.2317Z" fill="#DC3E25"/>
<path d="M141.432 20.6808C141.865 20.8514 142.28 21.0537 142.672 21.2855C142.756 21.3733 142.811 21.476 142.834 21.5837C142.856 21.6917 142.845 21.8012 142.802 21.9019C142.706 21.9727 142.589 22.0215 142.462 22.0432C142.334 22.065 142.2 22.0593 142.073 22.0265C141.541 21.73 140.91 21.5894 140.286 21.6282C139.661 21.6667 139.083 21.8827 138.65 22.239C138.507 22.3426 138.184 22.271 137.939 22.2812C137.91 22.099 137.924 21.9156 137.981 21.7414C138.492 20.9428 140.046 20.5034 141.432 20.6808Z" fill="#0D0D0D"/>
<path d="M154.407 23.161C155.878 23.5071 156.88 24.0931 157.275 25.1877C157.345 25.3873 157.174 25.642 157.097 25.8661C156.87 25.7341 156.561 25.6391 156.44 25.4601C156.186 25.0124 155.763 24.6393 155.236 24.3987C154.709 24.158 154.109 24.0632 153.528 24.129C153.286 24.1435 153.004 23.867 152.742 23.725C152.92 23.5422 153.06 23.2628 153.315 23.2099C153.672 23.1526 154.039 23.136 154.407 23.161Z" fill="#0D0D0D"/>
<path d="M142.669 44.52L144.426 44.6996C144.398 44.7851 144.35 44.8648 144.284 44.9335C144.218 45.0022 144.135 45.0591 144.041 45.1006C143.947 45.1421 143.842 45.1675 143.734 45.1755C143.626 45.1834 143.516 45.1737 143.41 45.1467C142.948 45.0603 142.588 44.8883 142.669 44.52Z" fill="#0D0D0D"/>
<path d="M152.594 9.42813C153.289 8.64224 153.926 7.81393 154.5 6.94888C155.284 5.7874 155.986 4.581 156.602 3.33695C156.808 2.92484 156.999 2.53518 156.869 2.03598C156.738 1.53677 157.146 0.965439 157.689 0.770384C157.778 0.747249 157.859 0.70257 157.923 0.641104C157.987 0.579866 158.032 0.503883 158.053 0.421324C158.081 0.341715 158.126 0.268001 158.186 0.205175C158.246 0.142349 158.319 0.0915457 158.401 0.0563904C158.484 0.0210082 158.573 0.00195598 158.664 0.00014151C158.755 -0.00167296 158.845 0.0139775 158.929 0.0461844C159.013 0.0781644 159.089 0.12602 159.152 0.186351C159.214 0.246909 159.263 0.318806 159.294 0.397282C159.324 0.475985 159.337 0.559679 159.331 0.642918C159.325 0.726384 159.3 0.80758 159.258 0.881746C159.218 0.950016 159.198 1.02622 159.198 1.10356C159.199 1.18068 159.22 1.25666 159.261 1.32448C159.401 1.60096 159.424 1.91532 159.326 2.20654C159.228 2.49799 159.016 2.74566 158.731 2.90125C158.581 2.982 158.464 3.10629 158.399 3.25485C157.447 5.66129 156.699 8.13169 156.162 10.6443C156.15 10.7096 156.144 10.7776 156.118 10.9546C156.724 10.3748 157.282 9.75361 157.786 9.09609C158.55 8.13306 159.244 7.12466 159.863 6.07703C160.068 5.79828 160.151 5.45898 160.095 5.1267C160.067 4.97247 160.081 4.81439 160.135 4.66605C160.188 4.51772 160.281 4.38368 160.403 4.27572C160.768 3.91373 161.335 3.82664 161.71 3.44786C161.864 3.28842 162.195 3.3737 162.402 3.56694C162.503 3.64269 162.573 3.74816 162.599 3.86587C162.626 3.98336 162.608 4.10561 162.548 4.21243C162.445 4.40704 162.417 4.62772 162.468 4.83888C162.508 5.07363 162.469 5.31404 162.355 5.52724C162.241 5.74022 162.058 5.91577 161.831 6.02918C161.669 6.09064 161.533 6.19769 161.441 6.33491C160.437 8.33786 159.383 10.3247 158.698 12.4501C158.643 12.5681 158.631 12.6996 158.665 12.8244C158.971 12.5957 159.239 12.3272 159.46 12.0271C160.428 10.95 161.368 9.85227 162.264 8.7248C162.328 8.65268 162.372 8.56807 162.395 8.47757C162.417 8.38708 162.416 8.29296 162.393 8.20269C162.357 8.05118 162.354 7.89445 162.384 7.74204C162.415 7.5894 162.479 7.44401 162.571 7.3145C162.664 7.18477 162.784 7.0734 162.924 6.98699C163.064 6.90057 163.221 6.8407 163.387 6.81098C163.542 6.78672 163.684 6.713 163.786 6.60255C163.834 6.53722 163.896 6.48189 163.969 6.43993C164.042 6.3982 164.123 6.37075 164.208 6.35964C164.293 6.34852 164.379 6.35397 164.462 6.37551C164.544 6.39684 164.621 6.43426 164.687 6.48461C164.762 6.52248 164.827 6.57419 164.878 6.63679C164.929 6.69939 164.965 6.7713 164.984 6.84773C165.003 6.92417 165.004 7.00332 164.987 7.08021C164.97 7.1571 164.936 7.22968 164.886 7.29341C164.792 7.4431 164.756 7.61706 164.781 7.7883C164.816 8.02418 164.768 8.26437 164.644 8.47372C164.52 8.68284 164.326 8.84999 164.091 8.9507C163.854 9.0607 163.655 9.23081 163.519 9.44106C161.518 12.2274 159.708 15.126 158.1 18.1204C158.032 18.271 157.929 18.4057 157.847 18.5431C157.737 18.6903 157.666 18.8593 157.64 19.0362C157.613 19.2131 157.632 19.3934 157.694 19.5626C157.922 20.1823 157.813 20.8861 156.741 21.0451C155.611 21.182 154.462 21.1033 153.366 20.8144C150.643 20.1977 148.059 19.1489 145.728 17.7153C145.145 17.378 144.623 16.96 144.178 16.4762C143.578 15.7867 143.859 14.9203 144.799 14.6849C144.918 14.6654 145.028 14.613 145.115 14.5343C145.201 14.4558 145.258 14.3549 145.28 14.2453C146.431 10.789 147.695 7.35533 148.452 3.79511C148.488 3.67785 148.494 3.55424 148.468 3.43448C148.443 3.31473 148.388 3.20223 148.306 3.10561C148.121 2.8695 148.045 2.57578 148.094 2.28819C148.142 2.0006 148.312 1.74203 148.566 1.56875C148.743 1.44741 148.879 1.28388 148.961 1.09608C148.979 1.02781 149.011 0.963397 149.057 0.907149C149.103 0.850673 149.16 0.803497 149.226 0.768342C149.293 0.73296 149.366 0.710507 149.442 0.702115C149.518 0.693723 149.595 0.69962 149.668 0.719579C149.828 0.747023 149.97 0.830943 150.065 0.95342C150.159 1.07567 150.198 1.22695 150.173 1.37528C150.154 1.51727 150.189 1.66084 150.272 1.78172C150.433 2.00536 150.502 2.27413 150.466 2.53995C150.431 2.80577 150.294 3.0514 150.079 3.23285C149.958 3.32697 149.87 3.45308 149.828 3.59393C149.311 5.66129 148.981 7.76426 148.841 9.88175C148.836 9.95524 148.843 10.0278 148.843 10.0956C149.022 10.1485 149.037 10.011 149.102 9.93483C150.376 8.5048 151.012 6.78672 151.663 5.07726C151.821 4.6597 151.968 4.24056 152.121 3.82119C152.274 3.40159 152.419 3.06751 152.14 2.62319C151.861 2.17887 152.17 1.59551 152.65 1.32176C152.842 1.224 152.992 1.06864 153.075 0.881521C153.097 0.810076 153.136 0.743848 153.189 0.686919C153.241 0.62999 153.306 0.583719 153.379 0.551285C153.452 0.518852 153.531 0.500707 153.612 0.497985C153.693 0.49549 153.774 0.50842 153.849 0.536317C153.932 0.553555 154.01 0.586669 154.078 0.633619C154.146 0.680795 154.203 0.740444 154.244 0.808941C154.285 0.87721 154.31 0.952965 154.317 1.03099C154.323 1.10878 154.313 1.18726 154.284 1.26097C154.264 1.32221 154.257 1.38685 154.264 1.45058C154.271 1.51432 154.292 1.57623 154.325 1.63248C154.618 2.23511 154.498 2.7375 153.94 3.16571C153.811 3.25099 153.72 3.37528 153.682 3.51659C153.233 5.35283 152.753 7.1825 152.542 9.05503C152.523 9.11718 152.518 9.18227 152.527 9.24646C152.536 9.31042 152.558 9.37234 152.594 9.42813ZM150.779 18.002C151.261 18.1861 151.713 18.3905 152.195 18.5434C153.64 18.9895 155.103 19.3515 156.653 19.266C156.802 19.2662 156.948 19.2247 157.071 19.1467C157.193 19.0686 157.287 18.958 157.339 18.8296C159.011 15.65 160.901 12.5717 162.998 9.61321C163.344 9.1351 163.33 9.15324 162.828 8.83911C162.609 8.70053 162.55 8.7561 162.436 8.92031C162.213 9.24306 161.978 9.55833 161.726 9.86474C160.333 11.6466 158.916 13.4061 157.122 14.8738C156.365 15.4932 155.75 15.3048 155.494 14.3889C155.327 13.6826 155.303 12.9541 155.424 12.2399C155.803 9.22106 156.785 6.34966 157.91 3.51205C157.967 3.38594 158.224 3.14371 157.907 3.09517C157.644 3.05185 157.336 2.58871 157.025 3.17116C156.006 5.13714 154.834 7.03304 153.519 8.8441C152.651 10.0448 151.728 11.2115 150.542 12.1734C150.176 12.4701 149.774 12.74 149.247 12.5824C148.719 12.425 148.62 11.9947 148.527 11.5694C148.411 10.9455 148.385 10.3102 148.449 9.67989C148.622 7.74476 148.954 5.82436 149.445 3.93573C149.474 3.8221 149.664 3.57556 149.356 3.56943C149.149 3.56558 148.82 3.32539 148.718 3.81371C147.972 7.37529 146.779 10.8257 145.559 14.2662C145.386 14.7559 145.455 15.0448 145.85 15.3721C147.304 16.5669 149.015 17.3304 150.779 18.002ZM150.288 19.4302C151.287 19.8294 152.317 20.1573 153.37 20.4109C154.472 20.679 155.584 20.899 156.732 20.7092C157.341 20.6121 157.532 20.3213 157.439 19.7715C157.402 19.5706 157.349 19.4644 157.07 19.5189C156.313 19.6459 155.537 19.645 154.78 19.5161C152.774 19.1993 150.836 18.5889 149.039 17.7082C147.582 17.0319 146.156 16.2945 145.132 15.0666C145.108 15.0296 145.072 15.0006 145.028 14.984C144.985 14.9675 144.937 14.9641 144.891 14.9745C144.769 15.0036 144.655 15.0582 144.56 15.1344C144.464 15.2106 144.389 15.3061 144.341 15.4134C144.292 15.5209 144.271 15.637 144.28 15.7532C144.289 15.8691 144.326 15.9818 144.391 16.082C144.626 16.3803 144.914 16.6398 145.244 16.8498C146.782 17.9262 148.513 18.7151 150.288 19.4302ZM157.961 12.4567C157.96 12.4599 157.959 12.4628 157.958 12.466C157.746 13.1165 157.359 13.6896 157.152 14.3342C157.711 13.8598 158.345 13.432 158.325 12.6268C158.338 12.5096 158.37 12.395 158.419 12.2864C159.045 10.4474 159.96 8.70394 160.832 6.95138C160.932 6.72979 161.132 6.53087 161.143 6.31427C161.159 5.99062 160.704 6.14666 160.547 5.94389C160.364 5.6944 160.254 5.84977 160.151 6.0285C159.988 6.31269 159.818 6.59416 159.641 6.87291C158.678 8.37982 157.727 9.90194 156.443 11.2036C155.974 11.6779 155.941 12.1759 155.897 12.8203C155.897 12.8264 155.896 12.8325 155.896 12.8387C156.277 12.4647 156.479 12.0668 156.851 11.8064C156.602 12.2648 156.327 12.711 156.027 13.143C155.758 13.513 155.826 13.874 155.916 14.3497C155.916 14.3499 155.916 14.3499 155.916 14.3501L158.799 9.65993C158.623 10.1312 158.405 10.5883 158.147 11.0265C157.517 12.1519 156.876 13.2703 156.25 14.3975C156.186 14.5393 155.957 14.7346 156.189 14.8573C156.484 15.0169 156.504 14.6865 156.592 14.554C157.066 13.8715 157.509 13.1664 157.958 12.466C157.96 12.4633 157.962 12.4603 157.964 12.4576L157.961 12.4567ZM149.648 12.2136C149.761 12.2093 149.868 12.1687 149.951 12.0988C150.034 12.0289 150.088 11.9344 150.103 11.8319C150.436 10.8663 150.778 9.90262 151.128 8.9405C151.309 8.44061 151.502 7.94548 151.687 7.44764L151.762 7.47622L150.523 11.564C150.716 11.4823 150.88 11.3522 150.996 11.1886C151.341 10.6062 151.405 9.92689 151.719 9.31428C151.824 9.7053 151.558 10.058 151.622 10.4644C151.971 10.1562 152.215 9.8652 152.156 9.40886C152.144 9.11514 152.168 8.82097 152.228 8.53224C152.453 6.92757 152.855 5.35351 153.247 3.779C153.278 3.65562 153.515 3.42427 153.142 3.38799C152.905 3.36236 152.639 3.17501 152.523 3.59325C152.344 4.23376 152.088 4.85544 151.856 5.48098C151.174 7.32675 150.384 9.11831 148.971 10.6121C148.713 10.8822 148.908 11.1882 148.943 11.5492C149.149 11.3424 149.134 11.1263 149.319 11.0176C149.379 11.4095 149.057 11.772 149.279 12.161C149.587 11.5542 149.766 10.9083 150.171 10.3512L149.648 12.2136ZM159.052 2.16685C159.309 1.59982 159.134 1.36168 158.116 0.925976C157.832 0.804406 157.377 1.09812 157.196 1.52475C157.093 1.74975 157.088 2.00241 157.181 2.23081C157.274 2.45943 157.458 2.64677 157.696 2.75496C157.961 2.84001 158.252 2.82618 158.506 2.7164C158.76 2.60663 158.957 2.40976 159.055 2.16775L159.052 2.16685ZM162.19 5.22332C162.667 4.47894 161.461 4.68533 161.296 4.24532C161.29 4.21652 161.278 4.1893 161.259 4.16594C161.24 4.14235 161.215 4.1233 161.187 4.11015C161.158 4.09722 161.127 4.09019 161.095 4.09041C161.063 4.09041 161.032 4.09722 161.004 4.11037C160.804 4.18522 160.631 4.30996 160.505 4.47054C160.378 4.63112 160.303 4.82096 160.288 5.01851C160.293 5.22559 160.374 5.42496 160.518 5.58463C160.661 5.74408 160.859 5.85453 161.08 5.89785C161.517 5.97406 161.932 5.76131 162.192 5.22446L162.19 5.22332ZM154.204 2.55741C154.252 2.45331 154.277 2.34126 154.277 2.22808C154.277 2.11491 154.253 2.00264 154.205 1.89831C154.154 1.76721 152.821 1.44718 152.711 1.54267C152.555 1.66061 152.443 1.81937 152.389 1.99765C152.334 2.17614 152.34 2.36553 152.406 2.54063C152.458 2.72094 152.575 2.87948 152.739 2.98948C152.903 3.09926 153.103 3.15392 153.306 3.14417C153.504 3.15029 153.7 3.09631 153.862 2.99039C154.025 2.88424 154.145 2.73228 154.204 2.55741ZM164.536 8.13623C164.546 8.07 164.636 7.91464 164.584 7.78581C164.428 7.36236 163.704 7.57125 163.584 7.05526C163.561 6.95569 163.353 7.04755 163.241 7.09019C163.034 7.17229 162.863 7.31654 162.758 7.49935C162.652 7.68216 162.617 7.89286 162.659 8.09631C162.68 8.28138 162.77 8.45376 162.914 8.58418C163.058 8.71459 163.247 8.79488 163.448 8.81121C163.912 8.86111 164.315 8.62569 164.534 8.13533L164.536 8.13623ZM150.159 2.71799C150.245 2.46397 150.219 2.18953 150.087 1.95274C149.933 1.67013 149.727 1.9448 149.545 1.90375C149.42 1.88606 149.298 1.8568 149.18 1.81643C148.787 1.63725 148.587 1.69849 148.414 2.06887C148.312 2.27798 148.302 2.515 148.386 2.73092C148.469 2.94684 148.639 3.12511 148.861 3.22922C148.982 3.27435 149.112 3.29704 149.244 3.29567C149.375 3.29431 149.504 3.26914 149.625 3.22151C149.745 3.17388 149.855 3.1047 149.946 3.01829C150.037 2.93164 150.109 2.82936 150.157 2.71709L150.159 2.71799ZM154.141 1.25825C154.191 0.986306 154.125 0.763807 153.836 0.684424C153.774 0.659928 153.708 0.647455 153.64 0.647908C153.573 0.648362 153.506 0.661741 153.445 0.687144C153.383 0.71232 153.328 0.749291 153.283 0.795333C153.238 0.841375 153.204 0.895356 153.183 0.954327C153.152 1.00763 153.136 1.0666 153.134 1.1267C153.133 1.1868 153.146 1.24645 153.173 1.30112C153.201 1.35578 153.242 1.40386 153.292 1.44196C153.343 1.47984 153.403 1.50638 153.467 1.51976C153.595 1.55786 153.733 1.55242 153.857 1.50434C153.981 1.45626 154.082 1.36893 154.141 1.25825ZM159.18 0.735C159.215 0.488686 159.19 0.237608 158.907 0.139627C158.845 0.110822 158.777 0.0947203 158.707 0.0924522C158.638 0.0904109 158.569 0.102203 158.505 0.127379C158.441 0.152555 158.384 0.190208 158.338 0.237838C158.291 0.285468 158.257 0.341941 158.237 0.403179C158.124 0.689866 158.344 0.852034 158.579 0.952056C158.813 1.05208 159.033 0.946616 159.17 0.726158L159.18 0.735ZM161.524 3.82096C161.494 3.87268 161.477 3.92983 161.474 3.98835C161.471 4.04687 161.482 4.10516 161.506 4.15936C161.531 4.21334 161.568 4.26188 161.616 4.30112C161.663 4.34036 161.719 4.36939 161.78 4.3864C161.84 4.41021 161.906 4.42155 161.972 4.41997C162.038 4.41838 162.102 4.40364 162.161 4.37687C162.22 4.35011 162.272 4.312 162.314 4.26483C162.355 4.21788 162.385 4.16322 162.402 4.10447C162.428 4.0539 162.442 3.99878 162.444 3.94276C162.445 3.88674 162.434 3.83117 162.411 3.77923C162.388 3.72752 162.354 3.68057 162.31 3.64179C162.266 3.603 162.214 3.57283 162.156 3.55355C161.874 3.44809 161.657 3.56512 161.524 3.82096ZM164.166 7.34807C164.224 7.37075 164.285 7.38232 164.347 7.38255C164.409 7.38277 164.471 7.37143 164.528 7.34898C164.585 7.32675 164.637 7.29409 164.681 7.25304C164.724 7.21198 164.758 7.16322 164.78 7.10992C164.83 7.00196 164.832 6.88039 164.785 6.7713C164.738 6.66243 164.646 6.57487 164.529 6.52815C164.239 6.39411 164.017 6.53519 163.901 6.7663C163.869 6.82097 163.851 6.88152 163.848 6.94367C163.845 7.00558 163.857 7.0675 163.884 7.12466C163.91 7.18182 163.95 7.23262 164.001 7.27345C164.052 7.31427 164.113 7.34398 164.178 7.36032L164.166 7.34807ZM149.97 1.42473C150.009 1.32153 150.005 1.20858 149.959 1.10788C149.913 1.00717 149.827 0.925747 149.72 0.879704C149.668 0.849992 149.61 0.831394 149.549 0.825497C149.489 0.819374 149.428 0.825953 149.37 0.844778C149.313 0.863603 149.261 0.893993 149.218 0.933911C149.175 0.973603 149.143 1.02192 149.123 1.07499C149.09 1.12216 149.068 1.17524 149.059 1.23081C149.051 1.28637 149.055 1.34308 149.072 1.39706C149.089 1.45081 149.119 1.50071 149.159 1.54312C149.199 1.58553 149.248 1.61956 149.304 1.64292C149.578 1.779 149.8 1.67671 149.972 1.43335L149.97 1.42473Z" fill="black"/>
<path d="M150.779 18.002C151.261 18.1861 151.713 18.3905 152.195 18.5434C153.64 18.9895 155.103 19.3515 156.653 19.266C156.802 19.2662 156.948 19.2247 157.071 19.1467C157.193 19.0686 157.287 18.958 157.339 18.8296C159.011 15.65 160.901 12.5717 162.998 9.61321C163.344 9.1351 163.33 9.15324 162.828 8.83911C162.609 8.70053 162.55 8.7561 162.436 8.92031C162.213 9.24306 161.978 9.55833 161.726 9.86474C160.333 11.6466 158.916 13.4061 157.122 14.8738C156.365 15.4932 155.75 15.3048 155.494 14.3889C155.327 13.6826 155.303 12.9541 155.424 12.2399C155.803 9.22106 156.785 6.34966 157.91 3.51205C157.967 3.38594 158.224 3.14371 157.907 3.09517C157.644 3.05185 157.336 2.58871 157.025 3.17116C156.006 5.13714 154.834 7.03304 153.519 8.8441C152.651 10.0448 151.728 11.2115 150.542 12.1734C150.176 12.4701 149.774 12.74 149.247 12.5824C148.719 12.425 148.62 11.9947 148.527 11.5694C148.411 10.9455 148.385 10.3102 148.449 9.67989C148.622 7.74476 148.954 5.82436 149.445 3.93573C149.474 3.8221 149.664 3.57556 149.356 3.56943C149.149 3.56558 148.82 3.32539 148.718 3.81371C147.972 7.37529 146.779 10.8257 145.559 14.2662C145.386 14.7559 145.455 15.0448 145.85 15.3721C147.304 16.5669 149.015 17.3304 150.779 18.002Z" fill="#FFD20C"/>
<path d="M157.958 12.466C157.959 12.4628 157.96 12.4599 157.961 12.4567L157.964 12.4576C157.962 12.4603 157.96 12.4633 157.958 12.466C157.746 13.1165 157.359 13.6896 157.152 14.3342C157.711 13.8598 158.345 13.432 158.325 12.6268C158.338 12.5096 158.37 12.395 158.419 12.2864C159.045 10.4474 159.96 8.70394 160.832 6.95138C160.932 6.72979 161.132 6.53087 161.143 6.31427C161.159 5.99062 160.704 6.14666 160.547 5.94389C160.364 5.6944 160.254 5.84977 160.151 6.0285C159.988 6.31269 159.818 6.59416 159.641 6.87291C158.678 8.37982 157.727 9.90194 156.443 11.2036C155.974 11.6779 155.941 12.1759 155.897 12.8203L155.896 12.8387C156.277 12.4647 156.479 12.0668 156.851 11.8064C156.602 12.2648 156.327 12.711 156.027 13.143C155.758 13.513 155.826 13.874 155.916 14.3497V14.3501L158.799 9.65993C158.623 10.1312 158.405 10.5883 158.147 11.0265C157.517 12.1519 156.876 13.2703 156.25 14.3975C156.186 14.5393 155.957 14.7346 156.189 14.8573C156.484 15.0169 156.504 14.6865 156.592 14.554C157.066 13.8715 157.509 13.1664 157.958 12.466Z" fill="#FFD20C"/>
<path d="M149.648 12.2136C149.761 12.2093 149.868 12.1687 149.951 12.0988C150.034 12.0289 150.088 11.9344 150.103 11.8319C150.436 10.8663 150.778 9.90262 151.128 8.9405C151.309 8.44061 151.502 7.94548 151.687 7.44764L151.762 7.47622L150.523 11.564C150.716 11.4823 150.88 11.3522 150.996 11.1886C151.341 10.6062 151.405 9.92689 151.719 9.31428C151.824 9.7053 151.558 10.058 151.622 10.4644C151.971 10.1562 152.215 9.8652 152.156 9.40886C152.144 9.11514 152.168 8.82097 152.228 8.53224C152.453 6.92757 152.855 5.35351 153.247 3.779C153.278 3.65562 153.515 3.42427 153.142 3.38799C152.905 3.36236 152.639 3.17501 152.523 3.59325C152.344 4.23376 152.088 4.85544 151.856 5.48098C151.174 7.32675 150.384 9.11831 148.971 10.6121C148.713 10.8822 148.908 11.1882 148.943 11.5492C149.149 11.3424 149.134 11.1263 149.319 11.0176C149.379 11.4095 149.057 11.772 149.279 12.161C149.587 11.5542 149.766 10.9083 150.171 10.3512L149.648 12.2136Z" fill="#FFD20C"/>
<path d="M154.204 2.55741C154.252 2.45331 154.277 2.34126 154.277 2.22808C154.277 2.11491 154.253 2.00264 154.205 1.89831C154.154 1.76721 152.821 1.44718 152.711 1.54267C152.555 1.66061 152.443 1.81937 152.389 1.99765C152.334 2.17614 152.34 2.36553 152.406 2.54063C152.458 2.72094 152.575 2.87948 152.739 2.98948C152.903 3.09926 153.103 3.15392 153.306 3.14417C153.504 3.15029 153.7 3.09631 153.862 2.99039C154.025 2.88424 154.145 2.73228 154.204 2.55741Z" fill="#FFD20C"/>
<path d="M154.141 1.25825C154.191 0.986306 154.125 0.763807 153.836 0.684424C153.774 0.659928 153.708 0.647455 153.64 0.647908C153.573 0.648362 153.506 0.661741 153.445 0.687144C153.383 0.71232 153.328 0.749291 153.283 0.795333C153.238 0.841375 153.204 0.895356 153.183 0.954327C153.152 1.00763 153.136 1.0666 153.134 1.1267C153.133 1.1868 153.146 1.24645 153.173 1.30112C153.201 1.35578 153.242 1.40386 153.292 1.44196C153.343 1.47984 153.403 1.50638 153.467 1.51976C153.595 1.55786 153.733 1.55242 153.857 1.50434C153.981 1.45626 154.082 1.36893 154.141 1.25825Z" fill="#FFD20C"/>
<path d="M150.159 2.71799C150.245 2.46397 150.219 2.18953 150.087 1.95274C149.933 1.67013 149.727 1.9448 149.545 1.90375C149.42 1.88606 149.298 1.8568 149.18 1.81643C148.787 1.63725 148.587 1.69849 148.414 2.06887C148.312 2.27798 148.302 2.515 148.386 2.73092C148.469 2.94684 148.639 3.12511 148.861 3.22922C148.982 3.27435 149.112 3.29704 149.244 3.29567C149.375 3.29431 149.504 3.26914 149.625 3.22151C149.745 3.17388 149.855 3.1047 149.946 3.01829C150.037 2.93164 150.109 2.82936 150.157 2.71709L150.159 2.71799Z" fill="#FFD20C"/>
<path d="M149.97 1.42473C150.009 1.32153 150.005 1.20858 149.959 1.10788C149.913 1.00717 149.827 0.925747 149.72 0.879704C149.668 0.849992 149.61 0.831394 149.549 0.825497C149.489 0.819374 149.428 0.825953 149.37 0.844778C149.313 0.863603 149.261 0.893993 149.218 0.933911C149.175 0.973603 149.143 1.02192 149.123 1.07499C149.09 1.12216 149.068 1.17524 149.059 1.23081C149.051 1.28637 149.055 1.34308 149.072 1.39706C149.089 1.45081 149.119 1.50071 149.159 1.54312C149.199 1.58553 149.248 1.61956 149.304 1.64292C149.578 1.779 149.8 1.67671 149.972 1.43335L149.97 1.42473Z" fill="#FFD20C"/>
<path d="M159.052 2.16685C159.309 1.59982 159.134 1.36168 158.116 0.925976C157.832 0.804406 157.377 1.09812 157.196 1.52475C157.093 1.74975 157.088 2.00241 157.181 2.23081C157.274 2.45943 157.458 2.64677 157.696 2.75496C157.961 2.84001 158.252 2.82618 158.506 2.7164C158.76 2.60663 158.957 2.40976 159.055 2.16775L159.052 2.16685Z" fill="#FFD20C"/>
<path d="M159.18 0.735C159.215 0.488686 159.19 0.237608 158.907 0.139627C158.845 0.110822 158.777 0.0947203 158.707 0.0924522C158.638 0.0904109 158.569 0.102203 158.505 0.127379C158.441 0.152555 158.384 0.190208 158.338 0.237838C158.291 0.285468 158.257 0.341941 158.237 0.403179C158.124 0.689866 158.344 0.852034 158.579 0.952056C158.813 1.05208 159.033 0.946616 159.17 0.726158L159.18 0.735Z" fill="#FFD20C"/>
<path d="M162.19 5.22332C162.667 4.47894 161.461 4.68533 161.296 4.24532C161.29 4.21652 161.278 4.1893 161.259 4.16594C161.24 4.14235 161.215 4.1233 161.187 4.11015C161.158 4.09722 161.127 4.09019 161.095 4.09041C161.063 4.09041 161.032 4.09722 161.004 4.11037C160.804 4.18522 160.631 4.30996 160.505 4.47054C160.378 4.63112 160.303 4.82096 160.288 5.01851C160.293 5.22559 160.374 5.42496 160.518 5.58463C160.661 5.74408 160.859 5.85453 161.08 5.89785C161.517 5.97406 161.932 5.76131 162.192 5.22446L162.19 5.22332Z" fill="#FFD20C"/>
<path d="M161.524 3.82096C161.494 3.87268 161.477 3.92983 161.474 3.98835C161.471 4.04687 161.482 4.10516 161.506 4.15936C161.531 4.21334 161.568 4.26188 161.616 4.30112C161.663 4.34036 161.719 4.36939 161.78 4.3864C161.84 4.41021 161.906 4.42155 161.972 4.41997C162.038 4.41838 162.102 4.40364 162.161 4.37687C162.22 4.35011 162.272 4.312 162.314 4.26483C162.355 4.21788 162.385 4.16322 162.402 4.10447C162.428 4.0539 162.442 3.99878 162.444 3.94276C162.445 3.88674 162.434 3.83117 162.411 3.77923C162.388 3.72752 162.354 3.68057 162.31 3.64179C162.266 3.603 162.214 3.57283 162.156 3.55355C161.874 3.44809 161.657 3.56512 161.524 3.82096Z" fill="#FFD20C"/>
<path d="M164.536 8.13623C164.546 8.07 164.636 7.91464 164.584 7.78581C164.428 7.36236 163.704 7.57125 163.584 7.05526C163.561 6.95569 163.353 7.04755 163.241 7.09019C163.034 7.17229 162.863 7.31654 162.758 7.49935C162.652 7.68216 162.617 7.89286 162.659 8.09631C162.68 8.28138 162.77 8.45376 162.914 8.58418C163.058 8.71459 163.247 8.79488 163.448 8.81121C163.912 8.86111 164.315 8.62569 164.534 8.13533L164.536 8.13623Z" fill="#FFD20C"/>
<path d="M164.166 7.34807C164.224 7.37075 164.285 7.38232 164.347 7.38255C164.409 7.38277 164.471 7.37143 164.528 7.34898C164.585 7.32675 164.637 7.29409 164.681 7.25304C164.724 7.21198 164.758 7.16322 164.78 7.10992C164.83 7.00196 164.832 6.88039 164.785 6.7713C164.738 6.66243 164.646 6.57487 164.529 6.52815C164.239 6.39411 164.017 6.53519 163.901 6.7663C163.869 6.82097 163.851 6.88152 163.848 6.94367C163.845 7.00558 163.857 7.0675 163.884 7.12466C163.91 7.18182 163.95 7.23262 164.001 7.27345C164.052 7.31427 164.113 7.34398 164.178 7.36032L164.166 7.34807Z" fill="#FFD20C"/>
<path d="M150.288 19.4302C151.287 19.8294 152.317 20.1573 153.37 20.4109C154.472 20.679 155.584 20.899 156.732 20.7092C157.341 20.6121 157.532 20.3213 157.439 19.7715C157.402 19.5706 157.349 19.4644 157.07 19.5189C156.313 19.6459 155.537 19.645 154.78 19.5161C152.774 19.1993 150.836 18.5889 149.039 17.7082C147.582 17.0319 146.156 16.2945 145.132 15.0666C145.108 15.0296 145.072 15.0006 145.028 14.984C144.985 14.9675 144.937 14.9641 144.891 14.9745C144.769 15.0036 144.655 15.0582 144.56 15.1344C144.464 15.2106 144.389 15.3061 144.341 15.4134C144.292 15.5209 144.271 15.637 144.28 15.7532C144.289 15.8691 144.326 15.9818 144.391 16.082C144.626 16.3803 144.914 16.6398 145.244 16.8498C146.782 17.9262 148.513 18.7151 150.288 19.4302Z" fill="#FFD20C"/>
<path d="M155.617 18.828C152.995 18.8285 148.504 17.0673 146.688 15.3184C147.601 15.7974 148.52 16.3072 149.476 16.7298C150.469 17.1691 151.481 17.5742 152.514 17.9251C153.547 18.276 154.564 18.5633 155.617 18.828Z" fill="black"/>
<path d="M156.087 7.03122C155.445 9.08316 154.961 11.1739 154.639 13.2882C154.432 11.0661 155.277 9.0539 156.087 7.03122Z" fill="black"/>
<path d="M158.196 14.3748C157.891 14.9203 157.411 15.3662 156.821 15.6522C155.919 16.0423 155.128 15.5243 155.042 14.4343C155.132 14.5778 155.188 14.6486 155.226 14.7255C155.634 15.5284 156.209 15.6754 157.037 15.2072C157.456 14.9675 157.786 14.6236 158.196 14.3748Z" fill="black"/>
<path d="M147.787 8.99561C147.387 10.5715 146.875 12.1215 146.254 13.6357C146.637 12.0557 147.15 10.5046 147.787 8.99561Z" fill="black"/>
<path d="M149.863 13.0546C149.668 13.1526 149.444 13.1895 149.224 13.1603C149.004 13.131 148.8 13.0369 148.643 12.8922C148.148 12.5184 147.953 11.7892 148.161 11.0221C148.421 11.9525 148.48 12.9854 149.863 13.0546Z" fill="black"/>
<path d="M152.898 10.4429C152.588 11.258 151.969 11.9434 151.155 12.3739C151.669 11.6819 152.253 11.0353 152.898 10.4429Z" fill="black"/>
<path d="M157.484 17.6921C157.925 16.7284 158.459 15.8024 159.077 14.9246C158.635 15.8883 158.102 16.8144 157.484 17.6921Z" fill="black"/>
<path d="M156.305 16.2261C155.78 16.4694 155.493 16.3857 155.187 15.8947C155.503 16.1272 155.901 16.2451 156.305 16.2261Z" fill="black"/>
<path d="M148.144 12.8908C148.338 13.087 148.459 13.219 148.595 13.3361C148.731 13.4531 148.858 13.53 149.063 13.6758C148.519 13.6107 148.241 13.4007 148.144 12.8908Z" fill="black"/>
<path d="M155.69 20.2406C151.936 19.977 148.372 18.6148 145.521 16.3533C148.567 18.3072 152.035 19.6332 155.69 20.2406Z" fill="black"/>
<path d="M157.393 2.20767C158.023 2.61774 158.313 2.59597 158.807 2.14598C158.689 2.50071 158.496 2.66583 158.16 2.67785C157.992 2.69894 157.821 2.66288 157.68 2.57624C157.538 2.48982 157.436 2.35873 157.393 2.20767Z" fill="black"/>
<path d="M161.919 5.32788C161.723 5.69191 161.472 5.78014 161.174 5.72616C160.989 5.71119 160.818 5.6309 160.697 5.50207C160.575 5.37324 160.513 5.20609 160.523 5.03575C160.908 5.5776 161.335 5.67603 161.919 5.32788Z" fill="black"/>
<path d="M152.589 2.29862C152.956 2.88062 153.236 2.95387 153.98 2.60731C153.911 2.7502 153.79 2.86633 153.637 2.9355C153.485 3.00468 153.31 3.02237 153.145 2.98585C152.98 2.94911 152.833 2.8602 152.732 2.73477C152.63 2.60912 152.58 2.4549 152.589 2.29862Z" fill="black"/>
<path d="M164.137 8.47485C163.687 8.7155 163.374 8.70234 163.098 8.47485C162.974 8.38118 162.888 8.25236 162.852 8.10856C162.817 7.96476 162.835 7.81416 162.903 7.68079C163.106 8.38186 163.298 8.51477 164.137 8.47485Z" fill="black"/>
<path d="M150.073 2.45898C149.938 2.92688 149.684 3.18817 149.236 3.16004C149.151 3.16163 149.065 3.14757 148.985 3.11899C148.905 3.09018 148.832 3.04709 148.77 2.99243C148.709 2.93754 148.659 2.87222 148.625 2.79964C148.591 2.72729 148.572 2.6495 148.571 2.57057C149.141 3.13373 149.481 3.11309 150.073 2.45898Z" fill="black"/>
</svg>
