<svg width="83" height="48" viewBox="0 0 83 48" fill="none" xmlns="http://www.w3.org/2000/svg">
<path d="M14.7212 18.2649C17.1841 19.013 19.2832 21.2315 19.2832 23.4242C19.2832 28.7897 12.9021 30.4149 10.1034 27.4999C8.67604 30.7502 6.85685 33.5878 3.9462 33.5878C1.6512 33.5878 0 32.169 0 30.3633C0 27.9127 2.40689 26.4681 4.17008 26.8809C3.72232 27.5773 4.11409 28.506 5.09365 28.506C7.19272 28.506 9.23579 22.5987 11.8945 19.0647C11.6987 19.0647 11.5027 19.0647 11.3068 19.0904C8.73203 19.3484 7.72442 21.7474 8.95591 22.4697C8.4801 24.4818 5.09365 24.3528 5.40147 21.928C5.56946 20.535 6.94079 19.271 8.4801 18.6261C10.0474 17.9554 11.5587 17.8264 12.8461 17.9296C13.7417 17.0009 14.7212 16.4076 15.7568 16.4334C16.4844 16.4593 16.9883 16.9752 16.9602 17.4653C16.9323 18.0328 16.5124 18.3165 16.5124 18.3165C16.5124 18.3165 16.1486 17.9812 15.7008 17.9554C15.3369 17.9554 15.0291 18.0586 14.7212 18.2649ZM16.4005 23.3726C16.7923 21.8248 15.6168 20.0707 13.6857 19.3741C12.7901 20.664 12.0344 22.6761 11.2229 24.7914C12.8461 25.7716 15.8407 25.4362 16.4005 23.3726Z" fill="#FF0D1C"/>
<path d="M27.1623 26.5197H28.4216C27.442 28.3512 25.7069 30.8276 22.2644 30.8276C20.7532 30.8276 19.4098 29.6926 19.4098 28.0158C19.4098 25.3588 22.6842 23.063 24.8952 23.063C25.6789 23.063 26.3226 23.3983 26.3226 24.1465C26.3226 25.3847 23.8877 26.984 22.3204 27.2162C22.5164 27.7579 22.9921 28.1964 23.5799 28.2996C25.0632 28.5575 26.4066 27.7579 27.1623 26.5197ZM24.5874 24.1722C23.3839 24.1722 22.3484 25.2041 22.2084 26.3907C23.7478 26.0037 25.3431 24.1722 24.5874 24.1722Z" fill="#FF0D1C"/>
<path d="M35.3483 26.6618H36.6076C36.6076 26.6618 33.9819 30.8534 31.603 30.8534C30.1757 30.8534 29.8118 29.8473 29.8118 29.0219C29.8118 27.3968 31.2952 25.4878 32.2746 24.4302C31.6309 24.5334 30.7913 24.5849 29.9517 24.3528C29.9517 24.3528 29.2052 25.1009 28.4216 26.5197C28.2817 26.7776 27.0503 26.7776 27.1623 26.5197C28.4776 24.5334 28.8042 22.6503 28.8042 22.6503H30.7354C30.7354 22.6503 31.2671 23.6305 34.1498 23.6305H34.4297C34.4297 23.6305 31.0153 27.7579 33.2822 27.7579C34.1219 27.7579 35.3483 26.6618 35.3483 26.6618Z" fill="#FF0D1C"/>
<path d="M44.363 26.5682H45.6225C45.6225 26.5682 44.1933 28.506 41.7024 28.6865C40.9468 29.9763 39.6593 31.0082 38.0361 31.0082C36.1889 31.0082 35.0694 29.8473 35.0694 28.0158C35.0694 26.0037 37.2245 23.2177 40.1351 23.2177C42.1782 23.2177 42.8219 25.0493 42.4021 26.9582C42.57 27.0356 42.7939 27.0872 42.9899 27.0872C43.4376 27.0872 44.363 26.5682 44.363 26.5682ZM38.7078 28.2996C39.4635 28.2996 39.6873 28.0158 39.6873 28.0158C39.6873 28.0158 38.9317 27.3709 38.7917 26.4681C38.6798 25.591 39.1836 24.6624 39.1836 24.6624C39.1555 24.6624 37.5883 25.591 37.5883 27.0613C37.5883 27.7579 38.176 28.2996 38.7078 28.2996ZM41.1427 26.3391C41.1427 26.3391 41.8703 24.6624 40.9187 24.6624C40.527 24.6624 40.359 25.1525 40.443 25.462C40.6109 26.107 41.1427 26.3391 41.1427 26.3391Z" fill="#FF0D1C"/>
<path d="M51.3239 23.6305H52.7512C52.7512 23.6305 48.917 35.3677 44.7469 35.3677C43.4875 35.3677 42.7598 34.4648 42.7598 33.4588C42.7598 32.169 44.0193 31.5241 44.0193 31.5241C44.0193 31.5241 44.2711 31.8853 44.8308 31.8853C45.9783 31.8853 47.3497 30.5181 48.5251 28.7381C47.3497 29.8732 45.9224 30.8534 44.8029 30.8534C44.0752 30.8534 43.3755 30.4406 43.3755 29.254C43.3755 26.5197 46.9579 23.3726 49.5886 23.3726C50.3443 23.3726 50.7641 23.8369 50.9601 24.3786C51.1839 23.9143 51.3239 23.6305 51.3239 23.6305ZM46.846 27.7579C49.1688 27.7579 51.1839 24.5592 49.5607 24.5592C47.3497 24.5592 45.2786 27.7579 46.846 27.7579Z" fill="#FF0D1C"/>
<path d="M55.7137 23.6305H57.0851C57.0851 23.6305 53.6707 27.7579 55.9376 27.7579C56.7492 27.7579 58.0676 26.5455 58.0676 26.5455L59.1119 26.6082C59.1119 26.6082 56.6373 30.8534 54.2584 30.8534C52.831 30.8534 52.4392 29.8473 52.4392 29.0219C52.4392 26.6229 55.7137 23.6305 55.7137 23.6305ZM56.1615 22.8824H57.3649C57.3649 22.8824 57.8687 22.186 58.7923 21.4895H56.9451C56.9451 21.4895 56.6373 22.0828 56.1615 22.8824Z" fill="#FF0D1C"/>
<path d="M65.4915 26.5197H66.7509C65.7713 28.3512 64.0362 30.8276 60.5938 30.8276C59.0824 30.8276 57.7391 29.6926 57.7391 28.0158C57.7391 25.3588 61.0136 23.063 63.2245 23.063C64.0082 23.063 64.6518 23.3983 64.6518 24.1465C64.6518 25.3847 62.217 26.984 60.6497 27.2162C60.8456 27.7579 61.3214 28.1964 61.9091 28.2996C63.3924 28.5575 64.7359 27.7579 65.4915 26.5197ZM62.9167 24.1722C61.7133 24.1722 60.6777 25.2041 60.5378 26.3907C62.0771 26.0037 63.6723 24.1722 62.9167 24.1722Z" fill="#FF0D1C"/>
<path d="M27.0426 30.7773C28.9457 30.7773 29.7574 32.5315 29.0017 34.3114C27.7703 37.3037 23.7961 40.3734 19.4302 40.5798C18.4225 41.818 17.3311 42.9015 16.1836 43.7011C17.0512 44.0364 17.9748 44.3203 18.8424 44.3976C20.9694 44.5782 21.837 43.0304 21.3612 41.8439C25.8951 41.2247 26.8468 47.4416 21.5572 47.9833C19.1503 48.2155 15.9597 45.9712 13.8326 44.7587C13.4409 44.862 13.0211 44.9136 12.6013 44.9136C11.2019 44.9136 10.6421 44.0881 10.6981 43.469C10.7821 42.9015 11.6496 42.4888 12.3493 42.4888C12.7412 42.4888 13.189 42.6177 13.6927 42.7725C14.5323 42.2308 15.372 41.3021 16.1836 40.2187C10.978 38.5935 12.8811 32.5572 17.2191 33.4344C16.5475 34.4404 17.3311 35.9623 18.7864 36.5814C20.9414 33.6149 23.4882 30.7773 27.0426 30.7773ZM27.5184 33.5633C27.7423 32.9699 27.5184 32.3766 26.7908 32.3766C25.4474 32.3766 23.992 34.3114 22.3408 36.6588C24.7196 36.1429 26.9867 34.9047 27.5184 33.5633Z" fill="#FF0D1C"/>
<path d="M36.9012 39.9789H38.1606C38.1606 39.9789 35.4293 44.2944 33.0505 44.2944C31.6511 44.2944 31.2592 43.2884 31.2592 42.4629C31.2592 42.2308 31.2873 41.9986 31.3433 41.7664C30.0558 43.0821 28.4606 44.2944 27.2011 44.2944C26.4735 44.2944 25.7738 43.8817 25.7738 42.6951C25.7738 39.9607 29.3561 36.8135 31.987 36.8135C32.9105 36.8135 33.3583 37.5101 33.4703 38.1807C34.058 37.5101 34.5338 37.0715 34.5338 37.0715H35.8772C35.8772 37.0715 32.4907 41.1989 34.7577 41.1989C35.5693 41.1989 36.9012 39.9789 36.9012 39.9789ZM29.2442 41.1989C31.5672 41.1989 33.5822 38.0002 31.9589 38.0002C29.748 38.0002 27.677 41.1989 29.2442 41.1989Z" fill="#FF0D1C"/>
<path d="M40.6579 37.0715C40.6579 37.0715 39.8184 38.1034 39.2586 39.1352C40.2941 37.897 42.0013 36.6331 43.2328 36.6331C44.3523 36.6331 44.5481 37.3553 44.5481 37.9228C44.5481 38.7999 43.4007 41.1989 44.6601 41.1989C45.6676 41.1989 47.103 40.0316 47.103 40.0316H48.3624C48.3624 40.0316 45.6117 44.2944 43.0928 44.2944C42.1133 44.2944 41.3296 43.4174 41.3296 42.1792C41.3296 40.0381 43.4287 37.9744 42.4211 37.9744C41.9733 37.9744 39.3145 39.6512 39.3145 43.9591C39.3145 43.9591 38.7268 44.2944 37.8312 44.2944C36.4039 44.2944 36.0401 43.2884 36.0401 42.4629C36.0401 40.0639 39.3145 37.0715 39.3145 37.0715H40.6579Z" fill="#FF0D1C"/>
<path d="M56.7996 39.9865H58.059C58.059 39.9865 55.792 44.2944 53.525 44.2944C52.0977 44.2944 51.6219 43.2884 51.6219 42.4629C51.6219 42.2308 51.6219 41.9986 51.6499 41.7664C50.3905 43.0821 48.7672 44.2944 47.5358 44.2944C46.8081 44.2944 46.0805 43.8817 46.0805 42.6951C46.0805 39.9607 49.6628 36.8135 52.2936 36.8135C52.9373 36.8135 53.3292 37.1231 53.5531 37.5359C54.8684 35.7043 56.3517 34.4404 56.3517 34.4404H57.947C57.947 34.4404 52.6574 41.1989 55.0924 41.1989C56.0718 41.1989 56.7996 39.9865 56.7996 39.9865ZM49.5788 41.1989C50.6424 41.1989 51.6219 40.5282 52.2376 39.8059C52.4056 39.3932 52.6295 39.0062 52.8534 38.6193C52.9094 38.2582 52.7414 38.0002 52.2657 38.0002C50.0827 38.0002 47.9836 41.1989 49.5788 41.1989Z" fill="#FF0D1C"/>
<path fill-rule="evenodd" clip-rule="evenodd" d="M38.9318 21.0445C39.1425 21.5413 39.5073 21.6663 39.9325 21.4575C40.0232 21.4868 40.1048 21.5173 40.1805 21.5456C40.3438 21.6065 40.48 21.6573 40.622 21.6652C40.9662 21.6927 41.1709 21.4699 41.329 21.218C41.3371 21.2054 41.3449 21.1928 41.3528 21.1803C41.441 21.039 41.5222 20.9091 41.7382 20.8685C41.8067 20.8469 41.8697 20.8125 41.9236 20.7678C41.9773 20.723 42.0207 20.6687 42.0512 20.6082C42.301 20.1318 42.1923 19.6652 41.96 19.2089C41.9111 19.1245 41.8886 19.0293 41.8951 18.9338C41.9577 18.5826 41.8922 18.4483 41.5372 18.2819C41.484 18.257 41.4325 18.2302 41.3782 18.2018C41.3628 18.1939 41.3472 18.1858 41.3314 18.1776C41.3501 18.1285 41.3666 18.0811 41.3825 18.0352C41.413 17.9474 41.4415 17.865 41.4806 17.786C41.9151 16.9121 42.6079 16.1684 43.4797 15.6399C43.9262 15.3616 44.4101 15.1394 44.9187 14.9788L45.0306 14.1301C42.9636 14.731 41.4158 15.877 40.5839 17.7683C40.5222 17.9103 40.4516 17.9364 40.2946 17.9149C40.0188 17.8788 39.7157 17.9064 39.5946 18.1605C39.4843 18.3906 39.3057 18.5381 39.1201 18.6912C39.0805 18.724 39.0407 18.7569 39.001 18.7909C38.5921 19.1516 38.4236 19.6375 38.2943 20.1277C38.1482 20.6781 38.3387 20.9379 38.9318 21.0445ZM39.4465 21.3366C39.1546 21.3148 39.1078 21.04 39.0761 20.8091C38.6084 20.9065 38.3784 20.7147 38.4371 20.2939C38.5001 19.8482 38.6832 19.424 38.9696 19.06C39.2834 18.6547 39.7248 18.5308 40.2467 18.6688C40.2874 18.6742 40.3287 18.6753 40.3697 18.6723C40.3035 18.4721 40.1428 18.4244 39.6679 18.4453C39.6665 18.3966 39.6759 18.348 39.6954 18.3027C39.7151 18.2574 39.7445 18.2162 39.7818 18.1817C39.8193 18.1472 39.8639 18.12 39.9131 18.1018C39.9622 18.0837 40.0149 18.0749 40.0678 18.0762C40.6254 18.0793 41.1691 18.2366 41.6285 18.5278C41.7869 18.621 41.7864 18.7814 41.6847 18.9649L41.049 18.7593L41.0024 18.8378C41.0593 18.8823 41.1214 18.9207 41.1878 18.9522C41.3418 18.9977 41.4846 19.0708 41.608 19.1672C41.7313 19.2636 41.8329 19.3814 41.9068 19.514C41.9808 19.6466 42.0255 19.7913 42.0387 19.9398C42.052 20.0883 42.0332 20.2378 41.9837 20.3797C41.9636 20.4737 41.9143 20.5604 41.8418 20.6291C41.7693 20.6979 41.6767 20.7458 41.5752 20.767C41.5608 20.66 41.5848 20.5527 41.6085 20.447C41.644 20.2889 41.6787 20.1341 41.5828 19.9875L41.5046 19.986C41.4937 20.1006 41.4751 20.2144 41.449 20.3268C41.3772 20.6037 41.2847 20.8756 41.1721 21.1407C41.1281 21.2558 41.0462 21.3555 40.9379 21.4257C40.8296 21.4961 40.7002 21.5336 40.5677 21.533C40.2955 21.5274 40.2011 21.3335 40.1594 21.1805C40.0799 21.1992 40.0019 21.2236 39.9253 21.2473C39.7597 21.2988 39.6006 21.3483 39.4465 21.3366Z" fill="#FF0D1C"/>
<path fill-rule="evenodd" clip-rule="evenodd" d="M77.7455 17.1226C77.7971 17.1749 77.8494 17.2279 77.9011 17.2828C77.6361 17.694 77.2941 18.051 76.895 18.3333C76.5367 18.5789 76.1426 18.7514 75.7154 18.7067C75.5057 18.6713 75.299 18.6216 75.0971 18.5577L74.8287 19.3044C75.4997 19.5515 76.1859 19.5436 76.8888 19.204C77.4985 18.8922 78.0209 18.4283 78.4041 17.8582C78.5077 17.7141 78.5815 17.6916 78.7387 17.7729C79.1553 17.9903 79.3582 17.9394 79.7011 17.5783C79.7064 17.5728 79.7116 17.5671 79.717 17.5613C79.7498 17.5258 79.7861 17.4863 79.8262 17.4791C80.3505 17.38 80.6364 16.9918 80.8829 16.5782C81.086 16.2133 81.3969 15.9187 81.7712 15.736C81.9297 15.6686 82.0815 15.5854 82.2242 15.488C82.4633 15.3293 82.6851 15.1451 82.8853 14.9388C82.9353 14.8893 82.9708 14.8274 82.9881 14.7598C83.0055 14.6921 83.0037 14.6215 82.9834 14.5559C82.9629 14.4903 82.9245 14.4322 82.8724 14.3881C82.8203 14.344 82.7565 14.3156 82.6884 14.3063C82.5031 14.2656 82.3079 14.2858 82.1316 14.364C81.8062 14.5343 81.4905 14.7231 81.186 14.9294C81.0986 14.9845 81.0145 15.0459 80.9305 15.1073C80.8885 15.1381 80.8465 15.1688 80.8041 15.1987C80.9287 15.0111 81.0666 14.8402 81.2031 14.6708C81.2978 14.5534 81.3918 14.4369 81.4802 14.3162C81.7427 13.957 81.9897 13.5838 82.219 13.2013C82.2761 13.1141 82.3012 13.0103 82.2898 12.9083C82.2785 12.8064 82.2314 12.7128 82.157 12.644C82.0735 12.5694 81.9676 12.5246 81.8548 12.5162C81.742 12.5078 81.6284 12.5363 81.5312 12.5975C81.3728 12.698 81.2323 12.8248 81.116 12.9724C80.9217 13.234 80.7395 13.5051 80.5576 13.7757C80.4901 13.876 80.4226 13.9762 80.3547 14.076C80.2427 14.2384 80.1315 14.4009 80.0212 14.5635C80.1423 14.1999 80.2832 13.8428 80.4431 13.4937C80.5745 13.2112 80.6814 12.9185 80.7627 12.619C80.7706 12.5423 80.7612 12.4653 80.7352 12.3938C80.7092 12.3222 80.6673 12.2579 80.6126 12.2057C80.5484 12.1708 80.4769 12.1511 80.4031 12.1481C80.3294 12.1452 80.2555 12.159 80.1869 12.1885C80.0091 12.2685 79.8554 12.3958 79.7433 12.5563C79.4902 12.9495 79.2679 13.3643 79.0522 13.7788C78.9678 13.9404 78.8993 14.1099 78.8237 14.2966C78.7862 14.3894 78.7469 14.4865 78.703 14.5891C78.6762 14.4554 78.6423 14.3234 78.6014 14.1936C78.529 13.9845 78.4405 13.7816 78.3365 13.5871C78.2959 13.5024 78.2264 13.4357 78.1402 13.3987C78.0541 13.3617 77.9568 13.3567 77.8655 13.3847C77.7661 13.4107 77.677 13.4683 77.6118 13.5487C77.5467 13.6292 77.509 13.7282 77.5046 13.8303C77.4915 13.9694 77.5053 14.1089 77.5454 14.2412C77.5906 14.3716 77.6075 14.511 77.5948 14.6501C77.5822 14.7893 77.5402 14.925 77.4719 15.0482C77.3988 15.1838 77.3581 15.3337 77.353 15.4859C77.348 15.6381 77.3786 15.7884 77.4427 15.9245C77.4529 15.9607 77.4556 15.9989 77.4506 16.0365C77.4454 16.0742 77.4329 16.1108 77.4133 16.1438C77.2747 16.3893 77.2658 16.5674 77.4403 16.7881C77.5299 16.9044 77.6361 17.0118 77.7455 17.1226ZM79.1195 17.0806L79.0855 17.1613L79.5727 17.4676C79.4271 17.7224 79.2273 17.8205 78.9685 17.7157C78.4133 17.489 77.9254 17.1289 77.5463 16.6664C77.5162 16.6345 77.4932 16.5965 77.4785 16.555C77.4639 16.5134 77.458 16.4691 77.4612 16.4246C77.4644 16.38 77.4767 16.3365 77.4971 16.2964C77.5176 16.2563 77.546 16.2207 77.5804 16.1915C77.988 16.4804 77.988 16.4804 78.1254 16.4351C78.0868 16.4001 78.05 16.3686 78.0146 16.3385C77.9756 16.305 77.9383 16.2731 77.9023 16.2396C77.503 15.8623 77.3919 15.5265 77.6505 15.0458C77.7147 14.9239 77.754 14.7912 77.7662 14.6553C77.7782 14.5194 77.7629 14.3833 77.721 14.2551C77.6737 14.1344 77.6585 14.0026 77.6766 13.8723C77.6944 13.8056 77.7253 13.7428 77.7674 13.6875C77.8096 13.6324 77.8621 13.5859 77.922 13.5508C77.9828 13.5469 78.0432 13.5585 78.0974 13.5845C78.1517 13.6107 78.1981 13.6503 78.2321 13.6999C78.3444 13.9497 78.4421 14.2061 78.5247 14.4681C78.5482 14.5794 78.5932 14.6844 78.6574 14.7772C79.0958 15.1957 79.1344 15.6752 78.8655 16.213L78.9088 16.2664C78.9259 16.2499 78.9465 16.2345 78.9671 16.2191C79.0069 16.1893 79.0472 16.1591 79.0645 16.1199C79.1598 15.9113 79.1988 15.6827 79.1775 15.4575C79.1563 15.2323 79.0756 15.0184 78.9435 14.838C78.9018 14.7757 78.855 14.6774 78.8771 14.6196C79.1471 13.9182 79.4246 13.2191 79.8856 12.612C79.9777 12.4951 80.092 12.3975 80.2216 12.3252C80.4592 12.1899 80.661 12.3236 80.6449 12.5918C80.6417 12.6849 80.6211 12.7771 80.5842 12.8635C80.3699 13.3353 80.1512 13.8043 79.9329 14.2723C79.9041 14.334 79.8754 14.3957 79.8466 14.4573L79.5199 14.4281L79.5097 14.4851C79.7919 14.6265 80.0621 14.7901 80.3176 14.9745C80.4744 15.11 80.6052 15.2773 80.7541 15.468C80.8174 15.549 80.884 15.6343 80.9573 15.7231C80.8207 15.3477 81.0285 15.2208 81.2281 15.0989C81.2731 15.0714 81.3177 15.0442 81.3579 15.0143C81.5789 14.8509 81.8106 14.703 82.0514 14.5716C82.1861 14.4928 82.3366 14.4463 82.4906 14.4359C82.5526 14.4357 82.6135 14.4497 82.6686 14.4769C82.7238 14.504 82.7715 14.5436 82.8083 14.5927C82.8218 14.6519 82.8202 14.7139 82.8036 14.7731C82.787 14.8325 82.756 14.8871 82.7134 14.9319C82.4565 15.1612 82.1735 15.359 81.8708 15.521C81.3736 15.7635 80.9699 16.075 80.7185 16.5802C80.6427 16.7172 80.5469 16.8426 80.4343 16.9518C80.0164 17.3847 79.8063 17.411 79.2969 17.1208C79.2402 17.0991 79.1804 17.0857 79.1195 17.0806ZM80.9556 14.7273C80.8684 14.8337 80.7812 14.9403 80.6944 15.0479L80.1371 14.6437C80.2401 14.5005 80.3425 14.3577 80.4447 14.2151C80.7626 13.7719 81.0784 13.3315 81.3989 12.8934C81.4554 12.8279 81.5245 12.7743 81.6017 12.7359C81.7556 12.6423 81.9362 12.6141 82.0391 12.76C82.0741 12.8183 82.0958 12.884 82.1024 12.9525C82.109 13.021 82.1005 13.0905 82.0773 13.1562C81.9342 13.4334 81.7667 13.6977 81.5768 13.9459C81.3778 14.2113 81.1674 14.4686 80.9556 14.7273Z" fill="#FF0D1C"/>
<path d="M79.9823 16.6746C80.0959 16.2437 80.7206 15.8414 80.9312 15.9916L79.9823 16.6746Z" fill="#FF0D1C"/>
<path fill-rule="evenodd" clip-rule="evenodd" d="M47.2225 21.0652C47.3113 20.8703 47.403 20.6691 47.508 20.465C49.0301 20.9874 50.2826 20.4682 51.4195 19.7074C52.741 18.8163 54.1237 18.4737 55.71 18.8958C56.177 19.02 56.6469 19.136 57.1169 19.2521C58.1741 19.5131 59.2307 19.7741 60.251 20.1266C61.2253 20.4613 62.1609 20.901 63.093 21.3389C63.4521 21.5077 63.8106 21.6761 64.1706 21.8383C64.6741 22.0632 65.4124 22.533 66.1244 22.986C66.7097 23.3583 67.2771 23.7193 67.6811 23.9235C68.7077 24.4398 68.9841 24.4297 70.1138 24.3883C70.2055 24.3849 70.303 24.3815 70.4069 24.3779C70.5427 24.3735 70.7126 24.5797 70.8526 24.7499C70.8805 24.7836 70.9071 24.8159 70.932 24.8448C71.0671 25.0107 71.1897 25.1916 71.3123 25.3726C71.5705 25.7533 71.8287 26.1342 72.2029 26.3753C72.6054 26.637 73.1093 26.7615 73.6134 26.886C73.8353 26.9408 74.0574 26.9956 74.2707 27.0622C74.2919 26.8616 74.3282 26.6583 74.3646 26.455C74.4454 26.0025 74.5264 25.55 74.4401 25.1267C74.1553 23.8627 74.2186 22.5533 74.624 21.3177C74.7912 20.8253 74.9269 20.3229 75.0624 19.8207C75.226 19.2149 75.3896 18.6091 75.6086 18.021C76.2331 16.3565 75.66 15.0317 74.5213 13.75C74.1162 13.2503 73.8291 12.6781 73.6784 12.0702C73.2798 10.651 72.7645 9.18459 71.3761 8.46719C69.9048 7.70961 68.3302 7.118 66.7558 6.52639C66.5472 6.44803 66.3385 6.36957 66.13 6.29074L65.8741 6.68292C66.1891 6.7775 66.4938 6.88396 66.6901 6.95619C67.0697 7.0949 67.4273 7.26727 67.7824 7.43851C68.315 7.69538 68.8422 7.9496 69.43 8.08369C71.8061 8.62909 72.547 9.96291 73.2185 11.9178C73.5139 12.8338 73.9487 13.7066 74.5099 14.5103C75.1139 15.3402 75.256 16.0505 74.9681 17.1043C74.4779 18.9341 74.3123 19.8025 74.0235 21.6683C73.9269 22.288 73.9637 23.3319 73.9964 24.264C74.015 24.7919 74.0323 25.2839 74.0235 25.6427C73.9873 25.99 73.92 26.3338 73.8223 26.6708C73.6994 26.631 73.5637 26.6014 73.4283 26.5718C73.1322 26.5072 72.8366 26.4427 72.6767 26.2717C72.0802 25.632 71.5638 24.9326 71.1371 24.1867C71.1293 24.1732 71.1217 24.1599 71.1144 24.1467C70.9081 23.783 70.8298 23.645 70.2791 23.7231C69.7087 23.8041 68.9748 23.7698 68.5103 23.4968C66.4499 22.2869 64.3732 21.1937 62.0847 20.4333C61.4834 20.2341 60.812 19.9844 60.1191 19.7267C58.8632 19.2597 57.5369 18.7664 56.4301 18.5003C54.9263 18.1419 53.8068 17.9634 52.5243 18.1244C52.0551 18.1173 51.3934 18.497 50.8601 18.803C50.7052 18.8919 50.5611 18.9747 50.4357 19.0399C50.3671 19.0753 50.2989 19.1111 50.2307 19.1468C49.2928 19.6382 48.3808 20.1161 47.2632 19.7029C47.1468 19.9523 47.0454 20.1924 46.9479 20.4232C46.7511 20.8894 46.5703 21.3176 46.3143 21.7081C45.7047 22.6209 44.887 22.5694 44.3383 21.6236C43.4757 20.1361 43.2225 18.6528 44.0889 17.0364C44.3797 16.4921 44.5572 15.8996 44.735 15.3064C44.8712 14.8518 45.0075 14.3968 45.1952 13.9626C45.4112 13.4664 45.777 12.8873 46.2521 12.6513C46.8497 12.3666 47.3626 11.9519 47.7463 11.4434C48.1301 10.9347 48.3729 10.3475 48.4539 9.73283C48.6635 8.43994 49.6949 7.9611 51.0086 7.76157C51.8265 7.63701 52.2086 7.09622 52.6097 6.52874C52.7249 6.36571 52.8417 6.2005 52.9708 6.04227C54.3584 4.36625 55.9635 3.87516 58.1306 4.48148C58.5542 4.57512 58.9648 4.71307 59.3544 4.89261C59.6687 5.06121 59.9816 5.2202 60.295 5.36749L60.3715 5.00096C60.1602 4.91185 59.9521 4.81538 59.7478 4.71156C59.2186 4.46422 58.6579 4.27903 58.0787 4.1604C55.932 3.64045 54.1302 4.06894 52.6612 5.70714C52.1594 6.26613 51.4184 6.82012 50.6813 6.98872C49.1639 7.33375 48.2405 8.0009 47.7884 9.42637C47.5331 10.2263 46.9087 10.9754 46.2891 11.6128C45.602 12.2764 45.123 13.0987 44.9027 13.9926C44.7298 14.7082 44.5337 15.4593 44.1349 16.0808C42.9038 18.0113 42.9826 19.9658 43.9066 21.9174C44.0395 22.1596 44.2258 22.3739 44.4536 22.5464C44.6815 22.7187 44.9458 22.8457 45.2299 22.919C45.6189 22.9908 46.2515 22.586 46.5556 22.2344C46.8402 21.904 47.024 21.5007 47.2225 21.0652Z" fill="#FF0D1C"/>
<path d="M47.0489 19.2252C46.3464 18.3691 46.1271 17.4096 46.6748 16.5831C47.1973 15.7923 47.5807 15.1826 46.3977 14.4799L46.7029 14.3899L47.9402 15.0129L47.0622 13.618L47.1795 13.4863L48.2496 14.369C49.2053 13.5288 49.7709 12.4257 50.2086 11.2872C50.3225 10.9903 50.0288 10.5419 49.862 10.1822C49.7397 9.90954 49.5347 9.65919 49.521 9.30614C49.8852 9.69577 50.2496 10.0837 50.6446 10.5204L51.2227 9.82024L50.2494 8.72782C50.9891 9.05994 51.5083 9.91567 52.45 9.3366C53.1354 8.91566 53.7052 8.33065 54.3789 7.77864L53.6274 7.01616L54.743 7.26671L54.2884 6.21794C55.0356 7.38118 56.151 7.41664 57.395 7.23285C58.2339 7.11102 58.8469 6.8899 58.697 5.92497L59.1468 6.86519L59.3649 6.81305L59.3899 5.80361C59.5993 7.01239 60.5685 7.51442 61.6196 7.88237C62.5761 8.21382 63.5883 8.41061 64.5608 8.70453C65.8989 9.10774 67.223 9.54669 68.6533 10.0034C68.686 9.96621 68.8653 9.74632 69.039 9.52802C68.3432 10.9759 69.9266 11.4393 70.4076 12.4025L71.6431 11.5889C70.4908 12.819 70.4908 12.819 71.1555 14.218L72.5506 13.9032C70.7133 14.3343 71.6111 15.8089 71.3538 16.8358C70.9263 18.5474 72.4405 18.4295 73.3713 19.0529L71.6537 18.8689C71.3377 20.0805 72.5439 20.0731 73.3102 20.6931L71.8784 20.3796L72.3504 23.7442C71.9581 22.2167 71.4907 20.7031 71.1923 19.1604C70.8408 17.3412 70.8008 15.4804 70.3704 13.6853C69.8604 11.6254 68.2015 10.354 66.0489 9.69455C63.9297 9.04617 61.8698 8.57997 59.9278 7.49311C59.6756 7.38109 59.331 7.34506 59.0534 7.37854C58.0047 7.43615 57.0563 7.53866 56.022 7.70782C55.5148 7.80391 54.9143 8.09057 54.6229 8.45955C53.8971 9.38035 52.8964 9.81232 51.8097 10.2798C51.4031 10.4757 51.0793 10.7911 50.89 11.1759C50.2482 12.5596 49.318 13.7359 48.3145 14.9175C47.3112 16.0992 46.0562 17.4047 47.0489 19.2252Z" fill="#FF0D1C"/>
<path d="M54.6325 9.46324L53.0338 12.8709C53.1262 11.4809 53.6247 10.3747 54.6325 9.46324Z" fill="#FF0D1C"/>
<path d="M65.4979 18.1375C66.566 16.8299 67.7025 15.5547 67.8649 13.8272C67.9392 15.6629 66.9227 16.9991 65.4979 18.1375Z" fill="#FF0D1C"/>
<path d="M66.975 12.6162C66.9206 14.1344 66.3067 15.4481 65.257 16.6115C65.8284 15.2849 66.3976 13.9617 66.975 12.6162Z" fill="#FF0D1C"/>
<path d="M52.0932 13.2573C51.9595 12.0071 52.4873 11.0013 53.4438 10.1266L52.0932 13.2573Z" fill="#FF0D1C"/>
<path d="M55.5372 14.7371C55.6222 14.688 55.6979 14.6123 55.7934 14.593C56.1168 14.5406 56.1468 14.3619 56.1559 14.1313C56.1778 13.077 56.4844 12.0511 57.0534 11.1276C57.1939 10.9028 57.3677 10.694 57.571 10.506C58.1999 9.93151 58.9376 10.0605 59.2095 10.8348C59.3775 11.3642 59.4579 11.9066 59.4484 12.447C59.4329 13.2903 59.2409 14.1183 58.8809 14.8946L59.5362 15.4914L59.4522 15.5531C59.0733 15.3148 58.7257 15.0204 58.31 14.8541C57.8798 14.685 57.4154 14.5906 56.9472 14.577C56.489 14.5685 56.0344 14.7157 55.5816 14.7857L55.5372 14.7371ZM58.7175 10.4715C58.6713 10.4275 58.6148 10.3916 58.5515 10.3662C58.4883 10.3409 58.42 10.3266 58.3509 10.3244C58.2819 10.3221 58.2137 10.3319 58.1509 10.3531C58.0883 10.3744 58.0324 10.4066 57.987 10.4476C57.7536 10.6096 57.5505 10.7988 57.3837 11.0098C56.9519 11.5882 56.6655 12.2357 56.5403 12.9163C56.4326 13.4042 56.385 13.9032 56.304 14.4332L56.837 14.3782L57.2453 12.5312C57.286 12.3467 57.3858 12.2477 57.6515 12.2758C57.7969 12.2837 57.9412 12.2641 58.0729 12.2186C58.3141 12.1507 58.348 12.0145 58.1504 11.8675C57.9841 11.7574 57.8095 11.6558 57.6282 11.5637C57.8879 11.1368 58.0845 10.6688 58.7175 10.4715Z" fill="#FF0D1C"/>
<path d="M60.5839 15.6708C60.6744 15.6227 60.7556 15.548 60.8569 15.5283C61.1393 15.4806 61.1977 15.3366 61.2024 15.1175C61.2123 14.0984 61.4917 13.1039 62.0214 12.2028C62.2054 11.8946 62.4447 11.6122 62.7313 11.3648C63.2624 10.9146 63.8771 11.0406 64.1918 11.6386C64.5004 12.2122 64.5368 12.8138 64.5046 13.4149C64.4571 14.2478 64.2624 15.0648 63.9269 15.8405L64.5697 16.4333L64.4539 16.5448C63.9567 16.0845 63.4041 15.7115 62.6797 15.5649C61.9555 15.4182 61.2828 15.5539 60.621 15.7783L60.5839 15.6708ZM63.7635 11.4173C63.7285 11.3783 63.6845 11.3452 63.6341 11.32C63.5838 11.2949 63.5282 11.2783 63.4709 11.2712C63.4135 11.264 63.3555 11.2666 63.3006 11.2786C63.2455 11.2907 63.1946 11.312 63.151 11.3412C62.9037 11.487 62.686 11.6634 62.505 11.8644C62.0213 12.4714 61.7053 13.1624 61.5779 13.8916C61.4718 14.3719 61.428 14.8624 61.3512 15.3824L61.8824 15.3271C62.026 14.6772 62.1588 14.0763 62.2918 13.474C62.332 13.2926 62.4288 13.1899 62.6981 13.2187C62.8439 13.2263 62.9882 13.2062 63.1199 13.1599C63.3629 13.0924 63.395 12.956 63.1971 12.8105C63.033 12.7016 62.8608 12.6015 62.6815 12.5109C62.9277 12.0768 63.1375 11.6175 63.7635 11.4173Z" fill="#FF0D1C"/>
<path d="M58.0019 15.4485C58.2244 16.2739 58.7596 16.8807 59.8158 16.9533C60.2768 16.9922 60.7356 16.9256 61.1413 16.7606C61.547 16.5958 61.8836 16.3392 62.1136 16.0195C62.1205 16.0657 62.1499 16.1222 62.1303 16.1588C61.886 16.6102 61.65 17.0678 61.3812 17.51C61.081 18.0082 60.6195 18.3754 59.9074 18.4496C59.5366 18.4821 59.1575 18.4032 58.8394 18.2272C58.5212 18.0513 58.285 17.7901 58.1742 17.4911C58.0539 17.1428 57.9752 16.7872 57.9391 16.4295C57.8951 16.1641 57.8837 15.8972 57.8644 15.6318C57.8677 15.5743 57.8802 15.5178 57.9016 15.4638L58.0019 15.4485ZM58.5949 17.7466C59.044 18.2954 59.8726 18.4694 60.2766 18.1207C60.0772 17.724 59.9269 17.6726 59.4303 17.8288C59.1168 17.5099 58.9703 17.4932 58.5949 17.7466Z" fill="#FF0D1C"/>
<path d="M58.6943 8.78667C58.8742 8.85758 59.0466 8.94169 59.2091 9.03806C59.2436 9.07455 59.2666 9.11717 59.2761 9.16206C59.2854 9.20694 59.2809 9.25249 59.2628 9.29436C59.2231 9.32378 59.1746 9.34405 59.1217 9.3531C59.0688 9.36215 59.0132 9.3597 58.9604 9.34612C58.7398 9.22288 58.4776 9.16442 58.2186 9.18045C57.9596 9.19657 57.7197 9.28634 57.5397 9.43448C57.4806 9.47757 57.3465 9.44778 57.2449 9.45202C57.2329 9.3763 57.2387 9.30001 57.2622 9.22759C57.4743 8.89558 58.1193 8.71293 58.6943 8.78667Z" fill="#FF0D1C"/>
<path d="M64.0789 9.81779C64.6897 9.96169 65.1054 10.2053 65.2692 10.6604C65.2984 10.7433 65.2275 10.8493 65.1954 10.9425C65.1011 10.8876 64.973 10.8481 64.9228 10.7737C64.8174 10.5875 64.6416 10.4324 64.4231 10.3324C64.2045 10.2322 63.9553 10.1929 63.7142 10.2202C63.614 10.2263 63.4968 10.1113 63.3882 10.0523C63.4621 9.9763 63.5201 9.86013 63.6257 9.83816C63.7739 9.8143 63.9264 9.80742 64.0789 9.81779Z" fill="#FF0D1C"/>
<path d="M59.2078 18.6978L59.9367 18.7725C59.9252 18.8081 59.9051 18.8411 59.8778 18.8697C59.8504 18.8983 59.8162 18.9219 59.7771 18.9392C59.738 18.9565 59.6946 18.9671 59.6497 18.9704C59.6049 18.9737 59.5591 18.9695 59.5153 18.9584C59.3236 18.9225 59.174 18.851 59.2078 18.6978Z" fill="#FF0D1C"/>
<path d="M63.1218 3.91976C63.4105 3.59302 63.6748 3.24865 63.9129 2.88901C64.2384 2.40612 64.5297 1.90456 64.7854 1.38734C64.8709 1.21601 64.9499 1.05401 64.8959 0.846461C64.8418 0.638915 65.0112 0.401383 65.2365 0.320288C65.2734 0.31067 65.3068 0.292094 65.3334 0.26654C65.3599 0.24108 65.3787 0.20949 65.3876 0.175166C65.3989 0.142068 65.4177 0.111422 65.4424 0.0853017C65.4673 0.0591817 65.4978 0.0380603 65.532 0.0234444C65.5662 0.00873418 65.6034 0.000813202 65.641 5.88328e-05C65.6788 -0.000695536 65.7163 0.00581117 65.7511 0.0192012C65.7859 0.032497 65.8173 0.0523931 65.8434 0.0774759C65.8694 0.102653 65.8895 0.132544 65.9023 0.165171C65.9151 0.197891 65.9204 0.232687 65.9178 0.267294C65.9153 0.301995 65.9048 0.335752 65.8873 0.366587C65.871 0.39497 65.8625 0.426654 65.8627 0.458808C65.863 0.490869 65.8719 0.522458 65.8887 0.550653C65.9467 0.6656 65.9564 0.796295 65.9158 0.917371C65.8751 1.03854 65.7872 1.14151 65.669 1.2062C65.6065 1.23977 65.558 1.29144 65.5311 1.35321C65.1359 2.35369 64.8256 3.38076 64.6028 4.42537C64.5976 4.45253 64.5953 4.48082 64.5844 4.55437C64.836 4.31335 65.0675 4.05508 65.2766 3.78171C65.5938 3.38133 65.8818 2.96209 66.1385 2.52653C66.2235 2.41064 66.2579 2.26958 66.2349 2.13143C66.2233 2.06731 66.2289 2.00159 66.2513 1.93992C66.2736 1.87825 66.3119 1.82252 66.3628 1.77763C66.514 1.62714 66.7496 1.59093 66.9051 1.43345C66.969 1.36716 67.1065 1.40262 67.1922 1.48296C67.2342 1.51445 67.2632 1.5583 67.2742 1.60724C67.2852 1.65609 67.2777 1.70691 67.2528 1.75133C67.2101 1.83223 67.1985 1.92398 67.2196 2.01177C67.2364 2.10937 67.2201 2.20932 67.1728 2.29796C67.1254 2.38651 67.0494 2.45949 66.9552 2.50664C66.8881 2.53219 66.8315 2.5767 66.7935 2.63375C66.3767 3.46648 65.9393 4.29251 65.6553 5.17616C65.6321 5.2252 65.6272 5.27989 65.6413 5.33175C65.7684 5.2367 65.8796 5.12505 65.9715 5.0003C66.3729 4.55249 66.763 4.09609 67.1351 3.62735C67.1614 3.59736 67.1798 3.56219 67.1892 3.52456C67.1984 3.48694 67.1982 3.44781 67.1885 3.41028C67.1735 3.34729 67.1724 3.28213 67.185 3.21876C67.1977 3.1553 67.2241 3.09486 67.2624 3.04101C67.3008 2.98708 67.3506 2.94078 67.4087 2.90485C67.4669 2.86892 67.5322 2.84403 67.6009 2.83168C67.6655 2.82159 67.7241 2.79094 67.7666 2.74502C67.7865 2.71786 67.8124 2.69485 67.8426 2.67741C67.8727 2.66006 67.9064 2.64865 67.9417 2.64403C67.977 2.63941 68.0128 2.64167 68.0471 2.65063C68.0813 2.65949 68.1131 2.67505 68.1405 2.69598C68.1715 2.71173 68.1985 2.73323 68.2197 2.75926C68.241 2.78528 68.256 2.81518 68.2639 2.84695C68.2717 2.87873 68.2721 2.91164 68.265 2.94361C68.2581 2.97557 68.2438 3.00575 68.2232 3.03225C68.1843 3.09448 68.169 3.1668 68.1795 3.238C68.1941 3.33607 68.1742 3.43593 68.1228 3.52296C68.0713 3.6099 67.9908 3.6794 67.8933 3.72126C67.7948 3.767 67.7124 3.83772 67.6559 3.92513C66.8253 5.08356 66.0743 6.28867 65.4071 7.53356C65.3789 7.59618 65.336 7.65219 65.302 7.70933C65.2563 7.77053 65.2268 7.84078 65.2159 7.91433C65.2048 7.98788 65.2126 8.06285 65.2385 8.13319C65.3332 8.39081 65.2879 8.68341 64.8431 8.74951C64.3739 8.80647 63.897 8.77375 63.4422 8.65361C62.3123 8.39722 61.2397 7.9612 60.2725 7.36515C60.0307 7.22493 59.8138 7.05115 59.6294 6.85001C59.3802 6.56335 59.4971 6.20314 59.8871 6.10526C59.9365 6.09715 59.9822 6.07537 60.0179 6.04265C60.0537 6.01002 60.0776 5.96806 60.0867 5.92252C60.5642 4.48554 61.089 3.05799 61.4031 1.57782C61.4179 1.52907 61.4203 1.47768 61.4097 1.42789C61.3992 1.3781 61.3763 1.33133 61.3426 1.29116C61.2658 1.193 61.2342 1.07089 61.2543 0.951318C61.2745 0.83175 61.3449 0.724253 61.4505 0.652211C61.5236 0.601762 61.5803 0.533775 61.6142 0.455698C61.6215 0.427315 61.6351 0.400534 61.6541 0.377148C61.673 0.353669 61.697 0.334055 61.7244 0.319439C61.7518 0.304729 61.7823 0.295394 61.8137 0.291905C61.8452 0.288416 61.8771 0.290868 61.9075 0.299166C61.9741 0.310576 62.0332 0.345466 62.0724 0.396386C62.1115 0.447211 62.1276 0.510107 62.1174 0.571776C62.1095 0.630806 62.124 0.690495 62.1584 0.740754C62.225 0.83373 62.2536 0.945471 62.2388 1.05599C62.2242 1.1665 62.1673 1.26862 62.0783 1.34406C62.0278 1.38319 61.9915 1.43562 61.9742 1.49418C61.7594 2.35369 61.6224 3.228 61.5644 4.10835C61.5624 4.1389 61.5651 4.16908 61.5653 4.19727C61.6398 4.21924 61.6456 4.1621 61.6728 4.13042C62.2014 3.53588 62.4653 2.82159 62.7356 2.11088C62.8011 1.93728 62.8621 1.76302 62.9256 1.58867C62.9891 1.41422 63.0495 1.27532 62.9336 1.09059C62.8177 0.905868 62.9459 0.663337 63.145 0.549522C63.2247 0.50888 63.287 0.444288 63.3214 0.366494C63.3308 0.33679 63.347 0.309256 63.3688 0.285587C63.3905 0.261919 63.4174 0.242682 63.4476 0.229198C63.4779 0.215713 63.5108 0.20817 63.5445 0.207038C63.5781 0.206001 63.6117 0.211376 63.6429 0.222975C63.6773 0.230141 63.7096 0.243909 63.7379 0.263428C63.7661 0.283041 63.7895 0.307841 63.8065 0.336318C63.8236 0.364701 63.8339 0.396197 63.8368 0.428634C63.8397 0.460978 63.8351 0.493604 63.8234 0.52425C63.8149 0.54971 63.812 0.576584 63.8149 0.603081C63.8178 0.629579 63.8264 0.655322 63.8404 0.678707C63.9618 0.929252 63.912 1.13812 63.6805 1.31615C63.6271 1.35161 63.5893 1.40328 63.5736 1.46203C63.3872 2.22545 63.1881 2.98613 63.1005 3.76464C63.0925 3.79048 63.0903 3.81754 63.094 3.84423C63.0977 3.87082 63.1071 3.89656 63.1218 3.91976ZM62.3686 7.48434C62.5685 7.56091 62.7564 7.64587 62.9563 7.70943C63.5561 7.89491 64.1633 8.0454 64.8065 8.00985C64.8684 8.00995 64.9289 7.99269 64.9797 7.96025C65.0306 7.92782 65.0695 7.8818 65.0912 7.82843C65.7849 6.50649 66.5693 5.2267 67.4397 3.99671C67.5833 3.79793 67.5775 3.80547 67.3692 3.67487C67.278 3.61726 67.2535 3.64036 67.2063 3.70863C67.114 3.84282 67.0163 3.97389 66.9118 4.10128C66.3337 4.84207 65.7456 5.57362 65.0012 6.18381C64.6869 6.44133 64.4315 6.36297 64.3256 5.9822C64.2563 5.68857 64.2464 5.38569 64.2963 5.08875C64.4537 3.83367 64.8612 2.63988 65.3281 1.46014C65.3517 1.40771 65.4582 1.307 65.3267 1.28682C65.2175 1.26881 65.0899 1.07626 64.9607 1.31841C64.5379 2.13577 64.0517 2.92399 63.5057 3.67695C63.1456 4.17615 62.7626 4.66121 62.2702 5.06112C62.1184 5.18446 61.9518 5.29667 61.7328 5.23114C61.5138 5.16569 61.4727 4.98681 61.4341 4.81001C61.3861 4.5506 61.3752 4.28648 61.4018 4.02443C61.4734 3.21989 61.6115 2.42149 61.8151 1.63628C61.8271 1.58904 61.9061 1.48654 61.7784 1.484C61.6924 1.48239 61.5557 1.38253 61.5133 1.58555C61.2037 3.06629 60.7085 4.50081 60.2024 5.93119C60.1304 6.13477 60.1594 6.25491 60.3231 6.39098C60.9264 6.88773 61.6366 7.20513 62.3686 7.48434ZM62.1651 8.07812C62.5794 8.24408 63.007 8.38044 63.444 8.48586C63.9013 8.59732 64.3629 8.68879 64.8393 8.60986C65.0919 8.5695 65.1712 8.44861 65.1325 8.22004C65.1174 8.13649 65.0952 8.09227 64.9794 8.11499C64.6653 8.1678 64.3433 8.16742 64.0292 8.11386C63.1966 7.98213 62.3922 7.72838 61.6466 7.36223C61.042 7.08104 60.4501 6.77448 60.0252 6.26396C60.0153 6.24859 60.0001 6.23652 59.9821 6.22964C59.9641 6.22275 59.9442 6.22134 59.9253 6.22568C59.8745 6.23775 59.8273 6.26047 59.7877 6.29215C59.7481 6.32384 59.717 6.36354 59.6968 6.40814C59.6766 6.45284 59.668 6.50111 59.6716 6.54939C59.6752 6.59758 59.6909 6.64445 59.7175 6.68612C59.8151 6.81012 59.9349 6.918 60.0716 7.00532C60.71 7.45285 61.4284 7.78081 62.1651 8.07812ZM65.3493 5.17889C65.3489 5.18021 65.3485 5.18144 65.3481 5.18276C65.2601 5.4532 65.0993 5.69149 65.0134 5.95948C65.2455 5.76221 65.5086 5.58437 65.5003 5.24962C65.5056 5.20087 65.5189 5.15325 65.5395 5.10808C65.799 4.34352 66.179 3.61867 66.5406 2.89005C66.5822 2.79792 66.6652 2.71522 66.6696 2.62517C66.6764 2.49061 66.4877 2.55548 66.4226 2.47118C66.3464 2.36746 66.3008 2.43205 66.2579 2.50636C66.1904 2.62451 66.12 2.74153 66.0466 2.85742C65.6467 3.48392 65.252 4.11674 64.7193 4.65791C64.5247 4.85508 64.5108 5.06216 64.4928 5.33005C64.4926 5.3326 64.4925 5.33515 64.4922 5.33769C64.6503 5.1822 64.7344 5.0168 64.8887 4.90855C64.7852 5.09912 64.671 5.2846 64.5465 5.46423C64.4349 5.61803 64.4632 5.76815 64.5004 5.96589V5.96608L65.6971 4.01613C65.6239 4.21208 65.5334 4.40208 65.4266 4.58426C65.165 5.05216 64.8989 5.51714 64.6393 5.98579C64.6127 6.04472 64.5174 6.12591 64.614 6.17693C64.7364 6.24331 64.7445 6.10592 64.781 6.05085C64.978 5.76711 65.1618 5.47395 65.3481 5.18276C65.3488 5.18163 65.3496 5.1804 65.3503 5.17927L65.3493 5.17889ZM61.8993 5.07781C61.946 5.07602 61.9906 5.05914 62.0251 5.0301C62.0596 5.00105 62.0819 4.96173 62.0882 4.91911C62.2263 4.51769 62.3682 4.11703 62.5136 3.71702C62.5886 3.50919 62.6686 3.30335 62.7456 3.09637L62.7766 3.10825L62.2627 4.80774C62.3427 4.7738 62.4106 4.71967 62.4586 4.65168C62.6018 4.40953 62.6285 4.12712 62.7587 3.87242C62.8026 4.03499 62.6919 4.18162 62.7187 4.3506C62.8634 4.22245 62.9648 4.10147 62.9402 3.91174C62.9351 3.78963 62.9451 3.66733 62.9699 3.54729C63.0636 2.88015 63.23 2.22573 63.393 1.57113C63.4057 1.51983 63.5042 1.42365 63.3492 1.40856C63.2508 1.3979 63.1407 1.32002 63.0927 1.4939C63.0181 1.76019 62.9121 2.01866 62.8158 2.27872C62.5327 3.04611 62.2047 3.79095 61.6185 4.41198C61.5115 4.52429 61.5924 4.6515 61.6067 4.80162C61.6924 4.71562 61.686 4.62575 61.7627 4.58059C61.7877 4.74353 61.654 4.89422 61.7462 5.05593C61.8742 4.80369 61.9485 4.53514 62.1164 4.30355L61.8993 5.07781ZM65.8021 0.900869C65.9085 0.665129 65.8359 0.566118 65.4137 0.384976C65.2958 0.334433 65.1071 0.456546 65.0317 0.633917C64.9891 0.727459 64.987 0.832504 65.0256 0.92746C65.0641 1.02251 65.1405 1.1004 65.2392 1.14538C65.3492 1.18074 65.4699 1.17499 65.5753 1.12935C65.6807 1.08371 65.7625 1.00186 65.8031 0.901246L65.8021 0.900869ZM67.1041 2.1716C67.3024 1.86212 66.8018 1.94793 66.7331 1.765C66.7308 1.75302 66.7256 1.74171 66.7178 1.73199C66.7099 1.72219 66.6996 1.71427 66.6878 1.7088C66.6761 1.70342 66.6631 1.7005 66.6499 1.70059C66.6368 1.70059 66.6238 1.70342 66.612 1.70889C66.5292 1.74001 66.4574 1.79187 66.4049 1.85863C66.3525 1.9254 66.3213 2.00432 66.3149 2.08645C66.3171 2.17255 66.3507 2.25543 66.4102 2.32182C66.4699 2.38811 66.552 2.43403 66.6434 2.45204C66.8249 2.48372 66.9972 2.39527 67.1051 2.17208L67.1041 2.1716ZM63.7899 1.06325C63.8099 1.01996 63.8202 0.973383 63.8203 0.926329C63.8204 0.879276 63.8103 0.8326 63.7905 0.789223C63.7694 0.73472 63.2163 0.601668 63.1704 0.641366C63.1059 0.6904 63.0593 0.756407 63.0367 0.830524C63.0141 0.904735 63.0167 0.983473 63.044 1.05627C63.0654 1.13124 63.1142 1.19715 63.1821 1.24288C63.2502 1.28852 63.3332 1.31125 63.4173 1.30719C63.4998 1.30974 63.581 1.28729 63.6483 1.24326C63.7157 1.19913 63.7654 1.13595 63.7899 1.06325ZM68.0779 3.38265C68.0821 3.35512 68.1195 3.29052 68.0979 3.23696C68.0332 3.06091 67.7325 3.14776 67.6829 2.93323C67.6734 2.89184 67.587 2.93003 67.5403 2.94776C67.4545 2.98189 67.3838 3.04186 67.3398 3.11787C67.2959 3.19387 67.2814 3.28147 67.2988 3.36605C67.3075 3.443 67.3449 3.51466 67.4047 3.56888C67.4645 3.6231 67.5429 3.65648 67.6265 3.66327C67.8187 3.68402 67.986 3.58614 68.0769 3.38227L68.0779 3.38265ZM62.1116 1.13001C62.1471 1.0244 62.1363 0.910299 62.0817 0.811853C62.0175 0.69436 61.932 0.808553 61.8565 0.791485C61.8049 0.78413 61.7542 0.771966 61.7053 0.755182C61.5419 0.680688 61.4589 0.706148 61.3871 0.860134C61.345 0.947075 61.3409 1.04561 61.3754 1.13538C61.4099 1.22515 61.4805 1.29927 61.5726 1.34255C61.6231 1.36132 61.677 1.37075 61.7315 1.37018C61.7859 1.36962 61.8397 1.35915 61.8897 1.33935C61.9398 1.31954 61.985 1.29078 62.0229 1.25486C62.0608 1.21884 62.0907 1.17631 62.1106 1.12963L62.1116 1.13001ZM63.7641 0.523119C63.7847 0.410058 63.7572 0.317554 63.6374 0.28455C63.6117 0.274366 63.584 0.26918 63.5561 0.269369C63.5281 0.269557 63.5005 0.27512 63.475 0.285681C63.4495 0.296148 63.4267 0.311519 63.408 0.330661C63.3892 0.349803 63.3751 0.372246 63.3663 0.396763C63.3537 0.418922 63.3468 0.443439 63.3461 0.468427C63.3455 0.493416 63.351 0.518215 63.3624 0.540941C63.3738 0.563666 63.3907 0.583657 63.4117 0.599499C63.4328 0.615246 63.4576 0.626279 63.484 0.631842C63.5372 0.647684 63.5946 0.645422 63.646 0.625431C63.6974 0.60544 63.7393 0.569136 63.7641 0.523119ZM65.8551 0.305577C65.8696 0.203172 65.8593 0.0987859 65.7418 0.05805C65.7161 0.0460744 65.6877 0.0393801 65.6589 0.0384371C65.6301 0.0375885 65.6014 0.0424911 65.5749 0.052958C65.5484 0.0634248 65.5247 0.0790794 65.5055 0.0988816C65.4862 0.118684 65.472 0.142162 65.4637 0.167622C65.4169 0.286813 65.5084 0.354234 65.6057 0.395819C65.703 0.437403 65.7943 0.393557 65.8509 0.301901L65.8551 0.305577ZM66.828 1.58857C66.8156 1.61007 66.8084 1.63383 66.8072 1.65816C66.8059 1.68249 66.8105 1.70672 66.8206 1.72926C66.8308 1.7517 66.8462 1.77188 66.8659 1.7882C66.8855 1.80451 66.9088 1.81658 66.9341 1.82365C66.9592 1.83355 66.9864 1.83827 67.0137 1.83761C67.041 1.83695 67.0678 1.83082 67.0923 1.81969C67.1169 1.80856 67.1385 1.79272 67.1557 1.77311C67.1729 1.75359 67.1854 1.73086 67.1921 1.70644C67.203 1.68541 67.2089 1.6625 67.2096 1.63921C67.2102 1.61592 67.2056 1.59281 67.1961 1.57122C67.1865 1.54972 67.1722 1.5302 67.1539 1.51408C67.1357 1.49795 67.1141 1.48541 67.0904 1.4774C66.973 1.43355 66.8831 1.4822 66.828 1.58857ZM67.9245 3.05497C67.9482 3.0644 67.9737 3.06921 67.9995 3.0693C68.0253 3.0694 68.0509 3.06468 68.0746 3.05535C68.0984 3.04611 68.1199 3.03253 68.1379 3.01546C68.1558 2.99839 68.1698 2.97812 68.1791 2.95596C68.1998 2.91107 68.2007 2.86053 68.1811 2.81518C68.1615 2.76991 68.1234 2.73351 68.0748 2.71409C67.9547 2.65836 67.8625 2.71701 67.8145 2.8131C67.8011 2.83583 67.7935 2.861 67.7923 2.88684C67.791 2.91258 67.7961 2.93832 67.8072 2.96209C67.8181 2.98585 67.8349 3.00697 67.856 3.02395C67.8772 3.04092 67.9021 3.05327 67.9293 3.06006L67.9245 3.05497ZM62.0331 0.592332C62.0493 0.549427 62.0477 0.502469 62.0284 0.460601C62.0092 0.418734 61.9738 0.38488 61.929 0.365738C61.9076 0.353385 61.8835 0.345653 61.8583 0.343202C61.8332 0.340656 61.8078 0.343391 61.784 0.351217C61.7601 0.359044 61.7385 0.371679 61.7208 0.388275C61.703 0.404777 61.6896 0.424863 61.6814 0.446928C61.6677 0.466542 61.6587 0.488606 61.655 0.511709C61.6514 0.534812 61.6532 0.558386 61.6603 0.580828C61.6675 0.603176 61.6798 0.623921 61.6964 0.641555C61.7129 0.659188 61.7335 0.673333 61.7566 0.683045C61.8705 0.739623 61.9624 0.697096 62.0339 0.595916L62.0331 0.592332Z" fill="#FF0D1C"/>
<path d="M64.3764 7.82777C63.2884 7.82796 61.4245 7.09575 60.6707 6.36863C61.0497 6.56778 61.4311 6.77976 61.8278 6.95543C62.24 7.13808 62.6599 7.3065 63.0887 7.45238C63.5175 7.59825 63.9396 7.71772 64.3764 7.82777Z" fill="#FF0D1C"/>
<path d="M64.5715 2.92324C64.3052 3.77634 64.1044 4.64556 63.9706 5.52459C63.8847 4.60077 64.2353 3.76417 64.5715 2.92324Z" fill="#FF0D1C"/>
<path d="M65.4466 5.97636C65.3202 6.20314 65.1211 6.38853 64.8763 6.50743C64.5019 6.66962 64.1736 6.45425 64.1379 6.00106C64.1753 6.06075 64.1985 6.09017 64.2144 6.12214C64.3837 6.45595 64.6223 6.51705 64.9657 6.32243C65.1396 6.22275 65.2768 6.0798 65.4466 5.97636Z" fill="#FF0D1C"/>
<path d="M61.127 3.73994C60.9611 4.39511 60.7485 5.03953 60.4907 5.66905C60.6499 5.01218 60.8625 4.36729 61.127 3.73994Z" fill="#FF0D1C"/>
<path d="M61.9887 5.42746C61.9078 5.4682 61.8146 5.48357 61.7233 5.4714C61.632 5.45924 61.5475 5.42011 61.4824 5.35994C61.277 5.20454 61.1958 4.90138 61.2824 4.58247C61.3902 4.96928 61.4144 5.3987 61.9887 5.42746Z" fill="#FF0D1C"/>
<path d="M63.2481 4.34164C63.1194 4.68054 62.8625 4.9655 62.5246 5.14448C62.7382 4.85678 62.9804 4.58794 63.2481 4.34164Z" fill="#FF0D1C"/>
<path d="M65.1511 7.35553C65.3344 6.95487 65.5558 6.56986 65.8123 6.20493C65.6289 6.6056 65.4077 6.99061 65.1511 7.35553Z" fill="#FF0D1C"/>
<path d="M64.662 6.746C64.444 6.84718 64.3249 6.81239 64.1978 6.60824C64.3291 6.70489 64.4942 6.75392 64.662 6.746Z" fill="#FF0D1C"/>
<path d="M61.2751 5.35938C61.3556 5.44094 61.4058 5.49583 61.4623 5.54448C61.519 5.59314 61.5714 5.6251 61.6565 5.68574C61.4307 5.65867 61.3154 5.57136 61.2751 5.35938Z" fill="#FF0D1C"/>
<path d="M64.4066 8.41504C62.8487 8.30547 61.3699 7.73913 60.1868 6.7989C61.4507 7.61126 62.8901 8.16252 64.4066 8.41504Z" fill="#FF0D1C"/>
<path d="M65.1133 0.917843C65.3752 1.08833 65.4953 1.07928 65.7005 0.892194C65.6515 1.03967 65.5712 1.10832 65.4319 1.11332C65.362 1.12209 65.2911 1.1071 65.2325 1.07107C65.1737 1.03515 65.1314 0.980644 65.1133 0.917843Z" fill="#FF0D1C"/>
<path d="M66.9919 2.21507C66.9106 2.36642 66.8062 2.4031 66.6826 2.38066C66.606 2.37444 66.5349 2.34105 66.4845 2.28749C66.4342 2.23393 66.4083 2.16444 66.4125 2.09362C66.5722 2.31889 66.7495 2.35982 66.9919 2.21507Z" fill="#FF0D1C"/>
<path d="M63.1198 0.955656C63.272 1.19762 63.3884 1.22808 63.6973 1.08399C63.6686 1.1434 63.6181 1.19168 63.5548 1.22044C63.4915 1.2492 63.4192 1.25655 63.3505 1.24137C63.282 1.2261 63.2212 1.18913 63.1791 1.13699C63.1369 1.08475 63.116 1.02063 63.1198 0.955656Z" fill="#FF0D1C"/>
<path d="M67.9125 3.52343C67.7255 3.62348 67.5956 3.61801 67.4811 3.52343C67.4297 3.48449 67.3938 3.43093 67.3791 3.37115C67.3645 3.31136 67.372 3.24875 67.4003 3.1933C67.4845 3.48477 67.5639 3.54003 67.9125 3.52343Z" fill="#FF0D1C"/>
<path d="M62.0757 1.02232C62.0196 1.21686 61.9143 1.32548 61.7285 1.31379C61.6929 1.31445 61.6575 1.30861 61.6243 1.29672C61.5911 1.28475 61.5608 1.26683 61.5351 1.24411C61.5095 1.22129 61.489 1.19413 61.4747 1.16396C61.4605 1.13388 61.4529 1.10153 61.4523 1.06872C61.6889 1.30285 61.83 1.29427 62.0757 1.02232Z" fill="#FF0D1C"/>
</svg>
