<svg width="196" height="160" viewBox="0 0 196 160" fill="none" xmlns="http://www.w3.org/2000/svg">
<path fill-rule="evenodd" clip-rule="evenodd" d="M76.0226 0.244483C74.172 0.512495 69.8059 2.05116 66.3193 3.66309C61.1269 6.06364 58.6992 6.77127 52.8924 7.57788C48.9936 8.11904 44.0256 9.12489 41.8527 9.81389C35.4466 11.8436 29.5428 17.1833 25.9161 24.2281C23.4771 28.9655 20.1851 32.6245 14.939 36.4294C8.24097 41.2877 6.79351 42.7602 4.98638 46.5567C3.02878 50.6694 2.98411 53.1272 4.71035 61.7544C6.2955 69.6758 6.04091 71.721 2.83162 76.8563C-0.308623 81.881 -0.717748 87.0845 1.4666 94.2366C3.93985 102.335 6.44777 103.769 12.9727 100.815C20.4654 97.4225 33.5771 96.6879 45.0053 99.0203C48.4958 99.7331 57.538 101.211 65.099 102.306C81.478 104.677 88.0415 106.154 95.9769 109.255C107.025 113.572 116.784 119.276 128.933 128.516C135.068 133.182 136.286 134.201 154.591 149.988C166.441 160.208 168.337 161.233 171.367 159.053C174.029 157.138 177.109 151.622 178.002 147.168C178.964 142.368 179.613 141.08 183.554 136.148C187.197 131.589 188.543 127.479 188.536 120.936C188.531 116.798 188.813 115.501 190.295 112.858C196.131 102.445 196.331 100.72 192.687 92.203C190.542 87.1892 190.295 86.0433 190.439 81.7512C190.528 79.1 190.639 75.4847 190.686 73.7172C190.805 69.26 188.77 65.5393 182.139 58.0838C179.124 54.6941 175.44 49.7195 173.953 47.0291C168.14 36.5123 162.677 31.7768 151.383 27.4654C144.824 24.9614 142.753 23.5693 140.349 20.0504C134.181 11.0235 128.446 8.62358 111.342 7.91145L100.473 7.45897L93.0019 4.06672C84.7931 0.338962 81.1022 -0.49207 76.0226 0.244483ZM83.1913 3.37708C84.5572 3.74729 88.5249 5.34894 92.0079 6.9358C95.4908 8.52267 99.4144 10.0697 100.726 10.3724C102.039 10.6751 102.776 10.9521 102.365 10.9881C101.955 11.0235 99.6238 12.386 97.1859 14.016C91.4109 17.8774 89.4917 18.0869 82.0392 15.6703C75.9916 13.7094 74.3287 13.4002 70.8392 13.5866C69.1425 13.6773 69.3759 13.854 72.4873 14.8354C74.4806 15.464 77.3722 16.6113 78.9131 17.3851C80.4546 18.1589 83.4831 19.2335 85.6436 19.7734C90.7953 21.0614 93.5768 20.33 99.0149 16.2597C105.529 11.384 106.658 10.9746 113.528 10.9984C120.818 11.0235 127.824 12.6727 131.79 15.2975C133.336 16.3207 135.867 18.9263 137.414 21.0865L140.226 25.0154L135.509 25.5379C126.778 26.5052 123.512 26.3111 121.453 24.7018C116.747 21.0235 112.742 18.7669 109.784 18.1294C108.015 17.7482 106.43 17.5702 106.262 17.7341C106.094 17.8986 107.245 18.6712 108.821 19.4508C110.397 20.231 113.466 22.3192 115.642 24.0912C120.145 27.7598 123.96 29.6565 126.875 29.677C127.979 29.6847 131.727 28.9694 135.204 28.087L141.527 26.4834L146.043 28.4649C158.814 34.0674 161.303 35.4775 164.499 38.9187C167.65 42.3128 175.679 55.2102 173.46 53.3149C171.56 51.6914 168.445 50.3725 163.85 49.2465C157.529 47.6975 154.15 45.3458 150.435 39.9091C148.695 37.3633 146.538 34.8175 145.641 34.2532L144.011 33.2261L145.392 35.4756C146.151 36.7128 147.301 39.1083 147.948 40.7986C149.403 44.6035 153.354 48.6635 157.147 50.2491C158.725 50.9092 162.804 52.0378 166.212 52.7583C169.619 53.4781 173.023 54.295 173.775 54.5733C175.849 55.3394 184.92 65.4461 186.533 68.7863C187.781 71.3707 187.9 72.3791 187.508 77.0388L187.06 82.3476L184.685 80.0988C183.378 78.8622 180.772 76.9919 178.893 75.9436C174.981 73.7609 170.341 69.1308 169.055 66.1268C168.573 64.9988 167.795 62.1966 167.326 59.8988C166.624 56.4635 166.39 56.0065 166.008 57.328C163.855 64.7732 167.201 71.9491 175.313 77.2785C176.582 78.1121 177.905 79.2427 178.253 79.7909C179.094 81.1136 178.805 87.2876 177.604 93.6549C176.44 99.8282 176.954 103.351 180.025 110.225C185.235 121.891 185.398 122.38 185.094 125.5C184.791 128.615 183.337 131.372 178.677 137.668C176.71 140.325 175.81 142.392 175.05 145.997C174.433 148.92 173.249 151.994 172.017 153.87C169.757 157.313 168.912 157.948 170.443 155.053C170.994 154.01 171.446 152.832 171.445 152.436C171.445 152.04 171.889 151.282 172.431 150.751C173.691 149.521 173.691 144.982 172.432 139.917C170.926 133.855 171.181 130.844 173.83 123.48C176.699 115.5 177.094 109.696 175.109 104.689C173.448 100.499 173.059 101.27 174.426 106.045L175.538 109.935L173.603 112.393C168.969 118.281 166.364 124.487 165.756 131.084C165.426 134.669 165.71 136.795 167.405 143.387C169.335 150.902 169.624 155.742 168.193 156.605C167.484 157.033 164.787 155.077 158.842 149.822C137.098 130.603 129.612 124.586 118.711 117.566C110.93 112.555 99.7481 107.079 92.3489 104.656C86.8297 102.848 76.9102 100.806 66.9836 99.4349L60.3957 98.5248L66.7458 98.8693C76.9772 99.4246 86.3146 97.5434 93.5187 93.475C95.0742 92.597 96.2576 91.7917 96.1488 91.6857C96.04 91.5803 92.3964 92.383 88.0522 93.4698C77.185 96.1885 65.3333 96.2772 49.7657 93.7559C36.7008 91.64 34.8769 91.6021 38.9952 93.5315L41.9734 94.9269L31.4219 94.9275C20.3012 94.9282 16.4546 95.6101 11.5144 98.4567C7.91498 100.53 6.9819 100.197 5.48626 96.3087C4.75892 94.4178 3.78559 91.0912 3.32273 88.9168C2.35528 84.3716 2.81492 82.5051 6.21959 77.1513C8.7675 73.1459 9.21547 68.5157 7.7302 61.5455C5.1616 49.49 6.54943 45.95 16.6496 38.7901C22.1657 34.8805 24.8182 31.9625 28.7183 25.5135C34.8939 15.3027 39.2566 12.5268 51.9475 10.7317C60.0487 9.58572 62.4785 8.89802 67.8945 6.21853C75.0807 2.66302 78.3287 2.06016 83.1913 3.37708ZM74.8652 4.92603C72.057 5.9036 67.8008 9.00599 67.3163 10.429C67.1462 10.9277 68.0159 10.5048 69.2491 9.48803C72.7764 6.58038 76.299 5.30459 81.0395 5.21782C84.1971 5.16062 84.8886 5.00508 83.6735 4.62524C81.1321 3.83148 77.6721 3.94974 74.8652 4.92603ZM65.4032 8.43655C63.7143 9.63136 62.1363 11.5685 61.0855 13.739C58.2584 19.5755 56.1488 20.8956 47.4524 22.2684C40.9911 23.2878 36.5739 24.9916 34.549 27.2456C33.3319 28.6005 33.3333 28.6146 34.6277 28.0915C37.6655 26.8645 44.6965 25.2635 47.1995 25.2294C50.9177 25.178 55.6632 23.6869 58.7455 21.6013C60.6674 20.3004 61.9361 18.5953 63.6802 14.9691C64.9715 12.2845 66.794 9.29264 67.7295 8.32086C69.9592 6.00451 68.7559 6.06428 65.4032 8.43655ZM56.3553 14.7744C52.7369 18.6943 49.5692 20.3377 44.336 21.0113C42.4347 21.2562 40.7245 21.7016 40.5352 22.0004C40.161 22.5924 43.352 22.2755 48.2752 21.2311C52.0058 20.4406 56.6287 17.1556 58.5945 13.8983C59.3796 12.5975 59.9355 11.4618 59.8307 11.375C59.7252 11.2883 58.1612 12.8179 56.3553 14.7744ZM110.364 16.4705C111.813 16.9288 115.795 18.6448 119.212 20.2837C124.47 22.8058 125.99 23.2544 129.096 23.2023L132.767 23.1406L128.484 22.3488C126.097 21.9079 121.452 20.2285 117.989 18.5542C114.432 16.8356 110.91 15.5701 109.752 15.5945C107.781 15.6363 107.797 15.6587 110.364 16.4705ZM33.0025 23.2267C30.5763 26.5573 29.6891 29.508 29.6944 34.2332C29.7009 40.053 28.7907 41.9047 23.438 46.9597C17.1364 52.9112 16.8112 54.205 22.5783 50.3821C31.3573 44.563 32.9964 41.8681 32.9868 33.2705C32.9823 29.3396 33.3458 26.9044 34.2845 24.5732C35.7342 20.9753 35.1162 20.3262 33.0025 23.2267ZM74.7292 24.5488C63.2804 26.1864 50.7545 33.4806 41.8164 43.7152C37.2983 48.8885 31.4066 59.6623 30.6817 64.0765C30.3108 66.335 30.8568 65.6955 35.1753 58.8069C41.824 48.2008 44.1163 45.2623 49.6305 40.2761C58.5236 32.2338 67.1818 28.4964 80.6791 26.8722C84.9363 26.3606 88.5585 25.8053 88.7282 25.6388C89.1013 25.2751 81.152 23.8733 79.3598 23.9871C78.665 24.0308 76.5811 24.284 74.7292 24.5488ZM24.4181 35.1735C23.5963 37.1544 21.7893 40.4907 20.4025 42.5879C19.015 44.6857 18.1461 46.4018 18.4702 46.4018C19.5386 46.4018 24.3982 38.6243 25.4062 35.3014C26.7529 30.8603 26.2351 30.7934 24.4181 35.1735ZM150.24 32.5416C151.512 32.9992 154.472 34.3181 156.817 35.4731C159.776 36.9294 160.783 37.22 160.105 36.4223C158.769 34.8496 151.596 31.6103 149.573 31.665C148.126 31.7042 148.207 31.8108 150.24 32.5416ZM135.095 44.0231C135.096 44.1844 136.899 44.9743 139.102 45.7784C144.548 47.7644 150.31 51.5056 155.777 56.6043C161.019 61.4941 160.876 60.4317 155.569 55.0611C151.422 50.8642 147.631 48.1988 142.816 46.0939C139.425 44.6118 135.095 43.4498 135.095 44.0231ZM14.7124 47.6223C13.2434 51.5885 13.7128 54.9081 16.5503 60.6206C20.3034 68.1757 19.9392 72.2808 14.9034 79.1803C13.7426 80.7711 12.2644 83.0848 11.6197 84.3221C10.5306 86.4096 8.54451 92.7571 8.87817 93.0829C9.39911 93.5907 20.3851 76.3299 21.387 73.4299C23.0507 68.6134 22.5815 65.5522 19.1594 58.8885C17.1321 54.9416 16.2188 52.2627 15.9278 49.4116L15.5222 45.4377L14.7124 47.6223ZM48.1524 47.9147C44.4713 50.5537 42.1001 53.5533 39.5838 58.7554C36.5267 65.0753 37.3418 65.3459 40.6704 59.116C42.8737 54.993 44.785 52.489 47.908 49.6359C52.5983 45.3503 52.6963 44.6568 48.1524 47.9147ZM126.702 48.4559C125.526 48.8422 124.563 49.3339 124.565 49.5479C124.566 49.7619 126.419 49.9959 128.682 50.0685C132.057 50.1765 140.801 51.9819 147.287 53.9094C150.25 54.7905 146.839 52.3212 142.184 50.2157C136.942 47.8447 130.717 47.1371 126.702 48.4559ZM42.9495 58.5389C41.3638 60.7151 39.6003 64.583 39.6274 65.8234C39.6378 66.2765 40.8141 64.4949 42.2419 61.8649C44.9809 56.8183 45.302 55.3111 42.9495 58.5389ZM168.729 59.2561C168.699 62.311 175.42 72.1105 177.546 72.1105C177.906 72.1105 177.24 71.1444 176.065 69.9638C174.892 68.7838 172.763 65.6743 171.335 63.0546C169.907 60.4355 168.735 58.7259 168.729 59.2561ZM9.50977 60.7781C9.74626 61.3777 10.4233 63.6664 11.0133 65.8645C12.4427 71.1837 11.9592 75.7778 9.30452 82.106C7.10381 87.3499 6.30749 93.8285 7.69687 95.1795C8.13603 95.6062 8.35466 94.3844 8.35144 91.516C8.34773 88.215 8.76319 86.3048 10.1332 83.3207C13.5618 75.853 13.9406 70.6104 11.5569 63.6022C10.9872 61.9273 10.197 60.361 9.80083 60.1225C9.33614 59.8423 9.23299 60.0762 9.50977 60.7781ZM158.783 64.9474C159.587 66.4809 160.38 67.6037 160.546 67.4418C161.056 66.943 159.691 64.0759 158.475 63.0912C157.527 62.3251 157.582 62.6555 158.783 64.9474ZM187.313 86.2534C187.589 87.8422 188.758 91.1432 189.912 93.5887C192.859 99.8366 192.695 102.141 188.806 109.115L185.682 114.718L183.866 111.22C182.866 109.297 181.534 106.001 180.905 103.896C179.895 100.52 179.854 99.3867 180.557 94.2842C181.135 90.0943 181.163 87.7028 180.658 85.6075C179.564 81.0641 179.895 80.512 181.621 84.0007C182.655 86.0895 183.216 88.3609 183.223 90.4915C183.241 95.3884 184.042 103.604 184.501 103.604C185.163 103.604 184.563 88.715 183.783 85.7804C183.385 84.2848 182.651 82.7307 182.152 82.3277C180.195 80.7434 181.393 80.449 184.028 81.8669C186.467 83.1787 186.873 83.7211 187.313 86.2534ZM29.3375 85.8813C27.8421 86.3376 25.9164 87.213 25.0582 87.8262L23.4984 88.94L25.1446 88.4669C26.05 88.2073 28.5684 87.3268 30.7412 86.5112C34.9333 84.9371 33.9191 84.4821 29.3375 85.8813ZM31.3641 87.5106C25.3863 89.0402 22.5671 90.2081 18.899 92.6722C14.4279 95.6763 15.3349 96.2072 20.0452 93.3432C23.8097 91.0545 26.6244 89.9928 36.0116 87.321C40.9344 85.9199 36.9416 86.0825 31.3641 87.5106ZM58.9133 98.2446C58.461 98.4233 57.72 98.4233 57.2666 98.2446C56.8139 98.0666 57.1839 97.9207 58.0896 97.9207C58.9953 97.9207 59.3663 98.0666 58.9133 98.2446ZM117.145 104.771C116.667 107.71 117.161 110.838 118.52 113.465C119.989 116.307 120.24 115.072 119.383 109.221C118.423 102.674 117.716 101.267 117.145 104.771ZM175.08 114.586C174.837 116.385 173.619 120.651 172.371 124.066C169.886 130.87 169.672 133.471 171.114 139.274C171.642 141.395 172.045 144.432 172.01 146.023C171.975 147.614 171.815 148.337 171.655 147.63C171.494 146.923 170.784 144.048 170.077 141.241C168.092 133.357 168.343 130.373 171.846 120.204C173.53 115.316 175.045 111.316 175.214 111.316C175.383 111.316 175.322 112.788 175.08 114.586ZM164.797 117.731C161.057 121.535 156.974 124.081 152.313 125.514C149.605 126.346 148.989 126.742 149.87 127.084C153.148 128.355 162.28 124.93 164.962 121.423C166.601 119.282 168.48 115.297 168.034 114.913C167.894 114.794 166.438 116.061 164.797 117.731ZM155.756 122.039C154.194 122.927 150.832 123.969 148.184 124.385L143.42 125.135L146.595 125.333C150.527 125.577 155.577 124.002 157.599 121.9C159.431 119.995 159.342 120.001 155.756 122.039Z" fill="#191919" fill-opacity="0.1"/>
</svg>
