<svg width="452" height="291" viewBox="0 0 452 291" fill="none" xmlns="http://www.w3.org/2000/svg">
<path d="M405.18 129.09C403.237 127.617 401.269 126.352 399.627 124.839C397.463 122.896 397.228 121.096 398.18 118.422C398.316 118.061 398.377 117.676 398.36 117.29C398.342 116.905 398.245 116.526 398.075 116.179C397.181 114.913 396.598 113.454 396.371 111.92C396.145 110.387 396.282 108.821 396.772 107.35C397.238 106.009 397.413 104.584 397.288 103.17C397.161 101.756 396.737 100.385 396.042 99.1472C395.397 97.8825 395.003 96.5055 394.882 95.0912C394.74 94.0599 394.939 93.0106 395.451 92.1032C395.961 91.1965 396.755 90.4824 397.711 90.0697C398.581 89.6489 399.573 89.5488 400.51 89.7875C401.447 90.0261 402.27 90.5883 402.833 91.374C404.237 93.1648 405.502 95.0615 406.614 97.0473C407.263 98.2847 407.846 99.5557 408.36 100.855C409.13 97.556 409.572 94.8171 410.407 92.1958C411.828 87.7097 413.314 83.2103 415.152 78.8802C415.991 77.0987 417.309 75.5861 418.958 74.5111C419.597 74.1101 420.318 73.8581 421.067 73.7743C421.817 73.6911 422.575 73.7778 423.286 74.0286C423.934 74.4686 424.473 75.0489 424.866 75.7263C425.259 76.4038 425.494 77.1604 425.554 77.9414C425.281 81.0691 424.736 84.1677 423.925 87.201C422.947 90.9462 422.177 94.7426 421.618 98.5733C422.434 96.7732 423.26 94.9737 424.094 93.1741C425.958 89.092 427.731 84.9446 429.765 80.9411C430.669 79.2829 431.856 77.7959 433.271 76.5458C434.142 75.7828 435.235 75.3218 436.389 75.2328C437.543 75.1432 438.694 75.4301 439.671 76.0505C440.549 76.6249 441.194 77.491 441.495 78.4955C441.795 79.5 441.731 80.5785 441.314 81.5405C439.698 85.7274 437.886 89.8486 435.891 93.8521C434.249 97.1387 432.228 100.23 430.677 103.737C431.798 102.642 432.867 101.482 434.04 100.451C436.738 97.9151 439.58 95.5376 442.552 93.3307C444.19 92.2755 446.122 91.7732 448.066 91.896C448.773 91.8856 449.467 92.0712 450.073 92.4332C450.679 92.7952 451.173 93.319 451.499 93.9453C451.825 94.5715 451.97 95.2769 451.919 95.9811C451.868 96.6853 451.621 97.3616 451.208 97.9343C449.564 100.31 447.662 102.497 445.538 104.455C444.275 105.652 442.895 106.717 441.418 107.637C437.973 110.043 435.373 113.475 433.988 117.444C432.254 121.97 430.078 126.3 424.968 128.099C424.511 128.256 424.185 128.843 423.886 129.286C421.083 133.433 419.128 134.255 414.526 132.716C412.792 132.143 412.088 132.481 411.307 134.085C408.478 140.388 404.051 145.842 398.467 149.905C390.802 155.213 382.524 155.826 373.842 153.022C373.323 152.888 372.837 152.649 372.414 152.32C371.991 151.99 371.641 151.577 371.384 151.106C371.127 150.636 370.97 150.117 370.922 149.583C370.874 149.048 370.936 148.51 371.105 148.001C371.744 146.045 373.712 145.223 376.176 145.614C379.311 146.304 382.508 146.676 385.718 146.723C390.111 146.514 393.774 144.179 396.942 141.167C400.455 137.723 403.255 133.62 405.18 129.09ZM416.912 126.052L417.107 125.191C417.732 125.148 418.359 125.192 418.971 125.321C424.641 127.448 426.714 126.86 430.143 121.878C431.079 120.611 431.818 119.208 432.332 117.718C433.949 112.267 437.456 108.524 442.031 105.329C444.791 103.24 447.286 100.822 449.461 98.1298C449.809 97.6136 450.022 97.0188 450.081 96.399C450.141 95.7797 450.044 95.1552 449.8 94.5826C449.339 94.1478 448.784 93.8236 448.179 93.6362C447.573 93.4488 446.933 93.4023 446.307 93.5C444.771 93.8405 443.338 94.5372 442.122 95.5347C439.932 97.2213 437.863 99.0605 435.93 101.038C434.027 102.994 430.651 104.403 433.18 108.759C430.156 106.15 427.966 103.829 425.359 102.238C422.443 100.783 419.418 99.5569 416.312 98.5733V97.9861L419.662 97.7777C421.187 92.0916 422.725 86.3921 424.199 80.6669C424.413 79.7439 424.454 78.7882 424.316 77.8501C423.99 75.1374 421.709 74.1072 419.558 75.8288C418.382 76.7524 417.406 77.9059 416.69 79.2195C413.144 86.0143 411.62 93.4477 410.172 100.894C410.055 101.508 410.707 102.42 411.241 102.981C412.903 104.587 414.108 106.606 414.734 108.831C415.359 111.056 415.382 113.408 414.8 115.645C414.643 116.284 413.913 116.792 413.496 117.353L412.962 116.884C414.696 111.08 413.431 106.333 408.243 102.811C407.426 101.98 406.78 100.996 406.34 99.9166C405.029 97.4181 403.575 94.9969 401.986 92.6654C401.552 92.2208 401.012 91.8943 400.417 91.7168C399.821 91.5387 399.19 91.5148 398.584 91.6481C398.044 92.091 397.598 92.6375 397.274 93.2562C396.949 93.8743 396.752 94.5517 396.694 95.2478C396.748 96.5811 397.143 97.8784 397.841 99.0168C398.497 100.237 398.9 101.578 399.025 102.959C399.151 104.339 398.996 105.731 398.571 107.05C396.837 112.267 398.571 115.462 403.29 118.631C404.098 119.166 404.945 119.635 405.897 120.248C404.593 120.913 404.593 120.913 399.952 118.644C399.658 118.989 399.438 119.39 399.304 119.823C399.17 120.256 399.126 120.712 399.175 121.163C399.224 121.614 399.364 122.049 399.588 122.444C399.811 122.839 400.112 123.183 400.474 123.457C405.143 127.51 410.725 130.369 416.742 131.79C419.545 132.442 421.383 131.151 422.387 128.373L416.912 126.052ZM429.295 102.394C431.629 98.234 434.04 94.1781 436.191 89.9917C437.655 87.2115 438.863 84.3044 439.802 81.306C439.916 80.6122 439.876 79.9022 439.684 79.2265C439.492 78.5502 439.154 77.9246 438.694 77.3938C437.391 76.0895 435.617 76.65 434.236 77.8239C433.526 78.3273 432.928 78.971 432.476 79.7148C429.256 86.1703 426.128 92.6521 422.934 99.199L429.295 102.394Z" fill="#0D0D0D"/>
<path d="M416.885 126.052L422.361 128.373C421.357 131.151 419.519 132.442 416.716 131.79C410.704 130.367 405.126 127.508 400.461 123.457C400.1 123.183 399.798 122.839 399.575 122.444C399.351 122.05 399.211 121.614 399.162 121.163C399.113 120.713 399.157 120.256 399.291 119.823C399.424 119.39 399.645 118.989 399.939 118.644C404.593 120.913 404.593 120.913 405.884 120.249C404.867 119.635 404.019 119.166 403.277 118.631C398.57 115.462 396.759 112.215 398.558 107.05C398.983 105.731 399.138 104.34 399.013 102.959C398.887 101.579 398.484 100.238 397.828 99.0168C397.13 97.879 396.736 96.5811 396.68 95.2478C396.739 94.5517 396.936 93.8742 397.261 93.2561C397.586 92.6381 398.031 92.091 398.57 91.6481C399.178 91.5154 399.808 91.5387 400.403 91.7168C400.999 91.8948 401.538 92.2213 401.973 92.6654C403.562 94.9969 405.016 97.418 406.327 99.9165C406.766 100.997 407.413 101.98 408.23 102.812C413.444 106.333 414.748 111.08 412.949 116.884L413.484 117.353C413.94 116.792 414.67 116.284 414.787 115.645C415.364 113.416 415.342 111.073 414.721 108.856C414.101 106.639 412.905 104.626 411.254 103.02C410.72 102.46 410.068 101.547 410.185 100.934C411.606 93.4872 413.132 86.0533 416.703 79.2585C417.419 77.9455 418.395 76.7914 419.571 75.8677C421.722 74.1462 424.003 75.1769 424.329 77.889C424.467 78.8272 424.427 79.7828 424.212 80.7065C422.738 86.4316 421.2 92.1306 419.675 97.8167L416.325 98.0256V98.6123C419.431 99.5965 422.456 100.822 425.372 102.277C427.979 103.829 430.182 106.189 433.193 108.798C430.664 104.442 434.04 103.034 435.943 101.077C437.876 99.0994 439.945 97.2609 442.135 95.5737C443.351 94.5767 444.784 93.8795 446.32 93.539C446.946 93.4412 447.586 93.4878 448.192 93.6758C448.797 93.8632 449.352 94.1868 449.813 94.6215C450.057 95.1942 450.154 95.8187 450.094 96.4385C450.035 97.0578 449.822 97.6532 449.474 98.1688C447.299 100.862 444.804 103.279 442.044 105.368C437.469 108.563 433.962 112.306 432.345 117.758C431.831 119.248 431.092 120.65 430.156 121.918C426.727 126.9 424.654 127.486 418.984 125.361C418.372 125.231 417.745 125.187 417.12 125.231L416.885 126.052ZM416.299 121.357L423.86 113.115C421.682 111.941 416.625 116.897 416.299 121.357Z" fill="white"/>
<path d="M429.269 102.395L422.908 99.2125C426.102 92.6918 429.23 86.171 432.45 79.7283C432.901 78.9845 433.501 78.3408 434.21 77.8374C435.592 76.6635 437.364 76.0634 438.668 77.4067C439.128 77.9375 439.466 78.5631 439.658 79.2394C439.85 79.9157 439.89 80.6257 439.776 81.3195C438.837 84.3179 437.629 87.225 436.165 90.0052C434.014 94.1782 431.603 98.2341 429.269 102.395Z" fill="white"/>
<path d="M416.298 121.357C416.624 116.897 421.682 111.941 423.859 113.115L416.298 121.357Z" fill="#0D0D0D"/>
<path d="M19.05 223.356C15.2245 225.697 11.7619 224.637 9.50695 219.739C3.93433 218.99 2.00972 216.472 3.03876 210.839C3.94696 205.821 5.22268 200.826 8.80545 196.962C10.7843 194.883 12.8672 193.165 13.9431 190.274C14.9165 187.643 17.7158 187.198 20.2992 187.411C21.771 187.541 22.4111 187.239 22.8996 185.773C29.5711 166.018 43.4919 153.547 62.6513 146.383C63.0992 146.22 63.5599 146.062 64.023 145.945C64.5366 145.762 65.0817 145.685 65.6256 145.717C66.1701 145.75 66.7018 145.891 67.1905 146.133C67.6791 146.375 68.1143 146.712 68.4703 147.125C68.8257 147.539 69.095 148.019 69.262 148.538C69.4249 149.062 69.4749 149.615 69.4097 150.161C69.344 150.706 69.1643 151.231 68.8821 151.702C68.6 152.173 68.2213 152.579 67.7716 152.894C67.3219 153.208 66.8106 153.424 66.2713 153.527C59.8619 155.512 53.8547 158.619 48.5303 162.703C40.7467 168.515 34.755 176.4 31.2407 185.458C30.7595 186.706 30.5087 188.019 30.0877 189.492C30.7806 189.828 31.4095 190.146 32.0621 190.43C35.4588 191.914 36.1477 193.234 35.7757 196.811C35.772 197.779 36.0377 198.727 36.5428 199.552C38.9733 204.029 40.2612 208.677 38.2248 213.621C37.9784 214.249 37.6074 214.821 37.1344 215.302C36.6614 215.783 36.0961 216.164 35.4724 216.421C33.3148 216.995 32.7037 218.551 31.8805 220.172C30.5616 222.8 28.7929 225.161 25.5787 225.072C23.6406 225.072 21.7631 224.133 19.05 223.356ZM10.707 217.285C11.1397 219.597 11.7387 222.345 14.463 222.404C16.5674 222.452 18.6905 221.176 20.9926 220.436C21.4712 221.958 22.4635 223.862 24.9958 223.77C26.227 223.702 27.4066 223.252 28.3708 222.483C29.3349 221.714 30.0357 220.663 30.376 219.478C31.264 216.741 31.9612 213.947 32.4625 211.113C32.6385 209.965 32.7432 208.805 32.7761 207.644L33.5038 207.616C35.1359 209.995 33.4037 212.809 33.8984 215.485C34.8283 215.215 35.6598 214.681 36.2922 213.947C36.9245 213.214 37.3306 212.312 37.4612 211.353C37.8369 209.894 37.9217 208.375 37.7106 206.883C37.4995 205.392 36.9967 203.957 36.2309 202.66C35.4651 201.363 34.4514 200.229 33.2477 199.324C32.0438 198.419 30.6737 197.761 29.2153 197.386C28.5807 197.105 27.9802 196.751 27.4256 196.334L27.8117 195.516L33.8393 197.241C34.6754 195.333 34.5844 193.715 33.0561 192.861C28.6156 190.176 23.4709 188.887 18.2894 189.163C17.7968 189.18 17.3129 189.297 16.867 189.507C16.421 189.717 16.0225 190.015 15.6956 190.384C15.3686 190.753 15.1201 191.185 14.9652 191.653C14.8103 192.121 14.7522 192.616 14.7944 193.108C19.1935 192.635 20.7146 193.028 21.4491 195.011C21.07 195.065 20.6861 195.076 20.3046 195.044C15.3738 193.938 11.3473 195.431 8.67491 199.695C6.23085 203.524 4.7834 207.905 4.46447 212.437C4.16897 216.716 6.42102 218.524 10.707 217.285Z" fill="#0D0D0D"/>
<path d="M10.7057 217.285C6.41972 218.525 4.16768 216.717 4.44125 212.418C4.76017 207.886 6.20762 203.505 8.65168 199.675C11.3241 195.412 15.3505 193.919 20.2813 195.025C20.6628 195.057 21.0468 195.046 21.4259 194.992C20.6877 193.022 19.1666 192.628 14.7711 193.088C14.729 192.596 14.7871 192.102 14.942 191.634C15.0969 191.165 15.3454 190.734 15.6723 190.365C15.9993 189.996 16.3978 189.698 16.8438 189.487C17.2896 189.277 17.7736 189.16 18.2662 189.143C23.4477 188.868 28.5924 190.157 33.0329 192.842C34.5612 193.695 34.6521 195.314 33.8161 197.222L27.7885 195.497L27.4025 196.314C27.957 196.732 28.5575 197.085 29.1921 197.367C30.6505 197.741 32.0207 198.4 33.2244 199.305C34.4282 200.21 35.442 201.343 36.2077 202.641C36.9735 203.937 37.4763 205.373 37.6874 206.864C37.8985 208.356 37.8138 209.874 37.438 211.333C37.3074 212.293 36.9013 213.195 36.2689 213.928C35.6365 214.662 34.8051 215.196 33.8753 215.466C33.3804 212.79 35.1126 209.975 33.4806 207.597L32.7529 207.624C32.7201 208.786 32.6154 209.945 32.4393 211.094C31.938 213.927 31.2408 216.722 30.3527 219.459C30.0125 220.644 29.3117 221.695 28.3475 222.464C27.3834 223.233 26.2038 223.682 24.9725 223.75C22.4402 223.843 21.4479 221.939 20.9693 220.416C18.6709 221.144 16.5442 222.433 14.4397 222.384C11.7374 222.345 11.1384 219.598 10.7057 217.285Z" fill="white"/>
<path d="M153.23 258.583C152.99 257.693 152.798 257.027 152.622 256.399C146.046 256.53 143.725 254.464 145.245 249.248C146.172 246.351 147.647 243.59 149.613 241.063C150.271 240.222 150.716 239.283 150.925 238.3C151.134 237.317 151.101 236.31 150.83 235.337C148.606 224.747 149.229 214.419 154.51 204.351C158.875 196.259 165.815 189.271 174.607 184.113C175.1 183.76 175.675 183.494 176.299 183.33C176.922 183.165 177.58 183.107 178.232 183.158C178.885 183.21 179.517 183.37 180.09 183.629C180.664 183.887 181.167 184.239 181.567 184.662C183.327 186.558 182.847 188.793 180.191 190.428C169.971 196.38 162.848 205.241 160.222 215.269C158.888 220.63 158.677 226.139 159.598 231.559C161.728 231.424 163.868 231.424 165.998 231.559C167.617 231.688 169.108 232.33 170.155 233.346C171.201 234.362 171.719 235.673 171.599 236.997C171.599 238.187 171.711 238.998 173.359 239.52C184.976 243.168 188.512 247.522 188.304 259.066C188.128 268.453 183.791 276.991 177.679 284.848C176.431 286.527 174.68 287.918 172.592 288.89C170.503 289.862 168.146 290.384 165.742 290.405C159.565 290.587 153.379 290.316 147.261 289.594C130.252 287.293 129.981 272.153 137.837 264.897C139.766 263.067 142.119 261.567 144.761 260.483C147.403 259.399 150.281 258.753 153.23 258.583ZM152.142 240.802C149.261 244.149 147.053 247.339 146.813 251.065C146.59 254.36 148.894 255.798 152.446 254.425C155.073 253.263 157.621 251.984 160.078 250.594C160.846 250.215 161.678 249.902 162.462 249.562L163.262 250.516C160.862 251.954 158.462 253.34 156.078 254.857C155.438 255.275 154.67 256.164 154.814 256.635C155.168 257.462 155.8 258.192 156.638 258.739C157.086 259.066 157.918 259.014 158.574 259.145C161.568 259.675 164.399 260.695 166.898 262.142C169.398 263.588 171.514 265.433 173.119 267.565C173.502 268.273 173.765 269.021 173.903 269.787L172.927 270.088C172.351 269.395 171.791 268.702 171.199 268.022C166.622 262.792 160.462 259.916 152.606 260.335C145.037 260.74 139.597 264.179 136.349 269.748C132.365 276.599 134.861 281.711 143.757 283.789C148.998 284.882 154.357 285.556 159.758 285.803C170.063 286.496 175.839 283.449 178.863 275.461C181.227 269.193 183.203 262.83 184.784 256.399C186.768 248.28 181.167 242.214 171.007 240.815C170.319 242.253 169.615 243.691 168.911 245.143L167.647 244.75L169.375 238.958C169.951 236.997 170.015 235.036 167.679 233.847C166.507 233.226 165.14 232.895 163.742 232.895C162.346 232.895 160.978 233.226 159.806 233.847C160.83 236.801 161.886 239.599 162.766 242.423C163.111 243.376 162.987 244.402 162.421 245.282C161.854 246.161 160.891 246.826 159.734 247.134C158.578 247.442 157.319 247.369 156.228 246.932C155.136 246.494 154.296 245.725 153.886 244.789C153.294 243.613 152.846 242.423 152.142 240.802ZM138.365 284.6C140.032 285.613 141.816 286.488 143.693 287.215C151.104 289.374 159.059 289.981 166.831 288.98C169.177 288.773 171.398 288.007 173.216 286.778C175.034 285.548 176.369 283.908 177.055 282.063C172.959 286.6 167.375 287.868 161.23 287.646C153.468 287.537 145.767 286.511 138.365 284.6ZM182.079 273.173L182.832 273.33L186.704 260.818L185.744 260.622C184.527 264.754 183.296 268.911 182.079 273.121V273.173Z" fill="black"/>
<path d="M253.568 250.071C258.848 250.529 264.768 250.071 265.041 256.727C266.416 256.191 267.553 255.681 268.753 255.288C272.087 254.03 275.519 252.952 279.025 252.059C287.746 250.202 299.699 254.569 303.427 262.204C305.779 267.029 304.179 271.252 300.339 274.991C292.594 282.509 282.178 286.365 270.929 288.993C263.496 290.939 255.524 291.048 248.015 289.307C242.975 287.999 238.415 285.934 235.839 282.064C232.383 276.729 231.263 271.082 234.895 265.329C235.097 264.933 235.201 264.509 235.201 264.081C235.201 263.652 235.097 263.228 234.895 262.832C231.487 256.962 233.295 253.353 240.847 251.314C241.674 251.168 242.425 250.818 242.998 250.31C243.571 249.802 243.937 249.162 244.047 248.477C249.215 229.036 245.647 211.059 230.831 194.939C228.686 192.598 228.831 190.245 231.119 188.846C233.407 187.447 236.207 187.931 238.383 190.232C252.464 205.149 257.584 222.08 255.328 240.658C254.944 243.705 254.192 246.725 253.568 250.071ZM252.864 270.781L254.032 270.153C254.612 270.776 255.147 271.427 255.632 272.101C259.17 277.489 263.939 282.273 269.681 286.195C270.089 286.487 270.568 286.704 271.087 286.832C271.605 286.96 272.152 286.998 272.689 286.941C282.05 284.561 290.722 281.136 297.57 275.174C304.419 269.212 304.323 263.525 297.266 257.707C292.962 254.164 287.666 253.432 282.466 256.033C279.585 257.486 276.903 259.187 274.465 261.106C267.981 266.352 259.221 269.289 250.096 269.277C247.293 269.245 244.496 269.478 241.759 269.971C235.983 271.108 233.758 275.121 236.319 279.501C236.853 280.428 237.507 281.304 238.271 282.116C244.672 288.836 258.56 290.536 268.497 287.555C261.873 282.77 256.256 277.41 252.864 270.781ZM249.535 259.119L249.824 258.452C250.544 258.452 251.264 258.544 251.984 258.544C254.272 258.544 256.576 258.544 258.848 258.439C261.12 258.335 262.96 257.589 263.008 255.51C263.056 253.432 261.072 252.373 258.896 252.111C252.496 251.34 246.096 251.157 240.047 253.314C234.255 255.38 233.47 258.544 237.279 262.388L240.687 261.603C240.114 262.451 239.449 263.256 238.703 264.009C237.418 265.008 236.4 266.214 235.712 267.551C235.023 268.887 234.68 270.325 234.703 271.775C238.719 268.127 243.711 267.708 248.8 267.852C257.015 267.993 265.001 265.631 271.201 261.224C275.393 258.426 279.746 255.759 284.642 252.647C281.441 253.208 278.28 253.906 275.169 254.739C270.929 256.046 266.96 258.034 262.656 259.119C259.119 259.787 255.502 260.134 251.872 260.152C251.136 260.152 250.288 259.485 249.535 259.119Z" fill="black"/>
<path d="M152.141 240.802C152.845 242.423 153.294 243.613 153.885 244.725C154.295 245.66 155.135 246.429 156.227 246.867C157.319 247.305 158.577 247.377 159.734 247.069C160.89 246.76 161.854 246.096 162.421 245.216C162.987 244.337 163.11 243.311 162.766 242.358C161.886 239.534 160.83 236.737 159.806 233.782C160.978 233.16 162.345 232.83 163.742 232.83C165.139 232.83 166.507 233.16 167.679 233.782C170.014 235.024 169.95 236.933 169.374 238.893L167.646 244.686L168.91 245.078C169.615 243.626 170.319 242.188 171.007 240.75C181.167 242.149 186.767 248.215 184.783 256.334C183.203 262.765 181.227 269.127 178.863 275.396C175.839 283.384 170.063 286.431 159.758 285.738C154.357 285.491 148.998 284.816 143.757 283.724C134.861 281.645 132.365 276.534 136.349 269.683C139.549 264.113 145.037 260.675 152.606 260.27C160.462 259.851 166.622 262.78 171.199 267.957C171.79 268.637 172.351 269.33 172.926 270.023L173.903 269.722C173.765 268.955 173.502 268.208 173.119 267.499C171.513 265.368 169.398 263.524 166.898 262.077C164.399 260.63 161.567 259.61 158.574 259.08C157.918 258.949 157.086 259.002 156.638 258.674C155.8 258.127 155.168 257.398 154.814 256.569C154.67 256.073 155.437 255.262 156.078 254.791C158.414 253.275 160.878 251.889 163.262 250.451L162.462 249.496C161.662 249.837 160.862 250.151 160.078 250.529C157.621 251.919 155.073 253.198 152.446 254.36C148.893 255.733 146.589 254.295 146.813 251C147.053 247.287 149.261 244.149 152.141 240.802Z" fill="#97D5EE"/>
<path d="M138.366 284.6C145.771 286.492 153.473 287.501 161.231 287.594C167.375 287.816 172.959 286.548 177.056 282.011C176.369 283.856 175.034 285.495 173.216 286.725C171.398 287.955 169.177 288.72 166.831 288.927C159.059 289.929 151.104 289.321 143.694 287.162C141.819 286.452 140.035 285.594 138.366 284.6Z" fill="#97D5EE"/>
<path d="M182.079 273.121C183.295 268.937 184.527 264.754 185.743 260.57L186.703 260.766L182.831 273.278L182.079 273.121Z" fill="#97D5EE"/>
<path d="M252.864 270.781C256.256 277.41 261.873 282.77 268.449 287.608C258.513 290.589 244.576 288.915 238.223 282.169C237.459 281.357 236.805 280.48 236.271 279.554C233.743 275.174 235.935 271.16 241.711 270.023C244.448 269.53 247.246 269.297 250.048 269.33C259.173 269.341 267.932 266.404 274.417 261.159C276.855 259.239 279.537 257.539 282.418 256.086C287.682 253.471 292.914 254.216 297.219 257.76C304.275 263.577 304.419 269.277 297.522 275.227C290.626 281.175 282.001 284.574 272.641 286.993C272.114 287.042 271.58 287.002 271.073 286.874C270.566 286.745 270.098 286.532 269.697 286.248C263.956 282.326 259.187 277.542 255.648 272.154C255.163 271.479 254.628 270.829 254.048 270.206L252.864 270.781Z" fill="#97D5EE"/>
<path d="M249.536 259.119C250.32 259.472 251.136 260.152 251.888 260.113C255.518 260.095 259.136 259.748 262.672 259.08C266.977 257.995 270.945 256.021 275.185 254.7C278.296 253.867 281.457 253.169 284.658 252.608C279.762 255.72 275.409 258.387 271.217 261.185C265.017 265.592 257.031 267.955 248.816 267.813C243.727 267.709 238.735 268.127 234.719 271.736C234.696 270.286 235.039 268.848 235.728 267.512C236.416 266.175 237.434 264.969 238.719 263.97C239.466 263.217 240.13 262.412 240.703 261.564L237.295 262.348C233.487 258.505 234.271 255.341 240.063 253.275C246.128 251.118 252.544 251.301 258.912 252.072C261.088 252.334 263.073 253.38 263.024 255.471C262.977 257.564 261.056 258.269 258.864 258.4C256.672 258.531 254.288 258.492 252 258.505C251.28 258.505 250.56 258.505 249.84 258.413L249.536 259.119Z" fill="#97D5EE"/>
<path d="M93.5903 217.898C91.0767 225.711 89.9435 233.004 86.424 238.885C83.8232 243.208 77.9361 248.569 73.8472 248.293C70.8309 247.859 67.938 246.802 65.3522 245.189C62.7665 243.576 60.5449 241.441 58.8282 238.923C46.5099 218.436 42.8436 196.778 52.6304 173.623C55.8046 166.167 56.7152 157.537 57.4391 149.336C58.3872 139.087 62.0911 129.285 68.1573 120.97C73.5714 113.038 78.8698 103.856 80.3153 94.6046C82.8616 78.1224 91.3425 69.4494 106.379 63.5643C113.682 60.6932 120.461 53.5263 124.783 46.6258C137.432 26.4058 155.26 19.2071 178.006 22.1045C184.113 22.6448 190.128 23.9514 195.908 25.9935C211.846 32.2443 229.158 34.1433 246.071 31.4958C247.327 31.1584 248.639 31.0757 249.929 31.2524C273.554 37.9603 297.826 43.1019 320.501 52.1475C335.77 58.2651 343.193 73.9 349.352 89.1664C351.784 95.732 355.561 101.716 360.442 106.735C373.98 119.472 381.787 133.453 377.825 152.828C375.296 165.344 374.754 178.267 372.563 190.863C370.218 205.169 371.486 219.834 376.251 233.525C378.429 240.187 377.101 248.006 377.348 255.305C369.884 253.821 361.653 253.858 355.165 250.443C348.99 247.225 344.955 240.279 339.909 235.113C338.107 233.365 335.507 230.343 333.848 230.62C319.753 233.004 308.332 225.828 296.147 221.105C286.313 217.275 276.254 214.07 266.26 210.743C252.15 205.995 238.113 200.308 223.611 196.964C207.771 193.279 191.435 191.824 175.301 189.376C158.436 186.813 144.776 192.491 132.544 204.193C122.013 214.196 109.944 221.664 93.5903 217.898ZM89.9685 209.741C102.894 213.062 111.9 205.285 121.492 198.085C126.772 194.112 133.057 189.738 139.273 189.026C155.406 187.161 172.003 185.109 187.929 187.074C206.123 189.358 223.674 196.472 241.817 200.431C266.367 205.815 290.262 212.669 313.134 223.363C318.29 225.778 325.858 225.171 331.581 223.501C337.305 221.832 338.177 223.427 341.047 227.508C346.508 235.239 352.82 242.331 359.865 248.651C362.618 251.111 367.989 250.665 372.183 251.551C372.691 247.667 372.877 243.747 372.739 239.832C371.539 228.75 368.401 217.703 368.528 206.691C368.757 185.526 370.046 164.387 372.39 143.352C373.797 131.229 368.838 123.644 361.438 115.216C354.514 107.022 348.784 97.8889 344.418 88.088C334.681 67.2244 322.149 50.8613 297.015 47.9895C286.653 46.8198 276.586 42.82 266.362 40.2362C261.708 39.0502 256.825 36.8202 252.343 37.4032C231.278 40.1726 211.473 36.6454 192.144 28.539C187.891 27.0646 183.484 26.082 179.008 25.6103C155.926 21.7776 140.204 29.4086 128.444 49.9405C123.556 58.612 118.461 67.3455 107.912 70.5488C94.7491 74.5408 87.8353 82.4408 87.5799 97.1206C87.6497 104.074 86.0209 110.94 82.8348 117.12C79.6487 123.301 75.0019 128.609 69.2981 132.584C64.7769 135.852 61.8776 142.793 60.3901 148.608C57.4262 160.336 57.4111 172.93 53.5566 184.327C47.0475 203.493 51.8099 219.668 62.82 235.07C69.8239 244.862 78.2741 244.335 83.1827 233.348C86.2489 226.331 87.4706 218.601 89.9685 209.741Z" fill="black"/>
<path d="M89.9694 209.741C87.4715 218.601 86.2499 226.331 83.1522 233.235C78.243 244.222 69.7935 244.749 62.7895 234.957C51.7791 219.556 47.0167 203.38 53.5259 184.214C57.3865 172.875 57.4017 160.281 60.3597 148.496C61.8466 142.68 64.804 135.733 69.2676 132.47C74.9708 128.496 79.6177 123.187 82.8043 117.007C85.9905 110.827 87.6193 103.961 87.5495 97.0073C87.9049 82.356 94.814 74.4175 107.881 70.4361C118.431 67.2328 123.43 58.5097 128.413 49.8276C140.174 29.2957 155.887 21.5879 178.977 25.4974C183.453 25.9691 187.86 26.9517 192.113 28.4262C211.461 36.5304 231.305 40.0535 252.312 37.2904C256.805 36.8034 261.678 38.9373 266.331 40.1234C276.556 42.7071 286.623 46.707 296.985 47.8766C322.118 50.7485 334.65 67.1117 344.388 87.9752C348.757 97.7901 354.495 106.936 361.431 115.14C368.83 123.567 373.789 131.153 372.383 143.275C370.012 164.312 368.698 185.454 368.445 206.622C368.278 217.639 371.417 228.686 372.655 239.764C372.793 243.679 372.607 247.599 372.098 251.483C367.904 250.597 362.534 251.043 359.781 248.582C352.736 242.263 346.424 235.171 340.963 227.44C338.093 223.36 337.012 221.806 331.497 223.433C325.983 225.061 318.149 225.716 313.05 223.295C290.178 212.6 266.283 205.746 241.733 200.363C223.667 196.395 206.115 189.281 187.845 187.006C171.919 185.041 155.321 187.092 139.189 188.957C132.969 189.632 126.687 194.044 121.408 198.017C111.9 205.285 102.895 213.062 89.9694 209.741ZM87.0748 204.712C74.1867 185.783 85.0713 169.718 93.6797 155.047C102.287 140.375 109.977 126.192 114.585 109.914C115.96 105.374 118.815 101.426 122.693 98.6968C133.139 92.0265 142.077 84.5286 148.163 73.2978C150.609 68.7966 156.353 64.9868 161.408 63.2344C171.736 59.9682 182.245 57.304 192.882 55.2559C195.678 54.509 198.63 54.5942 201.377 55.501C222.914 64.981 246.057 66.6886 268.765 71.028C291.833 75.4454 309.594 89.3377 317.83 111.588C324.934 130.911 328.132 151.648 334.307 171.362C339.562 188.145 346.621 204.364 352.873 220.844L356.464 219.386L340.852 182.837L358.24 185.576C349.486 179.705 337.143 181.412 338.608 167.495L356.467 167.23C346.023 161.542 329.236 164.353 331.12 144.814C332.253 133.032 322.418 118.261 340.529 110.993L326.701 116.379C317.885 101.691 317.885 101.691 327.849 86.4452L316.385 97.1708C310.086 87.0691 293.163 84.1428 298.163 67.0058C296.646 69.6772 295.131 72.3672 294.908 72.8188C279.591 69.6603 265.387 66.5559 251.093 63.8694C240.598 62.0145 230 61.1811 219.725 58.8554C208.425 56.1943 197.754 51.8131 193.849 38.7118L195.057 49.8707L192.899 50.7459L186.917 40.8818C189.864 51.4246 183.919 54.809 175.496 57.199C163.022 60.9221 151.546 62.0297 142.192 50.0828L148.465 61.198L136.672 59.9112L145.484 67.3893C139.394 74.4624 134.412 81.7257 128.008 87.3362C119.133 95.0605 112.622 86.2252 104.579 83.5218L116.145 94.3737L111.248 102.95C106.487 98.627 102.226 94.7945 97.9635 90.9429C98.6307 94.9511 101.087 97.3664 102.738 100.239C104.896 104.027 108.56 108.623 107.905 112.076C105.088 125.343 100.841 138.317 92.3481 149.031L80.097 140.643L79.0883 142.268L90.1207 156.618L76.5368 151.347L73.5433 152.76C86.6874 158.991 83.6525 166.297 79.4577 175.807C75.0354 185.73 78.6857 196.119 87.0748 204.712ZM150.469 85.7951C141.426 97.3466 137.995 110.33 139.079 125.894L150.469 85.7951ZM274.447 167.785C287.452 153.181 295.832 136.941 292.386 116.6C293.284 136.013 283.47 151.747 274.443 167.747L274.447 167.785ZM281.499 104.314C277.554 120.074 273.658 135.575 269.748 151.117C278.793 136.709 283.159 121.254 281.495 104.276L281.499 104.314ZM169.597 71.4214L166.091 70.0718C161.711 81.8817 157.325 93.6864 152.931 105.485L155.502 106.45L169.597 71.4214ZM130.01 131.463L139.264 94.7829C130.747 105.811 126.812 117.721 130.01 131.463Z" fill="#FFDE6A"/>
<path d="M87.0744 204.711C78.6277 196.125 74.978 185.735 79.3787 175.795C83.573 166.285 86.6084 158.98 73.4644 152.749L76.4579 151.336L90.0418 156.606L79.0094 142.256L80.0181 140.632L92.2692 149.019C100.828 138.376 105.009 125.331 107.826 112.064C108.558 108.604 104.894 104.007 102.659 100.227C101.008 97.3552 98.5413 94.8438 97.8846 90.9316C102.186 94.7792 106.485 98.6076 111.169 102.938L116.066 94.3625L104.5 83.51C112.562 86.2116 119.131 95.0406 127.929 87.3244C134.333 81.7139 139.313 74.4313 145.405 67.3781L136.593 59.9L148.386 61.1862L142.196 50.1206C151.55 62.0673 163.026 60.9598 175.5 57.2367C183.912 54.7507 189.869 51.4623 186.92 40.9195L192.903 50.7836L195.061 49.9084L193.84 38.6343C197.753 51.8124 208.415 56.0976 219.717 58.7779C229.999 61.181 240.655 62.0074 251.045 63.9711C265.34 66.6576 279.544 69.762 294.861 72.9205C295.142 72.463 296.656 69.7724 298.116 67.1075C293.107 84.1676 310.003 87.194 316.338 97.2725L327.801 86.5468C317.799 101.797 317.799 101.797 326.654 116.48L340.482 111.094C322.294 118.371 332.206 133.134 331.074 144.916C329.199 164.551 345.976 161.643 356.42 167.332L338.56 167.597C337.096 181.514 349.439 179.807 358.193 185.678L340.805 182.938L356.416 219.487L352.826 220.946C346.574 204.465 339.573 188.24 334.26 171.464C327.999 151.681 324.868 131.014 317.832 111.607C309.596 89.3562 291.777 75.4702 268.766 71.0278C246.112 66.6628 222.969 64.9546 201.49 55.4686C198.743 54.5618 195.791 54.4766 192.995 55.2235C182.339 57.2779 171.811 59.9506 161.465 63.2273C156.411 64.9803 150.666 68.7894 148.221 73.2906C142.134 84.5215 133.196 92.02 122.75 98.6903C118.872 101.419 116.018 105.368 114.642 109.907C110.092 126.179 102.285 140.53 93.7369 155.04C85.189 169.549 74.2444 185.776 87.0744 204.711Z" fill="black"/>
<path d="M150.468 85.7949L139.078 125.893C137.99 110.291 141.478 97.3011 150.468 85.7949Z" fill="black"/>
<path d="M274.442 167.746C283.47 151.746 293.245 136.016 292.381 116.561C295.827 136.901 287.37 153.15 274.442 167.746Z" fill="black"/>
<path d="M281.495 104.275C283.158 121.253 278.792 136.708 269.743 151.078C273.654 135.536 277.549 120.035 281.495 104.275Z" fill="black"/>
<path d="M169.597 71.4207L155.502 106.449L152.931 105.484C157.324 93.6857 161.711 81.881 166.09 70.071L169.597 71.4207Z" fill="black"/>
<path d="M130.009 131.461C126.811 117.72 130.746 105.809 139.263 94.7815L130.009 131.461Z" fill="black"/>
<path d="M167.904 145.863C168.665 145.129 169.269 144.116 170.206 143.697C173.405 142.422 173.307 140.345 172.878 137.725C170.713 125.792 171.532 113.577 175.277 101.962C176.209 99.1302 177.518 96.41 179.178 93.8591C184.328 86.0539 192.188 85.9485 196.733 94.1035C199.657 99.7186 201.711 105.664 202.839 111.776C204.592 121.317 204.5 131.058 202.566 140.572L210.641 145.915L209.919 146.788C205.491 144.902 201.259 142.318 196.617 141.322C191.82 140.324 186.842 140.241 182.007 141.078C177.286 141.951 172.955 144.57 168.469 146.316L167.904 145.863ZM190.862 91.048C190.289 90.6493 189.627 90.3647 188.921 90.2122C188.215 90.0598 187.481 90.0435 186.767 90.1639C186.054 90.2844 185.376 90.5393 184.781 90.9112C184.186 91.2831 183.685 91.7644 183.313 92.3226C181.286 94.6424 179.631 97.2056 178.398 99.9363C175.279 107.37 173.808 115.276 174.068 123.213C174.068 128.941 174.711 134.669 175.082 140.816L180.427 139.069V117.381C180.427 115.216 181.226 113.889 184.016 113.644C185.526 113.425 186.961 112.9 188.209 112.108C190.531 110.833 190.57 109.226 188.209 107.987C186.252 107.096 184.232 106.32 182.162 105.664C183.859 100.303 184.815 94.6104 190.862 91.048Z" fill="black"/>
<path d="M221.326 145.993C222.164 145.256 222.843 144.238 223.861 143.799C226.717 142.658 226.996 140.902 226.537 138.409C224.276 126.837 224.903 114.971 228.374 103.632C229.592 99.7466 231.448 96.0381 233.885 92.6246C238.417 86.392 245.166 86.5148 249.858 92.6246C254.431 98.4702 256.208 105.212 257.266 112.094C258.699 121.636 258.551 131.31 256.827 140.814L264.953 146.169L263.995 147.679C257.706 143.518 251.037 140.463 243.09 140.34C235.143 140.218 228.394 143.185 221.964 147.135L221.326 145.993ZM244.847 91.027C244.388 90.6586 243.849 90.377 243.263 90.1989C242.676 90.0214 242.053 89.9503 241.434 89.9917C240.815 90.0324 240.213 90.1849 239.663 90.4381C239.113 90.6918 238.628 91.0416 238.238 91.4659C235.979 93.6437 234.102 96.105 232.667 98.7688C228.996 106.676 227.281 115.18 227.635 123.715C227.635 129.386 228.314 135.038 228.714 141.095L234.164 139.34C234.164 131.668 234.164 124.576 234.164 117.466C234.164 115.324 234.943 113.954 237.839 113.709C239.387 113.485 240.856 112.95 242.131 112.146C244.527 110.865 244.547 109.249 242.131 108.021C240.155 107.135 238.114 106.367 236.021 105.721C237.599 100.279 238.737 94.6256 244.847 91.027Z" fill="black"/>
<path d="M186.788 72.853C188.769 73.2773 190.703 73.8686 192.566 74.62C192.997 74.9622 193.326 75.3999 193.521 75.8916C193.717 76.3829 193.773 76.9125 193.682 77.4293C193.348 77.8495 192.901 78.1841 192.386 78.4007C191.87 78.6172 191.301 78.7085 190.736 78.666C188.225 77.7325 185.439 77.6254 182.851 78.3628C180.264 79.1002 178.035 80.6373 176.542 82.7121C176.042 83.3302 174.616 83.2772 173.596 83.542C173.305 82.704 173.194 81.8222 173.269 80.9452C174.675 76.7047 180.798 73.2418 186.788 72.853Z" fill="black"/>
<path d="M244.667 72.853C251.131 73.1964 255.854 75.1316 258.512 80.0879C258.99 80.9923 258.512 82.385 258.397 83.542C257.326 83.1084 255.95 82.9275 255.28 82.1679C253.806 80.2258 251.693 78.7987 249.273 78.1085C246.852 77.4182 244.258 77.5038 241.894 78.3512C240.9 78.641 239.466 77.5556 238.242 77.1034C238.816 76.054 239.141 74.5711 240.154 74.0828C241.592 73.4798 243.111 73.066 244.667 72.853Z" fill="black"/>
<path d="M191.969 90.5795C185.27 94.1425 184.212 100.022 182.354 105.492C184.646 106.161 186.884 106.952 189.052 107.861C191.645 109.126 191.602 110.765 189.052 112.065C187.669 112.874 186.08 113.41 184.406 113.633C181.316 113.865 180.43 115.237 180.43 117.446V139.644L174.51 141.426C174.099 135.155 173.472 129.311 173.386 123.468C173.099 115.37 174.728 107.303 178.183 99.7193C179.55 96.9326 181.382 94.3183 183.628 91.9513C184.034 91.3792 184.582 90.8839 185.235 90.4992C185.89 90.1139 186.636 89.848 187.425 89.7188C188.213 89.589 189.025 89.5983 189.809 89.7467C190.592 89.8951 191.328 90.1791 191.969 90.5795Z" fill="white"/>
<path d="M247.234 90.6587C240.024 94.3055 238.681 100.033 236.82 105.583C239.29 106.238 241.698 107.016 244.03 107.913C246.88 109.158 246.857 110.795 244.03 112.093C242.525 112.908 240.791 113.45 238.964 113.677C235.548 113.854 234.629 115.313 234.629 117.483C234.629 124.599 234.629 131.874 234.629 139.647L228.197 141.426C227.726 135.289 227.019 129.561 226.925 123.816C226.514 115.18 228.365 106.65 232.69 98.649C234.383 95.9503 235.552 93.8719 238.217 91.665C238.671 91.2297 239.898 90.4731 240.544 90.21C241.189 89.9469 242.456 89.692 243.187 89.6437C243.917 89.5954 244.653 89.66 245.349 89.8346C246.045 90.0092 246.686 90.2897 247.234 90.6587Z" fill="white"/>
<path d="M195.489 153.685C199.588 162.303 206.363 167.872 217.219 166.493C221.971 165.971 226.467 164.292 230.205 161.643C233.943 158.994 236.777 155.478 238.39 151.488C238.563 151.982 238.987 152.544 238.871 152.987C237.409 158.454 236.042 163.972 234.31 169.388C232.385 175.485 228.536 180.475 221.492 182.757C217.811 183.879 213.797 183.793 210.183 182.515C206.568 181.235 203.594 178.85 201.802 175.791C199.805 172.209 198.213 168.461 197.048 164.602C196.009 161.775 195.296 158.863 194.507 155.985C194.412 155.346 194.412 154.699 194.507 154.06L195.489 153.685ZM206.633 177.733C212.407 182.842 221.183 183.047 224.494 178.38C221.588 174.429 219.952 174.173 215.275 176.916C211.387 174.054 209.866 174.173 206.633 177.733Z" fill="black"/>
<path d="M214.966 186.93L222.511 186.249C222.475 186.664 222.346 187.068 222.133 187.439C221.92 187.81 221.626 188.14 221.269 188.41C220.911 188.681 220.497 188.886 220.049 189.015C219.602 189.144 219.131 189.194 218.662 189.161C216.641 189.161 214.966 188.684 214.966 186.93Z" fill="black"/>
<path d="M206.631 177.733C209.865 174.174 211.385 174.055 215.273 176.916C219.95 174.174 221.586 174.429 224.493 178.381C221.182 183.047 212.463 182.809 206.631 177.733Z" fill="#FF0D1C"/>
</svg>
