<svg width="166" height="166" viewBox="0 0 166 166" fill="none" xmlns="http://www.w3.org/2000/svg">
<g filter="url(#filter0_bd_135_2682)">
<rect x="31.3555" y="31.3555" width="103" height="103" rx="20.6" fill="white" fill-opacity="0.75" shape-rendering="crispEdges"/>
<g clip-path="url(#clip0_135_2682)">
<path d="M115.307 79.8351C114.944 79.5638 114.576 79.3309 114.269 79.0525C113.865 78.6949 113.821 78.3637 113.999 77.8715C114.024 77.805 114.036 77.7341 114.032 77.6631C114.029 77.5922 114.011 77.5225 113.979 77.4587C113.812 77.2256 113.703 76.9571 113.661 76.6748C113.618 76.3925 113.644 76.1044 113.736 75.8336C113.823 75.5868 113.855 75.3246 113.832 75.0643C113.808 74.8041 113.729 74.5516 113.599 74.3238C113.479 74.0911 113.405 73.8376 113.382 73.5773C113.356 73.3875 113.393 73.1944 113.489 73.0274C113.584 72.8605 113.732 72.729 113.911 72.6531C114.074 72.5756 114.259 72.5572 114.434 72.6011C114.609 72.6451 114.763 72.7485 114.868 72.8931C115.131 73.2228 115.367 73.5719 115.575 73.9373C115.696 74.1651 115.805 74.399 115.901 74.6382C116.045 74.031 116.127 73.5269 116.283 73.0444C116.549 72.2187 116.827 71.3906 117.17 70.5936C117.327 70.2657 117.573 69.9873 117.881 69.7894C118.001 69.7156 118.135 69.6693 118.275 69.6538C118.415 69.6385 118.557 69.6545 118.69 69.7006C118.811 69.7816 118.912 69.8884 118.985 70.0131C119.059 70.1378 119.102 70.2771 119.114 70.4208C119.063 70.9965 118.961 71.5668 118.809 72.1251C118.627 72.8144 118.483 73.5132 118.378 74.2182C118.531 73.8869 118.685 73.5557 118.841 73.2245C119.189 72.4731 119.521 71.7098 119.901 70.9729C120.07 70.6677 120.291 70.394 120.556 70.1639C120.718 70.0235 120.923 69.9387 121.138 69.9223C121.354 69.9058 121.569 69.9586 121.752 70.0728C121.916 70.1785 122.036 70.3379 122.092 70.5228C122.149 70.7077 122.137 70.9062 122.059 71.0832C121.757 71.8539 121.418 72.6124 121.045 73.3493C120.738 73.9542 120.361 74.5231 120.071 75.1687C120.281 74.9671 120.48 74.7535 120.699 74.5638C121.204 74.0971 121.735 73.6595 122.29 73.2533C122.596 73.0591 122.957 72.9666 123.32 72.9892C123.452 72.9873 123.582 73.0215 123.695 73.0881C123.809 73.1547 123.901 73.2511 123.962 73.3664C124.023 73.4817 124.05 73.6115 124.04 73.7411C124.031 73.8707 123.985 73.9952 123.907 74.1006C123.6 74.5379 123.245 74.9403 122.848 75.3008C122.612 75.521 122.354 75.7171 122.078 75.8864C121.434 76.3293 120.948 76.9609 120.69 77.6915C120.366 78.5244 119.959 79.3214 119.004 79.6526C118.919 79.6814 118.858 79.7894 118.802 79.871C118.278 80.6344 117.913 80.7856 117.053 80.5024C116.729 80.3968 116.598 80.4591 116.451 80.7544C115.923 81.9145 115.096 82.9182 114.052 83.6661C112.62 84.643 111.073 84.7558 109.451 84.2397C109.354 84.2152 109.263 84.1712 109.184 84.1105C109.105 84.0499 109.04 83.9738 108.992 83.8872C108.944 83.8005 108.914 83.7051 108.905 83.6068C108.896 83.5084 108.908 83.4093 108.94 83.3156C109.059 82.9556 109.427 82.8043 109.887 82.8763C110.473 83.0033 111.07 83.0718 111.67 83.0804C112.491 83.042 113.175 82.6122 113.767 82.0578C114.424 81.424 114.947 80.6687 115.307 79.8351ZM117.499 79.2758L117.535 79.1174C117.652 79.1094 117.769 79.1175 117.884 79.1413C118.943 79.5327 119.331 79.4246 119.971 78.5076C120.146 78.2744 120.284 78.0162 120.38 77.7419C120.682 76.7385 121.338 76.0496 122.193 75.4616C122.708 75.0771 123.174 74.6321 123.581 74.1366C123.646 74.0416 123.686 73.9321 123.697 73.818C123.708 73.704 123.69 73.5891 123.644 73.4837C123.558 73.4037 123.454 73.344 123.341 73.3095C123.228 73.275 123.109 73.2665 122.992 73.2845C122.705 73.3471 122.437 73.4753 122.21 73.6589C121.8 73.9694 121.414 74.3079 121.053 74.6719C120.697 75.0319 120.066 75.2911 120.539 76.0929C119.974 75.6128 119.564 75.1855 119.077 74.8926C118.532 74.6248 117.967 74.3992 117.387 74.2182V74.1101L118.013 74.0718C118.298 73.0252 118.585 71.9762 118.86 70.9225C118.901 70.7526 118.908 70.5767 118.882 70.404C118.821 69.9047 118.395 69.7151 117.993 70.032C117.773 70.202 117.591 70.4143 117.457 70.656C116.795 71.9067 116.51 73.2748 116.24 74.6454C116.218 74.7583 116.339 74.9263 116.439 75.0295C116.75 75.3251 116.975 75.6967 117.092 76.1062C117.209 76.5157 117.213 76.9486 117.104 77.3603C117.075 77.4779 116.939 77.5715 116.861 77.6748L116.761 77.5883C117.085 76.5201 116.848 75.6464 115.879 74.9983C115.726 74.8452 115.606 74.6642 115.523 74.4654C115.278 74.0056 115.007 73.56 114.71 73.1308C114.629 73.049 114.528 72.9889 114.417 72.9562C114.305 72.9235 114.187 72.9191 114.074 72.9436C113.973 73.0251 113.89 73.1257 113.829 73.2396C113.769 73.3533 113.732 73.478 113.721 73.6061C113.731 73.8515 113.805 74.0903 113.935 74.2998C114.058 74.5245 114.133 74.7713 114.157 75.0254C114.18 75.2795 114.151 75.5356 114.072 75.7784C113.748 76.7385 114.072 77.3266 114.953 77.91C115.104 78.0083 115.263 78.0948 115.441 78.2076C115.197 78.33 115.197 78.33 114.33 77.9124C114.275 77.9758 114.234 78.0497 114.209 78.1294C114.184 78.2091 114.176 78.293 114.185 78.376C114.194 78.4589 114.22 78.5391 114.262 78.6117C114.303 78.6844 114.36 78.7478 114.427 78.7981C115.3 79.5441 116.343 80.0704 117.467 80.332C117.991 80.452 118.334 80.2144 118.522 79.7031L117.499 79.2758ZM119.813 74.9215C120.249 74.1558 120.699 73.4092 121.101 72.6387C121.375 72.127 121.601 71.592 121.776 71.0401C121.797 70.9124 121.79 70.7817 121.754 70.6573C121.718 70.5329 121.655 70.4177 121.569 70.32C121.325 70.08 120.994 70.1831 120.736 70.3992C120.603 70.4918 120.492 70.6103 120.407 70.7472C119.806 71.9354 119.221 73.1284 118.624 74.3334L119.813 74.9215Z" fill="#0D0D0D"/>
<path d="M117.494 79.2757L118.517 79.703C118.33 80.2143 117.986 80.4519 117.463 80.3319C116.339 80.07 115.297 79.5437 114.425 78.7981C114.358 78.7477 114.301 78.6843 114.26 78.6117C114.218 78.5392 114.192 78.4589 114.182 78.3759C114.173 78.293 114.181 78.209 114.206 78.1293C114.231 78.0496 114.273 77.9758 114.328 77.9123C115.197 78.33 115.197 78.33 115.438 78.2076C115.248 78.0947 115.09 78.0084 114.951 77.91C114.072 77.3267 113.733 76.729 114.07 75.7784C114.149 75.5356 114.178 75.2795 114.155 75.0254C114.131 74.7713 114.056 74.5245 113.933 74.2998C113.803 74.0904 113.729 73.8515 113.719 73.6061C113.73 73.478 113.766 73.3533 113.827 73.2395C113.888 73.1258 113.971 73.0251 114.072 72.9435C114.185 72.9191 114.303 72.9234 114.414 72.9562C114.526 72.989 114.627 73.0491 114.708 73.1308C115.005 73.5599 115.276 74.0055 115.521 74.4654C115.603 74.6642 115.724 74.8452 115.877 74.9983C116.851 75.6464 117.095 76.5202 116.759 77.5883L116.859 77.6747C116.944 77.5715 117.08 77.4778 117.102 77.3602C117.21 76.95 117.206 76.5189 117.09 76.1108C116.974 75.7026 116.75 75.3321 116.442 75.0367C116.342 74.9335 116.22 74.7654 116.242 74.6526C116.508 73.282 116.793 71.9138 117.46 70.6632C117.594 70.4215 117.776 70.2091 117.996 70.0391C118.398 69.7222 118.824 69.9119 118.885 70.4111C118.911 70.5838 118.903 70.7597 118.863 70.9297C118.588 71.9834 118.3 73.0324 118.015 74.0789L117.39 74.1174V74.2253C117.97 74.4065 118.535 74.632 119.08 74.8999C119.567 75.1856 119.979 75.6199 120.541 76.1001C120.069 75.2984 120.7 75.0391 121.055 74.679C121.416 74.315 121.803 73.9766 122.212 73.6661C122.44 73.4826 122.707 73.3542 122.994 73.2916C123.111 73.2736 123.231 73.2822 123.344 73.3168C123.457 73.3512 123.561 73.4108 123.647 73.4908C123.693 73.5962 123.711 73.7112 123.7 73.8253C123.689 73.9392 123.649 74.0488 123.584 74.1437C123.177 74.6394 122.711 75.0843 122.195 75.4688C121.34 76.0569 120.685 76.7458 120.383 77.7492C120.287 78.0234 120.149 78.2816 119.974 78.5149C119.333 79.4318 118.946 79.5398 117.886 79.1486C117.772 79.1246 117.655 79.1166 117.538 79.1246L117.494 79.2757ZM117.385 78.4116L118.797 76.8946C118.391 76.6785 117.446 77.5907 117.385 78.4116Z" fill="white"/>
<path d="M119.808 74.9217L118.619 74.336C119.216 73.1358 119.8 71.9357 120.402 70.7498C120.487 70.6129 120.598 70.4945 120.731 70.4018C120.989 70.1857 121.32 70.0753 121.564 70.3225C121.65 70.4202 121.713 70.5354 121.749 70.6598C121.785 70.7843 121.792 70.915 121.771 71.0427C121.596 71.5946 121.37 72.1296 121.096 72.6414C120.694 73.4094 120.244 74.1559 119.808 74.9217Z" fill="white"/>
<path d="M117.385 78.412C117.446 77.5911 118.391 76.6789 118.798 76.895L117.385 78.412Z" fill="#0D0D0D"/>
<path d="M43.1547 97.1855C42.4399 97.6162 41.7928 97.4212 41.3715 96.5197C40.3302 96.3818 39.9706 95.9184 40.1629 94.8816C40.3326 93.9581 40.5709 93.0387 41.2404 92.3274C41.6102 91.9448 41.9994 91.6286 42.2004 91.0965C42.3823 90.6123 42.9054 90.5303 43.3881 90.5696C43.6631 90.5934 43.7827 90.538 43.874 90.268C45.1206 86.6321 47.7219 84.3367 51.302 83.0182C51.3857 82.9882 51.4717 82.959 51.5583 82.9375C51.6543 82.9039 51.7561 82.8897 51.8577 82.8956C51.9595 82.9016 52.0588 82.9276 52.1501 82.9721C52.2415 83.0166 52.3228 83.0788 52.3893 83.1548C52.4557 83.2309 52.506 83.3192 52.5372 83.4148C52.5677 83.5113 52.577 83.6131 52.5648 83.7134C52.5526 83.8138 52.519 83.9104 52.4662 83.9971C52.4135 84.0839 52.3428 84.1585 52.2587 84.2165C52.1747 84.2743 52.0792 84.3141 51.9784 84.3331C50.7807 84.6984 49.6582 85.2702 48.6633 86.022C47.2089 87.0916 46.0893 88.5429 45.4326 90.2102C45.3427 90.4397 45.2958 90.6815 45.2172 90.9525C45.3467 91.0144 45.4642 91.073 45.5861 91.1253C46.2208 91.3984 46.3495 91.6413 46.28 92.2998C46.2793 92.4778 46.329 92.6524 46.4234 92.8042C46.8775 93.6281 47.1182 94.4837 46.7377 95.3936C46.6916 95.5093 46.6223 95.6145 46.5339 95.7031C46.4455 95.7917 46.3399 95.8617 46.2234 95.9089C45.8202 96.0146 45.706 96.301 45.5522 96.5993C45.3057 97.0831 44.9752 97.5176 44.3746 97.5013C44.0125 97.5012 43.6617 97.3284 43.1547 97.1855ZM41.5957 96.068C41.6766 96.4936 41.7885 96.9993 42.2976 97.0102C42.6908 97.019 43.0875 96.7842 43.5177 96.648C43.6071 96.9281 43.7925 97.2786 44.2657 97.2616C44.4958 97.2491 44.7162 97.1663 44.8964 97.0248C45.0765 96.8832 45.2075 96.6899 45.271 96.4716C45.437 95.968 45.5673 95.4536 45.6609 94.9321C45.6938 94.7207 45.7134 94.5073 45.7195 94.2935L45.8555 94.2884C46.1605 94.7262 45.8368 95.2443 45.9292 95.7368C46.103 95.6871 46.2584 95.5888 46.3765 95.4537C46.4947 95.3187 46.5706 95.1528 46.595 94.9761C46.6652 94.7076 46.681 94.4281 46.6416 94.1536C46.6021 93.8791 46.5082 93.6149 46.3651 93.3762C46.222 93.1374 46.0326 92.9289 45.8076 92.7623C45.5827 92.5957 45.3267 92.4745 45.0542 92.4055C44.9356 92.3537 44.8234 92.2887 44.7198 92.2118L44.7919 92.0614L45.9182 92.3788C46.0744 92.0277 46.0574 91.7298 45.7718 91.5727C44.9421 91.0785 43.9808 90.8413 43.0126 90.892C42.9205 90.8951 42.8301 90.9166 42.7468 90.9553C42.6634 90.994 42.589 91.0489 42.5279 91.1168C42.4668 91.1847 42.4204 91.2642 42.3914 91.3503C42.3625 91.4365 42.3516 91.5275 42.3595 91.618C43.1815 91.5311 43.4657 91.6035 43.603 91.9684C43.5321 91.9784 43.4604 91.9803 43.3891 91.9744C42.4678 91.7709 41.7154 92.0458 41.216 92.8304C40.7593 93.5353 40.4889 94.3416 40.4293 95.1758C40.374 95.9634 40.7949 96.2961 41.5957 96.068Z" fill="#0D0D0D"/>
<path d="M41.5966 96.0681C40.7957 96.2961 40.3749 95.9634 40.426 95.1722C40.4856 94.338 40.7561 93.5317 41.2128 92.8268C41.7122 92.0421 42.4645 91.7673 43.3859 91.9709C43.4572 91.9767 43.5289 91.9747 43.5998 91.9649C43.4618 91.6023 43.1776 91.5297 42.3563 91.6144C42.3484 91.5239 42.3592 91.4329 42.3882 91.3468C42.4171 91.2605 42.4636 91.1812 42.5247 91.1133C42.5858 91.0453 42.6602 90.9904 42.7436 90.9517C42.8269 90.913 42.9173 90.8915 43.0094 90.8883C43.9776 90.8376 44.9389 91.0749 45.7686 91.5692C46.0542 91.7261 46.0712 92.0241 45.915 92.3752L44.7887 92.0577L44.7165 92.2082C44.8202 92.2851 44.9324 92.3502 45.051 92.4019C45.3235 92.4709 45.5795 92.5922 45.8044 92.7587C46.0294 92.9253 46.2188 93.1339 46.3619 93.3726C46.505 93.6113 46.5989 93.8754 46.6384 94.15C46.6778 94.4245 46.662 94.704 46.5918 94.9726C46.5674 95.1492 46.4915 95.3151 46.3733 95.4501C46.2551 95.5852 46.0998 95.6835 45.926 95.7332C45.8336 95.2407 46.1573 94.7226 45.8523 94.2849L45.7163 94.2899C45.7102 94.5037 45.6906 94.717 45.6577 94.9285C45.564 95.45 45.4338 95.9644 45.2678 96.4681C45.2043 96.6863 45.0733 96.8796 44.8931 97.0211C44.713 97.1627 44.4926 97.2454 44.2625 97.258C43.7893 97.275 43.6039 96.9245 43.5145 96.6443C43.085 96.7782 42.6876 97.0155 42.2943 97.0066C41.7894 96.9994 41.6775 96.4937 41.5966 96.0681Z" fill="white"/>
<path d="M68.2278 103.669C68.1829 103.505 68.1471 103.382 68.1142 103.267C66.8854 103.291 66.4518 102.911 66.7358 101.951C66.9091 101.417 67.1845 100.909 67.552 100.444C67.6749 100.289 67.7581 100.117 67.7972 99.9356C67.8362 99.7547 67.8301 99.5693 67.7793 99.3903C67.3638 97.4411 67.4803 95.5402 68.467 93.6872C69.2826 92.1978 70.5794 90.9115 72.2223 89.9622C72.3144 89.8973 72.4219 89.8482 72.5384 89.818C72.655 89.7878 72.7779 89.7771 72.8998 89.7865C73.0216 89.7959 73.1398 89.8254 73.2469 89.8731C73.3541 89.9206 73.448 89.9853 73.5229 90.0633C73.8518 90.4122 73.7621 90.8237 73.2657 91.1245C71.3561 92.22 70.0251 93.8509 69.5344 95.6965C69.285 96.6834 69.2457 97.6972 69.4178 98.6948C69.8158 98.6701 70.2156 98.6701 70.6137 98.6948C70.9161 98.7186 71.1948 98.8368 71.3903 99.0238C71.5859 99.2108 71.6827 99.4521 71.6602 99.6959C71.6602 99.9148 71.6811 100.064 71.9891 100.16C74.1598 100.832 74.8205 101.633 74.7817 103.758C74.7487 105.485 73.9385 107.057 72.7964 108.503C72.5632 108.812 72.236 109.068 71.8458 109.247C71.4555 109.426 71.015 109.522 70.5659 109.526C69.4116 109.559 68.2558 109.509 67.1126 109.377C63.9343 108.953 63.8835 106.166 65.3515 104.831C65.712 104.494 66.1517 104.218 66.6453 104.018C67.139 103.819 67.6768 103.7 68.2278 103.669ZM68.0244 100.396C67.4863 101.012 67.0736 101.599 67.0289 102.285C66.987 102.891 67.4176 103.156 68.0813 102.903C68.5723 102.69 69.0484 102.454 69.5074 102.198C69.651 102.129 69.8065 102.071 69.953 102.008L70.1025 102.184C69.654 102.449 69.2055 102.704 68.76 102.983C68.6405 103.06 68.4969 103.224 68.5238 103.31C68.5899 103.463 68.7081 103.597 68.8647 103.698C68.9484 103.758 69.1038 103.748 69.2265 103.772C69.7858 103.87 70.3149 104.057 70.7818 104.324C71.2489 104.59 71.6443 104.93 71.9443 105.322C72.0158 105.452 72.065 105.59 72.0907 105.731L71.9084 105.786C71.8007 105.659 71.6961 105.531 71.5855 105.406C70.7303 104.444 69.5792 103.914 68.1112 103.991C66.697 104.066 65.6804 104.699 65.0735 105.724C64.329 106.985 64.7954 107.926 66.4578 108.308C67.4371 108.509 68.4385 108.633 69.4477 108.679C71.3732 108.806 72.4526 108.246 73.0176 106.775C73.4592 105.622 73.8285 104.45 74.1239 103.267C74.4946 101.772 73.4481 100.656 71.5496 100.398C71.421 100.663 71.2895 100.928 71.1579 101.195L70.9217 101.123L71.2446 100.057C71.3523 99.6959 71.3643 99.3349 70.9277 99.1159C70.7087 99.0016 70.4532 98.9408 70.1921 98.9408C69.9312 98.9408 69.6756 99.0016 69.4567 99.1159C69.648 99.6598 69.8453 100.175 70.0097 100.694C70.0741 100.87 70.0509 101.059 69.9452 101.221C69.8393 101.382 69.6593 101.505 69.4432 101.561C69.2271 101.618 68.992 101.605 68.788 101.524C68.5839 101.444 68.427 101.302 68.3504 101.13C68.2398 100.914 68.1561 100.694 68.0244 100.396ZM65.4502 108.457C65.7616 108.644 66.0951 108.805 66.4458 108.939C67.8305 109.336 69.317 109.448 70.7692 109.264C71.2077 109.225 71.6226 109.085 71.9623 108.858C72.302 108.632 72.5515 108.33 72.6797 107.99C71.9144 108.825 70.8709 109.059 69.7228 109.018C68.2724 108.998 66.8333 108.809 65.4502 108.457ZM73.6186 106.354L73.7591 106.383L74.4826 104.08L74.3033 104.044C74.076 104.805 73.8459 105.57 73.6186 106.345V106.354Z" fill="black"/>
<path d="M86.9764 102.102C87.9631 102.187 89.0693 102.102 89.1202 103.327C89.3773 103.229 89.5896 103.135 89.8138 103.063C90.4369 102.831 91.0781 102.633 91.7334 102.468C93.3629 102.127 95.5963 102.93 96.293 104.336C96.7325 105.223 96.4334 106.001 95.7159 106.689C94.2688 108.073 92.3224 108.782 90.2205 109.266C88.8315 109.624 87.342 109.644 85.9389 109.324C84.9971 109.083 84.145 108.703 83.6636 107.991C83.0178 107.009 82.8085 105.969 83.4871 104.911C83.525 104.838 83.5444 104.76 83.5444 104.681C83.5444 104.602 83.525 104.524 83.4871 104.451C82.8504 103.371 83.1882 102.706 84.5995 102.331C84.7539 102.304 84.8943 102.24 85.0013 102.146C85.1084 102.053 85.1769 101.935 85.1974 101.809C86.1631 98.2307 85.4964 94.9219 82.7278 91.9549C82.3271 91.5242 82.3541 91.091 82.7816 90.8336C83.2091 90.5761 83.7324 90.6651 84.139 91.0887C86.7701 93.8342 87.7269 96.9505 87.3053 100.37C87.2335 100.931 87.0931 101.486 86.9764 102.102ZM86.8449 105.914L87.0632 105.799C87.1715 105.913 87.2714 106.033 87.3621 106.157C88.0233 107.149 88.9144 108.029 89.9872 108.751C90.0635 108.805 90.1531 108.845 90.2499 108.868C90.3469 108.892 90.449 108.899 90.5494 108.888C92.2985 108.45 93.919 107.82 95.1986 106.723C96.4783 105.625 96.4604 104.579 95.1419 103.508C94.3376 102.856 93.3479 102.721 92.3762 103.2C91.8379 103.467 91.3367 103.78 90.8813 104.133C89.6696 105.099 88.0327 105.64 86.3276 105.637C85.804 105.631 85.2812 105.674 84.7699 105.765C83.6905 105.974 83.2749 106.713 83.7532 107.519C83.853 107.69 83.9753 107.851 84.118 108C85.3141 109.237 87.9093 109.55 89.766 109.001C88.5282 108.121 87.4787 107.134 86.8449 105.914ZM86.2229 103.768L86.2768 103.645C86.4113 103.645 86.5459 103.662 86.6804 103.662C87.1079 103.662 87.5385 103.662 87.9631 103.642C88.3877 103.623 88.7315 103.486 88.7404 103.103C88.7494 102.721 88.3786 102.526 87.972 102.478C86.7761 102.336 85.5802 102.302 84.4499 102.699C83.3676 103.079 83.221 103.662 83.9327 104.369L84.5696 104.225C84.4624 104.381 84.3383 104.529 84.1988 104.668C83.9587 104.852 83.7685 105.074 83.6399 105.32C83.5112 105.565 83.447 105.83 83.4513 106.097C84.2017 105.426 85.1346 105.349 86.0854 105.375C87.6206 105.401 89.1128 104.966 90.2713 104.155C91.0546 103.64 91.8679 103.149 92.7829 102.577C92.1848 102.68 91.594 102.808 91.0128 102.962C90.2205 103.202 89.4789 103.568 88.6746 103.768C88.0137 103.891 87.3378 103.954 86.6594 103.958C86.5219 103.958 86.3635 103.835 86.2229 103.768Z" fill="black"/>
<path d="M68.0252 100.396C68.1567 100.695 68.2405 100.914 68.3511 101.118C68.4276 101.291 68.5846 101.432 68.7887 101.513C68.9927 101.593 69.2277 101.606 69.4438 101.55C69.6599 101.493 69.84 101.371 69.9459 101.209C70.0517 101.047 70.0748 100.858 70.0105 100.683C69.846 100.163 69.6487 99.6481 69.4574 99.1042C69.6763 98.9898 69.9318 98.929 70.1929 98.929C70.454 98.929 70.7094 98.9898 70.9285 99.1042C71.3649 99.3328 71.3529 99.6842 71.2453 100.045L70.9224 101.111L71.1586 101.183C71.2902 100.916 71.4217 100.651 71.5503 100.387C73.4489 100.644 74.4953 101.761 74.1246 103.255C73.8292 104.439 73.46 105.61 73.0183 106.764C72.4533 108.234 71.3739 108.794 69.4484 108.667C68.4392 108.621 67.4379 108.497 66.4585 108.296C64.7961 107.914 64.3297 106.973 65.0742 105.712C65.6722 104.687 66.6977 104.054 68.1119 103.979C69.5799 103.902 70.7311 104.441 71.5862 105.394C71.6968 105.52 71.8014 105.647 71.909 105.775L72.0914 105.719C72.0658 105.578 72.0165 105.441 71.945 105.31C71.645 104.918 71.2497 104.578 70.7826 104.312C70.3156 104.046 69.7865 103.858 69.2272 103.76C69.1046 103.736 68.9491 103.746 68.8653 103.686C68.7088 103.585 68.5906 103.451 68.5246 103.298C68.4976 103.207 68.6411 103.058 68.7608 102.971C69.1973 102.692 69.6576 102.437 70.1032 102.172L69.9537 101.997C69.8042 102.059 69.6547 102.117 69.5082 102.187C69.0491 102.442 68.573 102.678 68.082 102.892C67.4182 103.144 66.9878 102.88 67.0296 102.273C67.0744 101.59 67.487 101.012 68.0252 100.396Z" fill="#97D5EE"/>
<path d="M65.4502 108.458C66.8339 108.806 68.273 108.992 69.7228 109.009C70.8709 109.05 71.9143 108.816 72.6797 107.981C72.5515 108.321 72.302 108.623 71.9623 108.849C71.6226 109.075 71.2076 109.216 70.7692 109.254C69.317 109.438 67.8305 109.327 66.4458 108.929C66.0955 108.799 65.7621 108.641 65.4502 108.458Z" fill="#97D5EE"/>
<path d="M73.6182 106.345C73.8455 105.575 74.0756 104.805 74.3029 104.035L74.4822 104.071L73.7587 106.374L73.6182 106.345Z" fill="#97D5EE"/>
<path d="M86.8454 105.914C87.4792 107.134 88.5287 108.121 89.7576 109.011C87.9009 109.56 85.2966 109.252 84.1096 108.01C83.9669 107.861 83.8446 107.699 83.7448 107.529C83.2724 106.723 83.6821 105.984 84.7614 105.775C85.2728 105.684 85.7956 105.641 86.3192 105.647C88.0242 105.649 89.661 105.109 90.8728 104.143C91.3283 103.79 91.8294 103.477 92.3678 103.209C93.3514 102.728 94.3291 102.865 95.1334 103.517C96.452 104.588 96.4788 105.637 95.1902 106.732C93.9015 107.827 92.29 108.453 90.5409 108.898C90.4424 108.907 90.3426 108.9 90.2479 108.876C90.1532 108.852 90.0656 108.813 89.9907 108.761C88.918 108.039 88.0268 107.159 87.3656 106.167C87.275 106.043 87.1751 105.923 87.0666 105.808L86.8454 105.914Z" fill="#97D5EE"/>
<path d="M86.224 103.768C86.3705 103.833 86.5229 103.958 86.6635 103.951C87.3418 103.947 88.0177 103.883 88.6786 103.76C89.4829 103.561 90.2245 103.197 91.0168 102.954C91.598 102.801 92.1888 102.672 92.7867 102.569C91.8719 103.142 91.0586 103.633 90.2752 104.148C89.1167 104.959 87.6246 105.394 86.0894 105.368C85.1386 105.349 84.2057 105.426 83.4553 106.09C83.451 105.823 83.5152 105.558 83.6438 105.312C83.7725 105.066 83.9627 104.844 84.2028 104.66C84.3423 104.522 84.4664 104.374 84.5735 104.218L83.9367 104.362C83.225 103.655 83.3716 103.072 84.4539 102.692C85.5871 102.295 86.7861 102.329 87.976 102.471C88.3827 102.519 88.7534 102.711 88.7444 103.096C88.7355 103.481 88.3767 103.611 87.9671 103.635C87.5574 103.659 87.1119 103.652 86.6844 103.655C86.5499 103.655 86.4153 103.655 86.2807 103.638L86.224 103.768Z" fill="#97D5EE"/>
<path d="M57.0843 96.1808C56.6146 97.6187 56.4028 98.961 55.7452 100.043C55.2592 100.839 54.1591 101.826 53.3951 101.775C52.8315 101.695 52.2909 101.501 51.8077 101.204C51.3246 100.907 50.9094 100.514 50.5887 100.05C48.2869 96.2797 47.6018 92.2936 49.4306 88.0318C50.0237 86.6594 50.1938 85.0711 50.3291 83.5617C50.5063 81.6752 51.1984 79.8711 52.3319 78.3408C53.3436 76.8807 54.3336 75.1907 54.6037 73.488C55.0795 70.4544 56.6642 68.8581 59.4739 67.7749C60.8385 67.2465 62.1052 65.9273 62.9129 64.6573C65.2764 60.9357 68.6077 59.6107 72.8581 60.144C73.9992 60.2434 75.123 60.4839 76.2032 60.8598C79.1813 62.0103 82.4162 62.3598 85.5765 61.8725C85.8113 61.8104 86.0564 61.7952 86.2974 61.8277C90.7121 63.0623 95.2475 64.0087 99.4845 65.6736C102.338 66.7995 103.725 69.6772 104.875 72.4871C105.33 73.6955 106.036 74.7969 106.948 75.7207C109.477 78.065 110.936 80.6382 110.196 84.2043C109.723 86.508 109.622 88.8865 109.213 91.2049C108.775 93.8379 109.011 96.5371 109.902 99.0569C110.309 100.283 110.061 101.722 110.107 103.066C108.712 102.793 107.174 102.799 105.962 102.171C104.808 101.579 104.054 100.3 103.111 99.3492C102.774 99.0276 102.289 98.4714 101.978 98.5224C99.3446 98.961 97.2105 97.6403 94.9338 96.7711C93.0961 96.066 91.2165 95.4762 89.3491 94.8638C86.7125 93.99 84.0895 92.9433 81.3797 92.3277C78.4199 91.6495 75.3673 91.3818 72.3526 90.9311C69.2013 90.4594 66.6487 91.5044 64.3631 93.6583C62.3952 95.4994 60.1401 96.8739 57.0843 96.1808ZM56.4075 94.6795C58.8228 95.2907 60.5055 93.8592 62.2978 92.5341C63.2845 91.8029 64.4589 90.9978 65.6204 90.8667C68.635 90.5234 71.7364 90.1457 74.7123 90.5075C78.1119 90.9278 81.3916 92.2371 84.7816 92.966C89.3691 93.9568 93.8339 95.2183 98.1079 97.1867C99.0713 97.631 100.485 97.5194 101.555 97.2121C102.624 96.9048 102.787 97.1985 103.324 97.9496C104.344 99.3725 105.524 100.678 106.84 101.841C107.354 102.294 108.358 102.212 109.142 102.375C109.237 101.66 109.271 100.938 109.246 100.218C109.021 98.1781 108.435 96.1449 108.459 94.118C108.501 90.2226 108.742 86.3318 109.18 82.4602C109.443 80.229 108.517 78.8329 107.134 77.2817C105.84 75.7735 104.769 74.0925 103.954 72.2886C102.134 68.4486 99.7923 65.4368 95.0959 64.9083C93.1597 64.693 91.2786 63.9568 89.3681 63.4812C88.4985 63.2629 87.5859 62.8525 86.7485 62.9598C82.8124 63.4695 79.1117 62.8203 75.4998 61.3283C74.7051 61.0569 73.8816 60.8761 73.0452 60.7893C68.7322 60.0838 65.7945 61.4884 63.5969 65.2674C62.6836 66.8634 61.7316 68.4708 59.7605 69.0604C57.3008 69.7952 56.0089 71.2492 55.9612 73.9511C55.9742 75.231 55.6699 76.4945 55.0745 77.6321C54.4792 78.7697 53.6109 79.7466 52.5451 80.4782C51.7002 81.0798 51.1585 82.3573 50.8805 83.4277C50.3267 85.5863 50.3239 87.9042 49.6036 90.0018C48.3873 93.5294 49.2772 96.5066 51.3346 99.3413C52.6433 101.144 54.2223 101.047 55.1395 99.0245C55.7125 97.7329 55.9407 96.3101 56.4075 94.6795Z" fill="black"/>
<path d="M56.4076 94.6792C55.9408 96.3099 55.7126 97.7327 55.1337 99.0034C54.2164 101.026 52.6375 101.123 51.3288 99.3203C49.2714 96.4856 48.3815 93.5084 49.5978 89.9808C50.3192 87.8937 50.322 85.5758 50.8748 83.4067C51.1526 82.3362 51.7052 81.0576 52.5393 80.4571C53.605 79.7256 54.4733 78.7485 55.0687 77.611C55.6641 76.4735 55.9684 75.2098 55.9554 73.93C56.0218 71.2333 57.3128 69.7722 59.7546 69.0394C61.7259 68.4498 62.6599 66.8443 63.5911 65.2463C65.7887 61.4673 68.7248 60.0486 73.0394 60.7682C73.8758 60.855 74.6993 61.0359 75.4939 61.3073C79.1094 62.7989 82.8173 63.4473 86.7426 62.9388C87.5821 62.8491 88.4927 63.2419 89.3623 63.4602C91.2728 63.9357 93.1539 64.6719 95.0902 64.8872C99.7865 65.4158 102.128 68.4275 103.948 72.2676C104.764 74.074 105.836 75.7574 107.132 77.2673C108.515 78.8185 109.442 80.2146 109.179 82.4458C108.736 86.3176 108.49 90.209 108.443 94.1052C108.412 96.1328 108.998 98.1661 109.23 100.205C109.256 100.926 109.221 101.647 109.126 102.362C108.342 102.199 107.338 102.281 106.824 101.828C105.508 100.665 104.328 99.3596 103.308 97.9367C102.772 97.1857 102.569 96.8997 101.539 97.1993C100.509 97.4988 99.0448 97.6194 98.0921 97.1739C93.8182 95.2054 89.3533 93.9439 84.7658 92.9531C81.3901 92.2227 78.1104 90.9134 74.6964 90.4947C71.7205 90.1329 68.6191 90.5105 65.6046 90.8539C64.4424 90.978 63.2686 91.79 62.2821 92.5213C60.5056 93.859 58.8229 95.2904 56.4076 94.6792ZM55.8667 93.7535C53.4584 90.2695 55.4923 87.3128 57.1009 84.6124C58.7093 81.912 60.1462 79.3015 61.0072 76.3055C61.2642 75.4699 61.7976 74.7432 62.5223 74.2409C64.4741 73.0132 66.1443 71.6332 67.2816 69.5661C67.7386 68.7376 68.8119 68.0364 69.7564 67.7139C71.6864 67.1127 73.65 66.6224 75.6377 66.2454C76.16 66.1079 76.7117 66.1236 77.2251 66.2905C81.2494 68.0354 85.5738 68.3497 89.8171 69.1483C94.1274 69.9614 97.4462 72.5183 98.9853 76.6136C100.313 80.17 100.91 83.9868 102.064 87.6153C103.046 90.7043 104.365 93.6894 105.533 96.7227L106.204 96.4544L103.287 89.7273L106.536 90.2315C104.9 89.1509 102.594 89.465 102.868 86.9036L106.205 86.8548C104.253 85.8079 101.116 86.3252 101.469 82.729C101.68 80.5605 99.8426 77.8419 103.227 76.5041L100.643 77.4953C98.9955 74.7921 98.9955 74.7921 100.857 71.986L98.7153 73.9601C97.5383 72.1008 94.376 71.5622 95.3103 68.408C95.0269 68.8997 94.7437 69.3948 94.7021 69.4779C91.84 68.8966 89.1859 68.3252 86.5148 67.8308C84.5537 67.4894 82.5734 67.336 80.6536 66.9079C78.542 66.4181 76.548 65.6117 75.8183 63.2004L76.0441 65.2542L75.6408 65.4153L74.523 63.5998C75.0738 65.5402 73.9628 66.1632 72.3889 66.603C70.058 67.2883 67.9137 67.4922 66.1658 65.2933L67.338 67.3391L65.1344 67.1022L66.781 68.4786C65.643 69.7805 64.7121 71.1173 63.5154 72.15C61.8571 73.5716 60.6404 71.9455 59.1375 71.4479L61.2988 73.4452L60.3836 75.0237C59.494 74.2281 58.6979 73.5227 57.9013 72.8138C58.026 73.5515 58.485 73.9961 58.7936 74.5247C59.1968 75.2219 59.8814 76.068 59.7589 76.7034C59.2326 79.1452 58.439 81.5332 56.8521 83.5052L54.5628 81.9614L54.3744 82.2605L56.4359 84.9016L53.8976 83.9315L53.3382 84.1915C55.7943 85.3385 55.2272 86.683 54.4434 88.4334C53.617 90.2598 54.2991 92.172 55.8667 93.7535ZM67.7124 71.8663C66.0227 73.9924 65.3817 76.382 65.5842 79.2467L67.7124 71.8663ZM90.8788 86.957C93.3089 84.2691 94.8747 81.28 94.2308 77.5362C94.3986 81.1091 92.5648 84.0051 90.878 86.95L90.8788 86.957ZM92.1966 75.2749C91.4594 78.1755 90.7314 81.0286 90.0007 83.8891C91.6908 81.2373 92.5067 78.3927 92.1958 75.2678L92.1966 75.2749ZM71.2867 69.2208L70.6315 68.9723C69.8131 71.146 68.9935 73.3187 68.1725 75.4903L68.653 75.6679L71.2867 69.2208ZM63.8894 80.2717L65.6187 73.5206C64.0273 75.5503 63.292 77.7425 63.8894 80.2717Z" fill="#FFDE6A"/>
<path d="M55.8664 93.7535C54.2881 92.1732 53.6061 90.261 54.4284 88.4314C55.2121 86.681 55.7793 85.3364 53.3232 84.1896L53.8826 83.9296L56.4209 84.8996L54.3594 82.2585L54.5479 81.9594L56.8371 83.5032C58.4364 81.5442 59.2176 79.1432 59.7439 76.7014C59.8808 76.0646 59.1962 75.2184 58.7786 74.5227C58.47 73.9942 58.0091 73.5319 57.8864 72.8119C58.6901 73.52 59.4934 74.2247 60.3686 75.0218L61.2838 73.4433L59.1225 71.4459C60.629 71.9431 61.8564 73.5681 63.5004 72.1479C64.6971 71.1153 65.6276 69.7749 66.766 68.4767L65.1194 67.1003L67.3231 67.3371L66.1664 65.3004C67.9143 67.4993 70.0585 67.2954 72.3895 66.6101C73.9614 66.1526 75.0744 65.5473 74.5235 63.6069L75.6413 65.4224L76.0446 65.2613L75.8164 63.1863C76.5477 65.6118 78.5398 66.4005 80.6519 66.8938C82.5731 67.3361 84.5642 67.4882 86.5057 67.8496C89.1768 68.3441 91.8309 68.9155 94.6931 69.4968C94.7455 69.4126 95.0285 68.9174 95.3013 68.4269C94.3654 71.5669 97.5224 72.1239 98.7063 73.9789L100.848 72.0048C98.9792 74.8117 98.9792 74.8117 100.634 77.5141L103.218 76.5229C99.8192 77.8623 101.671 80.5794 101.46 82.7479C101.109 86.3618 104.244 85.8267 106.196 86.8737L102.859 86.9225C102.585 89.4839 104.891 89.1697 106.527 90.2504L103.278 89.7461L106.195 96.4732L105.524 96.7416C104.356 93.7082 103.048 90.722 102.055 87.6342C100.885 83.9931 100.3 80.1892 98.9854 76.6172C97.4464 72.5219 94.1168 69.9661 89.8169 69.1485C85.5839 68.3451 81.2595 68.0307 77.246 66.2847C76.7326 66.1178 76.1809 66.1021 75.6586 66.2396C73.6673 66.6177 71.7002 67.1097 69.7669 67.7127C68.8225 68.0354 67.7491 68.7365 67.2922 69.565C66.1547 71.632 64.4847 73.0122 62.5328 74.2399C61.808 74.7421 61.2748 75.4689 61.0177 76.3043C60.1674 79.2993 58.7086 81.9407 57.1113 84.6112C55.5141 87.2819 53.469 90.2685 55.8664 93.7535Z" fill="black"/>
<path d="M67.712 71.8665L65.5838 79.2467C65.3805 76.375 66.0323 73.9842 67.712 71.8665Z" fill="black"/>
<path d="M90.877 86.9499C92.5638 84.0051 94.3904 81.1099 94.2289 77.5291C94.8728 81.2729 93.2926 84.2635 90.877 86.9499Z" fill="black"/>
<path d="M92.1949 75.2678C92.5058 78.3926 91.6899 81.2373 89.999 83.8821C90.7298 81.0215 91.4577 78.1684 92.1949 75.2678Z" fill="black"/>
<path d="M71.286 69.2208L68.6523 75.6679L68.1719 75.4903C68.9928 73.3188 69.8125 71.1461 70.6308 68.9724L71.286 69.2208Z" fill="black"/>
<path d="M63.8893 80.2716C63.2917 77.7424 64.027 75.5502 65.6185 73.5205L63.8893 80.2716Z" fill="black"/>
<path d="M70.9697 82.9221C71.1119 82.7871 71.2248 82.6006 71.3999 82.5235C71.9976 82.2889 71.9793 81.9065 71.8991 81.4243C71.4946 79.2279 71.6477 76.9798 72.3475 74.8419C72.5215 74.3208 72.7662 73.8201 73.0764 73.3506C74.0387 71.914 75.5075 71.8946 76.3568 73.3956C76.903 74.4291 77.2868 75.5233 77.4976 76.6483C77.8252 78.4044 77.8081 80.1972 77.4466 81.9483L78.9556 82.9317L78.8207 83.0924C77.9933 82.7453 77.2024 82.2696 76.3349 82.0864C75.4386 81.9027 74.5085 81.8874 73.6049 82.0415C72.7228 82.2021 71.9137 82.6843 71.0754 83.0056L70.9697 82.9221ZM75.2597 72.8332C75.1525 72.7598 75.0288 72.7074 74.897 72.6794C74.765 72.6513 74.6278 72.6483 74.4945 72.6705C74.3612 72.6927 74.2346 72.7396 74.1234 72.808C74.0121 72.8765 73.9187 72.9651 73.8491 73.0678C73.4703 73.4948 73.1611 73.9665 72.9307 74.4691C72.3478 75.8373 72.073 77.2925 72.1215 78.7534C72.1215 79.8077 72.2417 80.8618 72.311 81.9932L73.3097 81.6718V77.68C73.3097 77.2815 73.4592 77.0371 73.9804 76.9921C74.2626 76.9519 74.5306 76.8551 74.764 76.7093C75.1977 76.4746 75.205 76.179 74.764 75.9508C74.3982 75.7869 74.0208 75.6441 73.6341 75.5233C73.9512 74.5366 74.1297 73.4889 75.2597 72.8332Z" fill="black"/>
<path d="M80.9521 82.9462C81.1088 82.8105 81.2357 82.623 81.426 82.5422C81.9595 82.3323 82.0118 82.0091 81.9259 81.5503C81.5034 79.4203 81.6205 77.2363 82.2692 75.1494C82.4968 74.4342 82.8436 73.7516 83.299 73.1234C84.1459 71.9762 85.4069 71.9988 86.2837 73.1234C87.1382 74.1993 87.4701 75.4401 87.6679 76.7068C87.9357 78.463 87.9081 80.2435 87.5858 81.9929L89.1043 82.9785L88.9253 83.2564C87.75 82.4906 86.5039 81.9283 85.0189 81.9057C83.534 81.8831 82.2729 82.4292 81.0715 83.1562L80.9521 82.9462ZM85.3472 72.8293C85.2616 72.7615 85.1608 72.7097 85.0512 72.6769C84.9416 72.6442 84.8252 72.6312 84.7096 72.6388C84.5939 72.6463 84.4813 72.6743 84.3786 72.7209C84.2759 72.7676 84.1852 72.832 84.1123 72.9101C83.6903 73.311 83.3395 73.764 83.0714 74.2543C82.3854 75.7097 82.0649 77.2748 82.1311 78.8457C82.1311 79.8895 82.258 80.9299 82.3326 82.0447L83.3512 81.7216C83.3512 80.3095 83.3512 79.0042 83.3512 77.6955C83.3512 77.3013 83.4967 77.0492 84.0377 77.004C84.3271 76.9629 84.6015 76.8644 84.8398 76.7164C85.2875 76.4805 85.2912 76.1833 84.8398 75.9571C84.4706 75.7941 84.0892 75.6527 83.6981 75.5338C83.9929 74.5321 84.2055 73.4917 85.3472 72.8293Z" fill="black"/>
<path d="M74.4991 69.4844C74.8694 69.5625 75.2308 69.6713 75.5787 69.8096C75.6594 69.8726 75.7208 69.9531 75.7573 70.0436C75.794 70.1341 75.8043 70.2315 75.7875 70.3267C75.7249 70.404 75.6415 70.4656 75.5452 70.5054C75.4487 70.5453 75.3425 70.5621 75.2369 70.5543C74.7676 70.3825 74.2471 70.3628 73.7636 70.4985C73.2802 70.6342 72.8635 70.9171 72.5847 71.299C72.4911 71.4127 72.2248 71.403 72.0341 71.4517C71.9798 71.2975 71.959 71.1352 71.9729 70.9738C72.2357 70.1933 73.38 69.5559 74.4991 69.4844Z" fill="black"/>
<path d="M85.3139 69.4844C86.5216 69.5476 87.4042 69.9037 87.9008 70.816C87.9902 70.9824 87.9008 71.2388 87.8794 71.4517C87.6793 71.3719 87.4221 71.3386 87.297 71.1988C87.0214 70.8414 86.6268 70.5787 86.1745 70.4517C85.7221 70.3246 85.2375 70.3404 84.7957 70.4963C84.6099 70.5497 84.342 70.3499 84.1133 70.2667C84.2205 70.0735 84.2812 69.8006 84.4706 69.7107C84.7393 69.5997 85.023 69.5236 85.3139 69.4844Z" fill="black"/>
<path d="M75.4666 72.7472C74.215 73.403 74.0171 74.4851 73.6699 75.4918C74.0983 75.615 74.5164 75.7607 74.9216 75.9279C75.4061 76.1607 75.3981 76.4624 74.9216 76.7017C74.6631 76.8505 74.3662 76.9492 74.0534 76.9903C73.4761 77.0329 73.3106 77.2854 73.3106 77.692V81.7778L72.2042 82.1057C72.1275 80.9515 72.0104 79.8759 71.9943 78.8004C71.9406 77.3099 72.2451 75.8253 72.8907 74.4294C73.146 73.9165 73.4884 73.4353 73.9081 72.9997C73.9839 72.8944 74.0863 72.8032 74.2084 72.7324C74.3307 72.6615 74.4702 72.6125 74.6175 72.5887C74.7648 72.5649 74.9166 72.5666 75.063 72.5939C75.2093 72.6212 75.347 72.6735 75.4666 72.7472Z" fill="white"/>
<path d="M85.7936 72.7617C84.4464 73.4329 84.1955 74.4871 83.8477 75.5086C84.3092 75.6291 84.7592 75.7723 85.1948 75.9375C85.7275 76.1666 85.7231 76.4678 85.1948 76.7068C84.9136 76.8568 84.5897 76.9565 84.2483 76.9983C83.61 77.031 83.4384 77.2994 83.4384 77.6989C83.4384 79.0085 83.4384 80.3475 83.4384 81.7783L82.2365 82.1057C82.1484 80.9761 82.0163 79.9219 81.9987 78.8644C81.9219 77.2749 82.2678 75.705 83.0759 74.2323C83.3924 73.7356 83.6108 73.3531 84.1087 72.9469C84.1935 72.8668 84.4229 72.7275 84.5435 72.6791C84.6641 72.6307 84.9008 72.5838 85.0373 72.5749C85.1739 72.566 85.3114 72.5779 85.4414 72.61C85.5715 72.6422 85.6913 72.6938 85.7936 72.7617Z" fill="white"/>
<path d="M76.1246 84.3619C76.8906 85.948 78.1565 86.9731 80.185 86.7192C81.0731 86.6231 81.9131 86.3142 82.6116 85.8265C83.3101 85.3389 83.8396 84.6919 84.141 83.9575C84.1734 84.0485 84.2525 84.1518 84.2309 84.2334C83.9576 85.2396 83.7023 86.2552 83.3786 87.252C83.0189 88.3743 82.2996 89.2927 80.9834 89.7128C80.2956 89.9193 79.5456 89.9034 78.8702 89.6681C78.1948 89.4326 77.639 88.9936 77.3042 88.4306C76.9311 87.7713 76.6336 87.0815 76.4159 86.3713C76.2217 85.8509 76.0886 85.3148 75.9411 84.7851C75.9233 84.6675 75.9233 84.5484 75.9411 84.4309L76.1246 84.3619ZM78.2068 88.788C79.2858 89.7284 80.9258 89.766 81.5444 88.9071C81.0013 88.1799 80.6956 88.1328 79.8217 88.6376C79.0953 88.1109 78.8111 88.1328 78.2068 88.788Z" fill="black"/>
<path d="M79.7646 90.4808L81.1745 90.3555C81.1676 90.4318 81.1436 90.5063 81.1038 90.5745C81.0639 90.6428 81.009 90.7036 80.9423 90.7533C80.8755 90.8031 80.7981 90.8409 80.7145 90.8646C80.6309 90.8884 80.5428 90.8975 80.4552 90.8915C80.0776 90.8915 79.7646 90.8037 79.7646 90.4808Z" fill="black"/>
<path d="M78.207 88.7883C78.8113 88.1332 79.0953 88.1112 79.8219 88.6378C80.6957 88.1332 81.0015 88.1802 81.5446 88.9075C80.9259 89.7664 79.2968 89.7224 78.207 88.7883Z" fill="#FF0D1C"/>
</g>
<rect x="32.3855" y="32.3855" width="100.94" height="100.94" rx="19.57" stroke="white" stroke-opacity="0.5" stroke-width="2.06" shape-rendering="crispEdges"/>
</g>
<defs>
<filter id="filter0_bd_135_2682" x="0.455469" y="0.455469" width="164.8" height="164.8" filterUnits="userSpaceOnUse" color-interpolation-filters="sRGB">
<feFlood flood-opacity="0" result="BackgroundImageFix"/>
<feGaussianBlur in="BackgroundImageFix" stdDeviation="15.45"/>
<feComposite in2="SourceAlpha" operator="in" result="effect1_backgroundBlur_135_2682"/>
<feColorMatrix in="SourceAlpha" type="matrix" values="0 0 0 0 0 0 0 0 0 0 0 0 0 0 0 0 0 0 127 0" result="hardAlpha"/>
<feOffset/>
<feGaussianBlur stdDeviation="15.45"/>
<feComposite in2="hardAlpha" operator="out"/>
<feColorMatrix type="matrix" values="0 0 0 0 0.0980392 0 0 0 0 0.0980392 0 0 0 0 0.0980392 0 0 0 0.1 0"/>
<feBlend mode="normal" in2="effect1_backgroundBlur_135_2682" result="effect2_dropShadow_135_2682"/>
<feBlend mode="normal" in="SourceGraphic" in2="effect2_dropShadow_135_2682" result="shape"/>
</filter>
<clipPath id="clip0_135_2682">
<rect width="84.46" height="53.56" fill="white" transform="translate(39.5957 56.0754)"/>
</clipPath>
</defs>
</svg>
