<svg width="165" height="165" viewBox="0 0 165 165" fill="none" xmlns="http://www.w3.org/2000/svg">
<g filter="url(#filter0_bd_135_2650)">
<rect x="30.9414" y="30.9414" width="103" height="103" rx="20.6" fill="white" fill-opacity="0.75" shape-rendering="crispEdges"/>
<g clip-path="url(#clip0_135_2650)">
<path d="M114.893 79.4212C114.53 79.15 114.162 78.9171 113.855 78.6387C113.451 78.2811 113.407 77.9498 113.585 77.4577C113.61 77.3912 113.621 77.3203 113.618 77.2493C113.615 77.1784 113.597 77.1087 113.565 77.0449C113.398 76.8118 113.289 76.5432 113.247 76.261C113.204 75.9787 113.23 75.6906 113.322 75.4198C113.409 75.173 113.441 74.9107 113.418 74.6504C113.394 74.3902 113.315 74.1378 113.185 73.91C113.065 73.6772 112.991 73.4238 112.968 73.1635C112.942 72.9737 112.979 72.7805 113.075 72.6135C113.17 72.4467 113.318 72.3152 113.497 72.2393C113.66 72.1618 113.845 72.1434 114.02 72.1873C114.195 72.2312 114.349 72.3347 114.454 72.4793C114.717 72.8089 114.953 73.158 115.161 73.5235C115.282 73.7513 115.391 73.9852 115.487 74.2244C115.631 73.6172 115.713 73.113 115.869 72.6306C116.135 71.8049 116.413 70.9768 116.756 70.1798C116.913 69.8519 117.159 69.5735 117.467 69.3756C117.587 69.3018 117.721 69.2554 117.861 69.24C118.001 69.2247 118.143 69.2407 118.276 69.2868C118.397 69.3678 118.498 69.4746 118.571 69.5993C118.644 69.724 118.688 69.8632 118.7 70.007C118.649 70.5827 118.547 71.153 118.395 71.7113C118.213 72.4006 118.069 73.0993 117.964 73.8044C118.117 73.4731 118.271 73.1419 118.427 72.8106C118.775 72.0593 119.106 71.296 119.486 70.5591C119.656 70.2539 119.877 69.9802 120.142 69.7501C120.304 69.6097 120.509 69.5248 120.724 69.5085C120.94 69.492 121.155 69.5448 121.338 69.659C121.502 69.7647 121.622 69.9241 121.678 70.109C121.735 70.2939 121.723 70.4924 121.645 70.6694C121.343 71.44 121.004 72.1986 120.631 72.9354C120.324 73.5403 119.947 74.1093 119.657 74.7549C119.866 74.5533 120.066 74.3397 120.285 74.15C120.789 73.6832 121.321 73.2457 121.876 72.8395C122.182 72.6453 122.543 72.5528 122.906 72.5754C123.038 72.5735 123.168 72.6077 123.281 72.6743C123.395 72.7409 123.487 72.8373 123.548 72.9526C123.609 73.0678 123.636 73.1977 123.626 73.3273C123.617 73.4569 123.571 73.5814 123.493 73.6868C123.186 74.124 122.831 74.5265 122.434 74.887C122.198 75.1072 121.94 75.3033 121.664 75.4726C121.02 75.9155 120.534 76.5471 120.276 77.2777C119.952 78.1106 119.545 78.9076 118.59 79.2388C118.505 79.2676 118.444 79.3756 118.388 79.4572C117.864 80.2206 117.499 80.3718 116.639 80.0886C116.315 79.983 116.184 80.0453 116.037 80.3405C115.509 81.5006 114.682 82.5044 113.638 83.2523C112.206 84.2292 110.659 84.342 109.037 83.8259C108.94 83.8014 108.849 83.7573 108.77 83.6967C108.691 83.6361 108.625 83.56 108.578 83.4734C108.53 83.3867 108.5 83.2913 108.491 83.1929C108.482 83.0946 108.494 82.9955 108.525 82.9018C108.645 82.5417 109.013 82.3905 109.473 82.4625C110.059 82.5895 110.656 82.658 111.256 82.6665C112.077 82.6282 112.761 82.1984 113.353 81.644C114.01 81.0101 114.533 80.2548 114.893 79.4212ZM117.085 78.862L117.121 78.7035C117.238 78.6956 117.355 78.7036 117.47 78.7275C118.529 79.1188 118.916 79.0108 119.557 78.0938C119.732 77.8606 119.87 77.6023 119.966 77.3281C120.268 76.3247 120.924 75.6358 121.779 75.0477C122.294 74.6633 122.76 74.2183 123.167 73.7228C123.232 73.6278 123.272 73.5183 123.283 73.4042C123.294 73.2902 123.276 73.1753 123.23 73.0699C123.144 72.9899 123.04 72.9302 122.927 72.8957C122.814 72.8612 122.695 72.8526 122.577 72.8706C122.291 72.9333 122.023 73.0615 121.796 73.2451C121.386 73.5556 121 73.8941 120.639 74.2581C120.283 74.6181 119.652 74.8773 120.125 75.6791C119.56 75.199 119.15 74.7717 118.663 74.4788C118.118 74.211 117.553 73.9854 116.973 73.8044V73.6963L117.599 73.658C117.884 72.6114 118.171 71.5624 118.446 70.5086C118.487 70.3387 118.494 70.1629 118.468 69.9902C118.407 69.4909 117.981 69.3013 117.579 69.6181C117.359 69.7881 117.177 70.0005 117.043 70.2422C116.381 71.4929 116.096 72.861 115.825 74.2316C115.804 74.3445 115.925 74.5125 116.025 74.6157C116.336 74.9113 116.561 75.2829 116.678 75.6924C116.795 76.1019 116.799 76.5348 116.69 76.9464C116.661 77.0641 116.525 77.1577 116.447 77.2609L116.347 77.1745C116.671 76.1063 116.434 75.2326 115.465 74.5844C115.312 74.4314 115.192 74.2503 115.109 74.0516C114.864 73.5918 114.593 73.1461 114.296 72.717C114.215 72.6352 114.114 72.5751 114.003 72.5424C113.891 72.5096 113.773 72.5052 113.66 72.5298C113.559 72.6113 113.476 72.7119 113.415 72.8258C113.355 72.9395 113.318 73.0642 113.307 73.1923C113.317 73.4377 113.391 73.6765 113.521 73.886C113.644 74.1107 113.719 74.3575 113.743 74.6115C113.766 74.8656 113.737 75.1218 113.658 75.3646C113.334 76.3247 113.658 76.9128 114.539 77.4962C114.69 77.5945 114.849 77.681 115.027 77.7938C114.783 77.9162 114.783 77.9162 113.916 77.4985C113.861 77.562 113.82 77.6359 113.795 77.7156C113.77 77.7953 113.761 77.8791 113.771 77.9622C113.78 78.0451 113.806 78.1253 113.848 78.1979C113.889 78.2706 113.946 78.334 114.013 78.3843C114.886 79.1303 115.929 79.6566 117.053 79.9182C117.577 80.0381 117.92 79.8005 118.108 79.2893L117.085 78.862ZM119.399 74.5076C119.835 73.7419 120.285 72.9954 120.687 72.2249C120.961 71.7132 121.187 71.1781 121.362 70.6263C121.383 70.4986 121.376 70.3679 121.34 70.2435C121.304 70.119 121.241 70.0039 121.155 69.9062C120.911 69.6661 120.58 69.7693 120.322 69.9854C120.189 70.078 120.077 70.1965 119.993 70.3334C119.391 71.5216 118.807 72.7146 118.21 73.9196L119.399 74.5076Z" fill="#0D0D0D"/>
<path d="M117.08 78.8622L118.103 79.2895C117.916 79.8007 117.572 80.0383 117.049 79.9184C115.925 79.6565 114.883 79.1302 114.011 78.3845C113.944 78.3342 113.887 78.2707 113.845 78.1981C113.804 78.1256 113.778 78.0454 113.768 77.9623C113.759 77.8794 113.767 77.7955 113.792 77.7158C113.817 77.6361 113.859 77.5623 113.914 77.4987C114.783 77.9164 114.783 77.9164 115.024 77.7941C114.834 77.6812 114.676 77.5948 114.537 77.4964C113.658 76.9131 113.319 76.3154 113.655 75.3648C113.735 75.1221 113.764 74.8659 113.74 74.6119C113.717 74.3578 113.642 74.111 113.519 73.8862C113.389 73.6768 113.315 73.4379 113.305 73.1925C113.316 73.0644 113.352 72.9397 113.413 72.8259C113.474 72.7122 113.557 72.6115 113.658 72.53C113.771 72.5055 113.889 72.5098 114 72.5426C114.112 72.5754 114.212 72.6355 114.294 72.7172C114.591 73.1463 114.862 73.592 115.107 74.0518C115.189 74.2506 115.31 74.4317 115.463 74.5847C116.437 75.2328 116.681 76.1066 116.345 77.1747L116.444 77.2611C116.53 77.1579 116.666 77.0643 116.688 76.9466C116.796 76.5365 116.792 76.1053 116.676 75.6972C116.56 75.2891 116.336 74.9185 116.028 74.6231C115.928 74.5199 115.806 74.3519 115.828 74.2391C116.094 72.8685 116.379 71.5002 117.046 70.2496C117.18 70.0079 117.362 69.7955 117.582 69.6255C117.984 69.3087 118.41 69.4984 118.471 69.9975C118.497 70.1702 118.489 70.3461 118.449 70.5161C118.174 71.5699 117.886 72.6188 117.601 73.6653L116.975 73.7038V73.8118C117.556 73.9929 118.121 74.2184 118.666 74.4863C119.153 74.772 119.565 75.2064 120.127 75.6865C119.655 74.8848 120.286 74.6256 120.641 74.2654C121.002 73.9014 121.389 73.563 121.798 73.2525C122.025 73.069 122.293 72.9407 122.58 72.878C122.697 72.86 122.817 72.8686 122.93 72.9032C123.043 72.9377 123.147 72.9972 123.233 73.0772C123.279 73.1827 123.297 73.2976 123.286 73.4117C123.274 73.5257 123.235 73.6352 123.17 73.7301C122.763 74.2258 122.297 74.6708 121.781 75.0552C120.926 75.6433 120.271 76.3322 119.969 77.3356C119.873 77.6098 119.735 77.868 119.56 78.1013C118.919 79.0182 118.532 79.1262 117.472 78.735C117.358 78.711 117.241 78.703 117.124 78.711L117.08 78.8622ZM116.971 77.998L118.383 76.481C117.977 76.2649 117.031 77.1772 116.971 77.998Z" fill="white"/>
<path d="M119.394 74.5079L118.205 73.9222C118.802 72.722 119.386 71.5218 119.988 70.336C120.072 70.1991 120.184 70.0806 120.317 69.988C120.575 69.7719 120.906 69.6615 121.15 69.9087C121.236 70.0064 121.299 70.1216 121.335 70.246C121.371 70.3705 121.378 70.5012 121.357 70.6289C121.182 71.1808 120.956 71.7158 120.682 72.2275C120.28 72.9956 119.83 73.7421 119.394 74.5079Z" fill="white"/>
<path d="M116.971 77.9984C117.032 77.1775 117.977 76.2654 118.383 76.4814L116.971 77.9984Z" fill="#0D0D0D"/>
<path d="M42.7406 96.7717C42.0258 97.2024 41.3788 97.0073 40.9574 96.1059C39.9161 95.968 39.5565 95.5046 39.7488 94.4677C39.9185 93.5443 40.1569 92.6248 40.8264 91.9136C41.1961 91.5309 41.5853 91.2148 41.7864 90.6827C41.9682 90.1985 42.4913 90.1165 42.9741 90.1557C43.2491 90.1796 43.3687 90.1241 43.46 89.8542C44.7066 86.2183 47.3078 83.9228 50.8879 82.6044C50.9716 82.5744 51.0577 82.5452 51.1442 82.5236C51.2402 82.4901 51.342 82.4759 51.4437 82.4818C51.5454 82.4878 51.6448 82.5138 51.7361 82.5582C51.8274 82.6028 51.9087 82.6649 51.9752 82.741C52.0416 82.817 52.092 82.9054 52.1232 83.001C52.1536 83.0975 52.1629 83.1993 52.1508 83.2996C52.1385 83.4 52.1049 83.4966 52.0522 83.5833C51.9995 83.67 51.9287 83.7447 51.8447 83.8027C51.7606 83.8605 51.6651 83.9002 51.5643 83.9193C50.3667 84.2846 49.2442 84.8564 48.2493 85.6082C46.7948 86.6778 45.6752 88.1291 45.0186 89.7963C44.9286 90.0259 44.8818 90.2677 44.8031 90.5387C44.9326 90.6006 45.0501 90.6592 45.1721 90.7115C45.8068 90.9846 45.9355 91.2275 45.866 91.8859C45.8653 92.064 45.9149 92.2386 46.0093 92.3904C46.4635 93.2143 46.7041 94.0699 46.3236 94.9798C46.2776 95.0955 46.2082 95.2007 46.1199 95.2892C46.0315 95.3778 45.9258 95.4479 45.8093 95.4951C45.4061 95.6007 45.2919 95.8872 45.1381 96.1855C44.8917 96.6693 44.5612 97.1037 43.9606 97.0875C43.5984 97.0874 43.2476 96.9146 42.7406 96.7717ZM41.1817 95.6542C41.2625 96.0798 41.3745 96.5855 41.8835 96.5964C42.2767 96.6052 42.6734 96.3704 43.1036 96.2342C43.193 96.5143 43.3785 96.8648 43.8516 96.8477C44.0817 96.8353 44.3021 96.7525 44.4823 96.611C44.6625 96.4694 44.7934 96.276 44.857 96.0578C45.0229 95.5542 45.1532 95.0398 45.2469 94.5183C45.2798 94.3068 45.2993 94.0935 45.3055 93.8797L45.4414 93.8746C45.7464 94.3124 45.4227 94.8304 45.5152 95.323C45.6889 95.2733 45.8443 95.1749 45.9625 95.0399C46.0806 94.9049 46.1565 94.739 46.1809 94.5623C46.2511 94.2938 46.267 94.0143 46.2275 93.7398C46.1881 93.4653 46.0941 93.201 45.951 92.9624C45.8079 92.7236 45.6185 92.5151 45.3936 92.3485C45.1686 92.1819 44.9126 92.0606 44.6401 91.9917C44.5215 91.9399 44.4093 91.8749 44.3057 91.798L44.3778 91.6476L45.5041 91.965C45.6604 91.6139 45.6434 91.316 45.3578 91.1589C44.528 90.6647 43.5667 90.4275 42.5985 90.4782C42.5065 90.4813 42.416 90.5028 42.3327 90.5415C42.2494 90.5801 42.1749 90.6351 42.1138 90.703C42.0527 90.7709 42.0063 90.8504 41.9774 90.9365C41.9484 91.0227 41.9375 91.1137 41.9454 91.2042C42.7675 91.1172 43.0517 91.1897 43.1889 91.5546C43.1181 91.5646 43.0463 91.5665 42.9751 91.5606C42.0537 91.3571 41.3013 91.632 40.802 92.4166C40.3453 93.1215 40.0748 93.9277 40.0152 94.762C39.96 95.5495 40.3808 95.8823 41.1817 95.6542Z" fill="#0D0D0D"/>
<path d="M41.1826 95.6543C40.3817 95.8823 39.9609 95.5496 40.012 94.7584C40.0716 93.9242 40.342 93.1179 40.7987 92.413C41.2981 91.6283 42.0505 91.3535 42.9718 91.557C43.0431 91.5629 43.1149 91.5609 43.1857 91.551C43.0478 91.1884 42.7635 91.1159 41.9422 91.2005C41.9343 91.1101 41.9452 91.0191 41.9741 90.933C42.0031 90.8467 42.0495 90.7673 42.1106 90.6994C42.1717 90.6315 42.2462 90.5766 42.3295 90.5379C42.4128 90.4992 42.5033 90.4777 42.5953 90.4745C43.5635 90.4238 44.5248 90.6611 45.3546 91.1553C45.6401 91.3123 45.6571 91.6103 45.5009 91.9614L44.3746 91.6439L44.3025 91.7944C44.4061 91.8713 44.5183 91.9363 44.6369 91.9881C44.9094 92.0571 45.1654 92.1783 45.3904 92.3449C45.6153 92.5115 45.8047 92.72 45.9478 92.9588C46.0909 93.1975 46.1849 93.4616 46.2243 93.7362C46.2637 94.0107 46.2479 94.2902 46.1777 94.5588C46.1533 94.7354 46.0774 94.9013 45.9593 95.0363C45.8411 95.1714 45.6857 95.2697 45.512 95.3194C45.4195 94.8269 45.7432 94.3087 45.4382 93.871L45.3022 93.8761C45.2961 94.0899 45.2765 94.3032 45.2437 94.5147C45.15 95.0362 45.0197 95.5506 44.8538 96.0543C44.7902 96.2725 44.6592 96.4658 44.4791 96.6073C44.2989 96.7489 44.0785 96.8316 43.8484 96.8442C43.3752 96.8612 43.1898 96.5107 43.1004 96.2305C42.6709 96.3644 42.2735 96.6016 41.8803 96.5927C41.3753 96.5856 41.2634 96.0799 41.1826 95.6543Z" fill="white"/>
<path d="M67.8138 103.255C67.7689 103.091 67.733 102.969 67.7002 102.853C66.4713 102.877 66.0377 102.497 66.3217 101.537C66.495 101.004 66.7705 100.496 67.138 100.031C67.2608 99.8758 67.3441 99.703 67.3831 99.522C67.4221 99.3411 67.416 99.1557 67.3653 98.9767C66.9497 97.0275 67.0662 95.1266 68.0529 93.2736C68.8686 91.7842 70.1654 90.4979 71.8083 89.5486C71.9003 89.4837 72.0078 89.4346 72.1244 89.4044C72.2409 89.3742 72.3638 89.3635 72.4857 89.3729C72.6075 89.3824 72.7257 89.4118 72.8329 89.4595C72.9401 89.5071 73.034 89.5718 73.1089 89.6497C73.4377 89.9986 73.348 90.4101 72.8517 90.7109C70.942 91.8064 69.611 93.4373 69.1203 95.283C68.871 96.2699 68.8316 97.2837 69.0037 98.2813C69.4018 98.2565 69.8016 98.2565 70.1996 98.2813C70.502 98.305 70.7807 98.4232 70.9763 98.6102C71.1718 98.7973 71.2687 99.0385 71.2462 99.2823C71.2462 99.5013 71.2671 99.6505 71.575 99.7467C73.7457 100.418 74.4064 101.219 74.3676 103.344C74.3347 105.072 73.5244 106.643 72.3823 108.089C72.1492 108.398 71.822 108.654 71.4317 108.833C71.0414 109.012 70.6009 109.108 70.1518 109.112C68.9975 109.146 67.8417 109.096 66.6985 108.963C63.5202 108.54 63.4695 105.753 64.9374 104.417C65.2979 104.081 65.7376 103.804 66.2312 103.605C66.7249 103.405 67.2628 103.287 67.8138 103.255ZM67.6104 99.9825C67.0722 100.599 66.6596 101.186 66.6148 101.871C66.573 102.478 67.0035 102.743 67.6672 102.49C68.1582 102.276 68.6343 102.041 69.0934 101.785C69.237 101.715 69.3924 101.657 69.5389 101.595L69.6884 101.77C69.2399 102.035 68.7914 102.29 68.346 102.569C68.2264 102.646 68.0828 102.81 68.1098 102.897C68.1758 103.049 68.294 103.183 68.4506 103.284C68.5343 103.344 68.6898 103.335 68.8124 103.359C69.3718 103.456 69.9008 103.644 70.3678 103.91C70.8349 104.177 71.2302 104.516 71.5302 104.908C71.6017 105.039 71.651 105.176 71.6766 105.317L71.4943 105.373C71.3866 105.245 71.2821 105.118 71.1714 104.993C70.3163 104.03 69.1651 103.501 67.6971 103.578C66.2829 103.652 65.2664 104.285 64.6594 105.31C63.9149 106.571 64.3813 107.512 66.0437 107.895C67.0231 108.096 68.0244 108.22 69.0336 108.265C70.9591 108.393 72.0385 107.832 72.6035 106.362C73.0452 105.208 73.4144 104.037 73.7099 102.853C74.0805 101.359 73.0341 100.242 71.1355 99.9849C71.0069 100.25 70.8754 100.514 70.7439 100.781L70.5077 100.709L70.8305 99.6432C70.9382 99.2823 70.9502 98.9213 70.5137 98.7023C70.2946 98.5881 70.0392 98.5272 69.7781 98.5272C69.5171 98.5272 69.2615 98.5881 69.0426 98.7023C69.2339 99.2462 69.4312 99.7611 69.5957 100.281C69.66 100.456 69.6369 100.645 69.5311 100.807C69.4252 100.969 69.2452 101.091 69.0291 101.148C68.813 101.205 68.5779 101.191 68.3739 101.111C68.1699 101.03 68.0129 100.889 67.9364 100.716C67.8257 100.5 67.742 100.281 67.6104 99.9825ZM65.0361 108.044C65.3476 108.23 65.6811 108.391 66.0317 108.525C67.4165 108.922 68.9029 109.034 70.3552 108.85C70.7937 108.812 71.2086 108.671 71.5483 108.445C71.888 108.218 72.1374 107.916 72.2657 107.577C71.5003 108.412 70.4568 108.645 69.3087 108.604C67.8583 108.584 66.4192 108.395 65.0361 108.044ZM73.2045 105.941L73.3451 105.969L74.0686 103.667L73.8892 103.631C73.6619 104.391 73.4318 105.156 73.2045 105.931V105.941Z" fill="black"/>
<path d="M86.5624 101.688C87.549 101.773 88.6553 101.688 88.7061 102.913C88.9632 102.815 89.1755 102.721 89.3998 102.649C90.0228 102.417 90.664 102.218 91.3193 102.054C92.9488 101.712 95.1823 102.516 95.8789 103.921C96.3184 104.809 96.0194 105.587 95.3018 106.275C93.8547 107.659 91.9083 108.368 89.8064 108.852C88.4174 109.21 86.9279 109.23 85.5248 108.91C84.583 108.669 83.7309 108.289 83.2495 107.577C82.6037 106.595 82.3945 105.555 83.0731 104.497C83.1109 104.424 83.1304 104.346 83.1304 104.267C83.1304 104.188 83.1109 104.11 83.0731 104.037C82.4363 102.957 82.7742 102.292 84.1854 101.917C84.3399 101.89 84.4802 101.826 84.5873 101.732C84.6943 101.639 84.7628 101.521 84.7834 101.395C85.7491 97.8166 85.0823 94.5079 82.3137 91.5409C81.913 91.1101 81.94 90.6769 82.3675 90.4195C82.795 90.162 83.3183 90.251 83.725 90.6746C86.356 93.4202 87.3128 96.5364 86.8913 99.9558C86.8194 100.517 86.679 101.072 86.5624 101.688ZM86.4308 105.5L86.6491 105.385C86.7575 105.499 86.8574 105.619 86.948 105.743C87.6092 106.735 88.5004 107.615 89.5731 108.337C89.6494 108.391 89.739 108.431 89.8359 108.454C89.9328 108.478 90.0349 108.485 90.1353 108.474C91.8844 108.036 93.5049 107.406 94.7845 106.309C96.0643 105.211 96.0463 104.165 94.7278 103.094C93.9235 102.442 92.9338 102.307 91.9621 102.786C91.4239 103.053 90.9226 103.366 90.4672 103.719C89.2555 104.685 87.6186 105.225 85.9135 105.223C85.3899 105.217 84.8672 105.26 84.3559 105.351C83.2765 105.56 82.8608 106.299 83.3392 107.105C83.439 107.276 83.5613 107.437 83.704 107.586C84.9 108.823 87.4952 109.136 89.3519 108.587C88.1142 107.707 87.0647 106.72 86.4308 105.5ZM85.8088 103.354L85.8628 103.231C85.9972 103.231 86.1318 103.248 86.2664 103.248C86.6939 103.248 87.1244 103.248 87.549 103.228C87.9736 103.209 88.3174 103.072 88.3263 102.689C88.3354 102.307 87.9646 102.112 87.5579 102.064C86.362 101.922 85.1661 101.888 84.0358 102.285C82.9535 102.665 82.807 103.248 83.5186 103.955L84.1555 103.811C84.0483 103.967 83.9242 104.115 83.7847 104.254C83.5446 104.438 83.3544 104.66 83.2258 104.905C83.0971 105.151 83.033 105.416 83.0372 105.683C83.7877 105.012 84.7205 104.935 85.6713 104.961C87.2065 104.987 88.6987 104.552 89.8573 103.741C90.6406 103.226 91.4539 102.735 92.3688 102.162C91.7707 102.266 91.1799 102.394 90.5987 102.547C89.8064 102.788 89.0648 103.154 88.2606 103.354C87.5997 103.477 86.9238 103.54 86.2454 103.544C86.1079 103.544 85.9494 103.421 85.8088 103.354Z" fill="black"/>
<path d="M67.6111 99.9826C67.7427 100.281 67.8265 100.5 67.937 100.704C68.0135 100.877 68.1705 101.018 68.3746 101.099C68.5787 101.179 68.8137 101.193 69.0298 101.136C69.2459 101.079 69.426 100.957 69.5319 100.795C69.6376 100.633 69.6608 100.444 69.5964 100.269C69.432 99.7492 69.2347 99.2342 69.0434 98.6904C69.2623 98.576 69.5177 98.5151 69.7788 98.5151C70.0399 98.5151 70.2954 98.576 70.5144 98.6904C70.9508 98.919 70.9389 99.2703 70.8313 99.6312L70.5083 100.697L70.7445 100.769C70.8761 100.502 71.0077 100.238 71.1363 99.9729C73.0348 100.23 74.0813 101.347 73.7105 102.841C73.4152 104.025 73.0459 105.196 72.6043 106.35C72.0392 107.82 70.9598 108.381 69.0343 108.253C68.0252 108.208 67.0238 108.084 66.0444 107.883C64.3821 107.5 63.9156 106.559 64.6601 105.298C65.2581 104.273 66.2837 103.64 67.6979 103.566C69.1659 103.489 70.317 104.028 71.1721 104.981C71.2827 105.106 71.3874 105.233 71.495 105.361L71.6774 105.305C71.6517 105.164 71.6025 105.027 71.531 104.896C71.2309 104.504 70.8356 104.165 70.3685 103.898C69.9015 103.632 69.3724 103.444 68.8131 103.347C68.6905 103.323 68.5351 103.332 68.4513 103.272C68.2947 103.171 68.1766 103.037 68.1105 102.885C68.0835 102.793 68.227 102.644 68.3467 102.557C68.7832 102.278 69.2436 102.023 69.6891 101.758L69.5397 101.583C69.3901 101.645 69.2406 101.703 69.0941 101.773C68.6351 102.029 68.159 102.264 67.668 102.478C67.0041 102.731 66.5737 102.466 66.6155 101.86C66.6603 101.176 67.073 100.599 67.6111 99.9826Z" fill="#97D5EE"/>
<path d="M65.0361 108.044C66.4199 108.392 67.859 108.578 69.3087 108.595C70.4568 108.636 71.5002 108.402 72.2657 107.567C72.1374 107.907 71.8879 108.209 71.5482 108.435C71.2086 108.661 70.7935 108.802 70.3552 108.84C68.9029 109.025 67.4164 108.913 66.0317 108.515C65.6815 108.385 65.348 108.227 65.0361 108.044Z" fill="#97D5EE"/>
<path d="M73.2041 105.931C73.4314 105.161 73.6615 104.391 73.8888 103.621L74.0682 103.657L73.3447 105.96L73.2041 105.931Z" fill="#97D5EE"/>
<path d="M86.4313 105.5C87.0652 106.72 88.1147 107.707 89.3435 108.597C87.4868 109.146 84.8826 108.838 83.6956 107.596C83.5528 107.447 83.4305 107.286 83.3308 107.115C82.8583 106.309 83.268 105.57 84.3473 105.361C84.8588 105.27 85.3815 105.227 85.9051 105.233C87.6102 105.235 89.247 104.695 90.4588 103.729C90.9142 103.376 91.4153 103.063 91.9537 102.796C92.9374 102.314 93.915 102.452 94.7194 103.104C96.0379 104.174 96.0648 105.224 94.7761 106.319C93.4875 107.413 91.8759 108.039 90.1268 108.484C90.0283 108.493 89.9285 108.486 89.8339 108.462C89.7392 108.439 89.6516 108.399 89.5767 108.347C88.5039 107.625 87.6128 106.745 86.9516 105.753C86.8609 105.629 86.761 105.509 86.6525 105.394L86.4313 105.5Z" fill="#97D5EE"/>
<path d="M85.8099 103.354C85.9564 103.419 86.1088 103.544 86.2494 103.537C86.9278 103.533 87.6037 103.47 88.2646 103.347C89.0688 103.147 89.8104 102.784 90.6027 102.54C91.1839 102.387 91.7747 102.259 92.3727 102.155C91.4579 102.728 90.6446 103.219 89.8612 103.734C88.7026 104.545 87.2105 104.98 85.6753 104.954C84.7245 104.935 83.7917 105.012 83.0412 105.676C83.037 105.409 83.1011 105.144 83.2297 104.899C83.3584 104.653 83.5486 104.431 83.7887 104.247C83.9282 104.108 84.0523 103.96 84.1594 103.804L83.5226 103.948C82.811 103.241 82.9575 102.658 84.0398 102.278C85.173 101.881 86.372 101.915 87.5619 102.057C87.9686 102.105 88.3394 102.297 88.3303 102.682C88.3214 103.067 87.9626 103.197 87.553 103.221C87.1433 103.246 86.6979 103.238 86.2704 103.241C86.1358 103.241 86.0012 103.241 85.8667 103.224L85.8099 103.354Z" fill="#97D5EE"/>
<path d="M56.6702 95.7668C56.2005 97.2047 55.9888 98.547 55.3311 99.6294C54.8451 100.425 53.7451 101.412 52.981 101.361C52.4174 101.281 51.8768 101.087 51.3937 100.79C50.9105 100.493 50.4954 100.1 50.1746 99.6364C47.8728 95.8657 47.1878 91.8795 49.0165 87.6177C49.6096 86.2453 49.7798 84.6571 49.915 83.1476C50.0922 81.2611 50.7843 79.457 51.9178 77.9267C52.9295 76.4667 53.9195 74.7766 54.1897 73.0739C54.6654 70.0403 56.2502 68.444 59.0599 67.3608C60.4245 66.8324 61.6912 65.5133 62.4988 64.2432C64.8624 60.5216 68.1936 59.1967 72.444 59.7299C73.5851 59.8294 74.709 60.0699 75.7891 60.4457C78.7672 61.5962 82.0021 61.9457 85.1625 61.4584C85.3973 61.3963 85.6424 61.3811 85.8834 61.4137C90.298 62.6483 94.8334 63.5946 99.0704 65.2595C101.923 66.3855 103.31 69.2632 104.461 72.073C104.916 73.2814 105.622 74.3828 106.534 75.3067C109.063 77.651 110.522 80.2241 109.782 83.7902C109.309 86.094 109.208 88.4725 108.799 90.7908C108.36 93.4239 108.597 96.1231 109.488 98.6429C109.895 99.8691 109.647 101.308 109.693 102.652C108.298 102.379 106.76 102.385 105.548 101.757C104.394 101.165 103.64 99.886 102.697 98.9352C102.36 98.6135 101.874 98.0573 101.564 98.1083C98.9305 98.547 96.7964 97.2262 94.5197 96.357C92.682 95.652 90.8025 95.0622 88.935 94.4497C86.2985 93.576 83.6754 92.5292 80.9657 91.9137C78.0059 91.2354 74.9532 90.9677 71.9385 90.5171C68.7872 90.0453 66.2346 91.0904 63.9491 93.2442C61.9812 95.0853 59.7261 96.4599 56.6702 95.7668ZM55.9934 94.2654C58.4087 94.8766 60.0914 93.4452 61.8838 92.12C62.8705 91.3888 64.0448 90.5838 65.2063 90.4527C68.2209 90.1094 71.3223 89.7316 74.2982 90.0934C77.6978 90.5137 80.9775 91.8231 84.3675 92.5519C88.955 93.5428 93.4199 94.8042 97.6938 96.7726C98.6573 97.217 100.071 97.1054 101.141 96.798C102.21 96.4907 102.373 96.7844 102.909 97.5356C103.93 98.9584 105.109 100.264 106.426 101.427C106.94 101.88 107.944 101.798 108.728 101.961C108.822 101.246 108.857 100.524 108.831 99.8037C108.607 97.764 108.021 95.7308 108.045 93.704C108.087 89.8086 108.328 85.9177 108.766 82.0461C109.029 79.8149 108.103 78.4188 106.72 76.8676C105.426 75.3595 104.355 73.6784 103.54 71.8745C101.72 68.0345 99.3783 65.0228 94.6819 64.4942C92.7456 64.2789 90.8645 63.5427 88.954 63.0672C88.0844 62.8489 87.1719 62.4384 86.3345 62.5457C82.3983 63.0555 78.6976 62.4063 75.0857 60.9142C74.291 60.6429 73.4675 60.462 72.6312 60.3752C68.3182 59.6698 65.3804 61.0743 63.1829 64.8533C62.2696 66.4493 61.3176 68.0568 59.3464 68.6464C56.8867 69.3811 55.5948 70.8351 55.5471 73.537C55.5602 74.8169 55.2558 76.0805 54.6604 77.218C54.0651 78.3556 53.1968 79.3325 52.131 80.0642C51.2862 80.6658 50.7444 81.9433 50.4665 83.0136C49.9126 85.1722 49.9098 87.4902 49.1896 89.5878C47.9733 93.1154 48.8632 96.0925 50.9205 98.9273C52.2293 100.73 53.8082 100.632 54.7254 98.6104C55.2984 97.3188 55.5267 95.8961 55.9934 94.2654Z" fill="black"/>
<path d="M55.9935 94.2654C55.5268 95.8961 55.2985 97.3189 54.7197 98.5896C53.8024 100.612 52.2235 100.709 50.9147 98.9065C48.8573 96.0718 47.9674 93.0946 49.1837 89.567C49.9051 87.4799 49.908 85.162 50.4607 82.9928C50.7385 81.9224 51.2912 80.6438 52.1252 80.0433C53.1909 79.3118 54.0592 78.3347 54.6547 77.1972C55.25 76.0597 55.5544 74.796 55.5413 73.5161C55.6078 70.8195 56.8988 69.3584 59.3405 68.6256C61.3118 68.036 62.2459 66.4305 63.1771 64.8325C65.3747 61.0535 68.3108 59.6348 72.6253 60.3544C73.4617 60.4412 74.2853 60.6221 75.0799 60.8934C78.6953 62.3851 82.4032 63.0335 86.3286 62.5249C87.1681 62.4353 88.0786 62.8281 88.9482 63.0464C90.8588 63.5219 92.7398 64.2581 94.6761 64.4734C99.3725 65.002 101.714 68.0137 103.534 71.8538C104.35 73.6602 105.422 75.3436 106.718 76.8535C108.101 78.4047 109.028 79.8008 108.765 82.032C108.322 85.9038 108.076 89.7952 108.029 93.6913C107.998 95.719 108.584 97.7523 108.816 99.7912C108.841 100.512 108.807 101.233 108.712 101.948C107.928 101.785 106.924 101.867 106.41 101.414C105.094 100.251 103.914 98.9458 102.894 97.5229C102.357 96.7719 102.155 96.4859 101.125 96.7855C100.095 97.085 98.6307 97.2056 97.6781 96.7601C93.4041 94.7916 88.9392 93.5301 84.3518 92.5393C80.9761 91.8089 77.6964 90.4996 74.2823 90.0809C71.3064 89.7191 68.205 90.0967 65.1905 90.44C64.0283 90.5642 62.8546 91.3762 61.868 92.1075C60.0915 93.4452 58.4088 94.8766 55.9935 94.2654ZM55.4526 93.3397C53.0444 89.8557 55.0783 86.899 56.6868 84.1986C58.2953 81.4982 59.7322 78.8877 60.5932 75.8916C60.8501 75.0561 61.3835 74.3294 62.1082 73.8271C64.0601 72.5994 65.7302 71.2194 66.8676 69.1523C67.3245 68.3238 68.3978 67.6226 69.3423 67.3001C71.2723 66.6989 73.236 66.2086 75.2237 65.8316C75.746 65.6941 76.2976 65.7098 76.811 65.8767C80.8353 67.6215 85.1597 67.9358 89.4031 68.7345C93.7133 69.5476 97.0322 72.1045 98.5713 76.1998C99.8986 79.7562 100.496 83.573 101.65 87.2015C102.632 90.2905 103.951 93.2756 105.119 96.3089L105.79 96.0406L102.873 89.3135L106.122 89.8177C104.486 88.737 102.18 89.0512 102.454 86.4898L105.791 86.441C103.839 85.394 100.702 85.9114 101.055 82.3152C101.266 80.1467 99.4286 77.4281 102.813 76.0902L100.229 77.0815C98.5815 74.3782 98.5815 74.3782 100.443 71.5721L98.3012 73.5462C97.1242 71.687 93.9619 71.1484 94.8962 67.9942C94.6128 68.4859 94.3297 68.981 94.288 69.0641C91.426 68.4828 88.7718 67.9114 86.1007 67.4169C84.1397 67.0756 82.1594 66.9222 80.2395 66.4941C78.1279 66.0043 76.1339 65.1979 75.4042 62.7866L75.63 64.8404L75.2267 65.0015L74.1089 63.186C74.6597 65.1264 73.5487 65.7493 71.9748 66.1892C69.644 66.8745 67.4997 67.0783 65.7518 64.8795L66.924 66.9253L64.7203 66.6884L66.3669 68.0648C65.2289 69.3666 64.298 70.7035 63.1013 71.7361C61.443 73.1578 60.2263 71.5316 58.7234 71.0341L60.8847 73.0314L59.9696 74.6098C59.08 73.8143 58.2838 73.1089 57.4873 72.4C57.612 73.1377 58.0709 73.5822 58.3795 74.1109C58.7828 74.8081 59.4674 75.6542 59.3449 76.2896C58.8185 78.7314 58.0249 81.1194 56.438 83.0914L54.1488 81.5476L53.9603 81.8467L56.0218 84.4878L53.4835 83.5177L52.9242 83.7777C55.3802 84.9246 54.8132 86.2692 54.0293 88.0196C53.203 89.8459 53.8851 91.7581 55.4526 93.3397ZM67.2983 71.4525C65.6086 73.5786 64.9676 75.9682 65.1701 78.8328L67.2983 71.4525ZM90.4647 86.5432C92.8948 83.8553 94.4606 80.8662 93.8167 77.1223C93.9845 80.6953 92.1508 83.5913 90.464 86.5362L90.4647 86.5432ZM91.7825 74.861C91.0453 77.7616 90.3173 80.6148 89.5866 83.4753C91.2767 80.8234 92.0926 77.9789 91.7817 74.854L91.7825 74.861ZM70.8726 68.8069L70.2175 68.5585C69.3991 70.7322 68.5795 72.9049 67.7585 75.0765L68.2389 75.2541L70.8726 68.8069ZM63.4754 79.8579L65.2047 73.1067C63.6132 75.1364 62.8779 77.3287 63.4754 79.8579Z" fill="#FFDE6A"/>
<path d="M55.4523 93.3397C53.874 91.7593 53.192 89.8472 54.0143 88.0175C54.7981 86.2672 55.3653 84.9226 52.9092 83.7758L53.4686 83.5158L56.0068 84.4858L53.9453 81.8446L54.1338 81.5456L56.423 83.0894C58.0223 81.1304 58.8036 78.7294 59.3299 76.2876C59.4667 75.6507 58.7821 74.8046 58.3645 74.1089C58.0559 73.5803 57.595 73.1181 57.4723 72.3981C58.276 73.1062 59.0793 73.8109 59.9546 74.6079L60.8697 73.0295L58.7084 71.0321C60.2149 71.5293 61.4424 73.1543 63.0863 71.7341C64.283 70.7015 65.2135 69.3611 66.3519 68.0629L64.7053 66.6865L66.909 66.9233L65.7523 64.8866C67.5002 67.0854 69.6444 66.8816 71.9754 66.1963C73.5473 65.7388 74.6603 65.1335 74.1094 63.1931L75.2273 65.0086L75.6305 64.8475L75.4024 62.7725C76.1336 65.198 78.1258 65.9867 80.2378 66.48C82.1591 66.9223 84.1501 67.0744 86.0916 67.4358C88.7627 67.9303 91.4168 68.5017 94.279 69.083C94.3314 68.9988 94.6145 68.5036 94.8872 68.0131C93.9513 71.1531 97.1084 71.7101 98.2922 73.5651L100.434 71.591C98.5652 74.3979 98.5652 74.3979 100.22 77.1003L102.804 76.1091C99.4051 77.4484 101.257 80.1655 101.046 82.3341C100.695 85.948 103.83 85.4129 105.782 86.4599L102.445 86.5086C102.171 89.0701 104.477 88.7559 106.113 89.8365L102.864 89.3323L105.781 96.0594L105.11 96.3278C103.942 93.2944 102.634 90.3082 101.641 87.2204C100.471 83.5792 99.886 79.7754 98.5714 76.2034C97.0323 72.1081 93.7027 69.5523 89.4029 68.7347C85.1699 67.9313 80.8454 67.6169 76.8319 65.8709C76.3185 65.704 75.7669 65.6883 75.2446 65.8258C73.2533 66.2039 71.2861 66.6958 69.3528 67.2989C68.4084 67.6216 67.335 68.3227 66.8781 69.1511C65.7407 71.2182 64.0706 72.5984 62.1187 73.8261C61.394 74.3282 60.8607 75.0551 60.6036 75.8905C59.7534 78.8855 58.2945 81.5269 56.6973 84.1974C55.1 86.868 53.0549 89.8546 55.4523 93.3397Z" fill="black"/>
<path d="M67.298 71.4526L65.1697 78.8329C64.9665 75.9612 65.6182 73.5704 67.298 71.4526Z" fill="black"/>
<path d="M90.4629 86.5361C92.1497 83.5913 93.9763 80.696 93.8149 77.1152C94.4587 80.8591 92.8785 83.8497 90.4629 86.5361Z" fill="black"/>
<path d="M91.7808 74.854C92.0917 77.9788 91.2758 80.8235 89.585 83.4683C90.3158 80.6076 91.0436 77.7546 91.7808 74.854Z" fill="black"/>
<path d="M70.872 68.807L68.2383 75.2541L67.7578 75.0765C68.5787 72.905 69.3984 70.7323 70.2167 68.5586L70.872 68.807Z" fill="black"/>
<path d="M63.4752 79.8581C62.8777 77.3289 63.6129 75.1366 65.2044 73.1069L63.4752 79.8581Z" fill="black"/>
<path d="M70.5557 82.5085C70.6978 82.3735 70.8108 82.187 70.9858 82.1099C71.5835 81.8753 71.5653 81.4929 71.485 81.0108C71.0806 78.8144 71.2336 76.5662 71.9334 74.4283C72.1075 73.9072 72.3521 73.4065 72.6624 72.937C73.6246 71.5004 75.0935 71.481 75.9427 72.982C76.489 74.0155 76.8728 75.1097 77.0835 76.2347C77.4112 77.9908 77.394 79.7836 77.0326 81.5347L78.5415 82.5182L78.4066 82.6788C77.5792 82.3318 76.7883 81.856 75.9209 81.6729C75.0245 81.4892 74.0944 81.4738 73.1909 81.6279C72.3088 81.7886 71.4996 82.2707 70.6613 82.5921L70.5557 82.5085ZM74.8456 72.4196C74.7384 72.3463 74.6147 72.2939 74.4829 72.2658C74.3509 72.2377 74.2137 72.2347 74.0805 72.2569C73.9471 72.2791 73.8206 72.326 73.7094 72.3945C73.5981 72.4629 73.5046 72.5515 73.435 72.6542C73.0562 73.0812 72.7471 73.553 72.5166 74.0556C71.9338 75.4237 71.659 76.8789 71.7074 78.3398C71.7074 79.3941 71.8277 80.4483 71.8969 81.5797L72.8956 81.2582V77.2664C72.8956 76.8679 73.0451 76.6236 73.5663 76.5786C73.8485 76.5383 74.1166 76.4416 74.3499 76.2958C74.7837 76.0611 74.7909 75.7654 74.3499 75.5372C73.9842 75.3734 73.6068 75.2306 73.22 75.1097C73.5371 74.123 73.7157 73.0753 74.8456 72.4196Z" fill="black"/>
<path d="M80.5381 82.5326C80.6947 82.3969 80.8217 82.2094 81.0119 82.1287C81.5454 81.9187 81.5977 81.5955 81.5118 81.1367C81.0893 79.0068 81.2065 76.8227 81.8551 74.7358C82.0827 74.0206 82.4296 73.3381 82.8849 72.7098C83.7318 71.5627 84.9928 71.5853 85.8696 72.7098C86.7241 73.7857 87.0561 75.0265 87.2538 76.2932C87.5216 78.0494 87.494 79.83 87.1717 81.5794L88.6903 82.565L88.5112 82.8428C87.336 82.077 86.0898 81.5148 84.6049 81.4922C83.1199 81.4696 81.8588 82.0157 80.6574 82.7427L80.5381 82.5326ZM84.9332 72.4158C84.8475 72.348 84.7467 72.2961 84.6372 72.2633C84.5275 72.2307 84.4112 72.2176 84.2955 72.2252C84.1799 72.2327 84.0673 72.2608 83.9645 72.3074C83.8618 72.3541 83.7712 72.4185 83.6982 72.4965C83.2762 72.8974 82.9255 73.3504 82.6573 73.8407C81.9713 75.2961 81.6508 76.8613 81.717 78.4322C81.717 79.4759 81.8439 80.5163 81.9186 81.6311L82.9371 81.308C82.9371 79.896 82.9371 78.5906 82.9371 77.2819C82.9371 76.8877 83.0826 76.6357 83.6236 76.5905C83.913 76.5493 84.1875 76.4509 84.4257 76.3028C84.8735 76.067 84.8772 75.7697 84.4257 75.5436C84.0565 75.3805 83.6752 75.2391 83.2841 75.1202C83.5789 74.1186 83.7915 73.0781 84.9332 72.4158Z" fill="black"/>
<path d="M74.0851 69.0703C74.4553 69.1484 74.8167 69.2572 75.1647 69.3955C75.2453 69.4585 75.3068 69.5391 75.3433 69.6296C75.3799 69.72 75.3902 69.8175 75.3734 69.9126C75.3109 69.9899 75.2274 70.0515 75.1311 70.0914C75.0347 70.1312 74.9285 70.148 74.8228 70.1402C74.3536 69.9684 73.833 69.9487 73.3495 70.0844C72.8661 70.2201 72.4495 70.503 72.1706 70.8849C72.0771 70.9987 71.8107 70.9889 71.6201 71.0377C71.5657 70.8834 71.545 70.7211 71.5589 70.5597C71.8216 69.7792 72.9659 69.1419 74.0851 69.0703Z" fill="black"/>
<path d="M84.8998 69.0703C86.1076 69.1335 86.9901 69.4897 87.4868 70.4019C87.5761 70.5684 87.4868 70.8247 87.4653 71.0377C87.2652 70.9579 87.0081 70.9246 86.8829 70.7848C86.6074 70.4273 86.2127 70.1647 85.7604 70.0376C85.3081 69.9106 84.8234 69.9263 84.3816 70.0823C84.1959 70.1356 83.9279 69.9358 83.6992 69.8526C83.8064 69.6595 83.8672 69.3865 84.0565 69.2967C84.3252 69.1857 84.6089 69.1095 84.8998 69.0703Z" fill="black"/>
<path d="M75.0526 72.3333C73.8009 72.9891 73.6031 74.0713 73.2559 75.078C73.6843 75.2012 74.1023 75.3469 74.5076 75.5141C74.992 75.7468 74.984 76.0486 74.5076 76.2879C74.2491 76.4367 73.9521 76.5353 73.6394 76.5765C73.0621 76.6191 72.8965 76.8716 72.8965 77.2782V81.364L71.7902 81.6919C71.7134 80.5377 71.5964 79.4621 71.5803 78.3866C71.5266 76.8961 71.831 75.4114 72.4766 74.0156C72.7319 73.5027 73.0743 73.0215 73.494 72.5858C73.5698 72.4805 73.6722 72.3894 73.7944 72.3186C73.9167 72.2477 74.0561 72.1987 74.2034 72.1749C74.3507 72.151 74.5026 72.1527 74.649 72.1801C74.7953 72.2074 74.9329 72.2597 75.0526 72.3333Z" fill="white"/>
<path d="M85.3795 72.3479C84.0324 73.0191 83.7814 74.0733 83.4337 75.0948C83.8951 75.2153 84.3451 75.3585 84.7808 75.5237C85.3134 75.7528 85.3091 76.054 84.7808 76.293C84.4996 76.443 84.1756 76.5427 83.8342 76.5845C83.1959 76.6171 83.0243 76.8856 83.0243 77.285C83.0243 78.5947 83.0243 79.9337 83.0243 81.3645L81.8224 81.6919C81.7343 80.5623 81.6023 79.5081 81.5847 78.4506C81.5078 76.8611 81.8537 75.2912 82.6619 73.8185C82.9783 73.3218 83.1967 72.9393 83.6946 72.5331C83.7794 72.453 84.0088 72.3137 84.1294 72.2653C84.25 72.2169 84.4867 72.17 84.6233 72.1611C84.7598 72.1522 84.8973 72.1641 85.0273 72.1962C85.1574 72.2283 85.2772 72.28 85.3795 72.3479Z" fill="white"/>
<path d="M75.7105 83.9483C76.4765 85.5344 77.7425 86.5595 79.7709 86.3056C80.659 86.2095 81.499 85.9006 82.1975 85.413C82.896 84.9254 83.4255 84.2784 83.7269 83.5439C83.7593 83.6349 83.8385 83.7383 83.8168 83.8198C83.5436 84.8261 83.2882 85.8417 82.9645 86.8384C82.6048 87.9607 81.8856 88.8792 80.5693 89.2992C79.8816 89.5057 79.1315 89.4899 78.4562 89.2545C77.7807 89.0191 77.2249 88.58 76.8901 88.0171C76.5171 87.3577 76.2196 86.6679 76.0018 85.9577C75.8076 85.4373 75.6745 84.9013 75.527 84.3716C75.5092 84.2539 75.5092 84.1348 75.527 84.0173L75.7105 83.9483ZM77.7928 88.3744C78.8717 89.3148 80.5117 89.3524 81.1303 88.4935C80.5873 87.7663 80.2816 87.7193 79.4076 88.224C78.6812 87.6973 78.3971 87.7193 77.7928 88.3744Z" fill="black"/>
<path d="M79.3506 90.0667L80.7604 89.9414C80.7536 90.0178 80.7296 90.0922 80.6898 90.1605C80.6499 90.2287 80.595 90.2895 80.5282 90.3392C80.4614 90.3891 80.384 90.4269 80.3004 90.4505C80.2168 90.4743 80.1288 90.4834 80.0412 90.4774C79.6635 90.4774 79.3506 90.3896 79.3506 90.0667Z" fill="black"/>
<path d="M77.793 88.3743C78.3972 87.7191 78.6813 87.6972 79.4078 88.2238C80.2817 87.7191 80.5874 87.7662 81.1305 88.4934C80.5119 89.3523 78.8827 89.3084 77.793 88.3743Z" fill="#FF0D1C"/>
</g>
<rect x="31.9714" y="31.9714" width="100.94" height="100.94" rx="19.57" stroke="white" stroke-opacity="0.5" stroke-width="2.06" shape-rendering="crispEdges"/>
</g>
<defs>
<filter id="filter0_bd_135_2650" x="0.0414066" y="0.0414066" width="164.8" height="164.8" filterUnits="userSpaceOnUse" color-interpolation-filters="sRGB">
<feFlood flood-opacity="0" result="BackgroundImageFix"/>
<feGaussianBlur in="BackgroundImageFix" stdDeviation="15.45"/>
<feComposite in2="SourceAlpha" operator="in" result="effect1_backgroundBlur_135_2650"/>
<feColorMatrix in="SourceAlpha" type="matrix" values="0 0 0 0 0 0 0 0 0 0 0 0 0 0 0 0 0 0 127 0" result="hardAlpha"/>
<feOffset/>
<feGaussianBlur stdDeviation="15.45"/>
<feComposite in2="hardAlpha" operator="out"/>
<feColorMatrix type="matrix" values="0 0 0 0 0.0980392 0 0 0 0 0.0980392 0 0 0 0 0.0980392 0 0 0 0.1 0"/>
<feBlend mode="normal" in2="effect1_backgroundBlur_135_2650" result="effect2_dropShadow_135_2650"/>
<feBlend mode="normal" in="SourceGraphic" in2="effect2_dropShadow_135_2650" result="shape"/>
</filter>
<clipPath id="clip0_135_2650">
<rect width="84.46" height="53.56" fill="white" transform="translate(39.1816 55.6616)"/>
</clipPath>
</defs>
</svg>
